G04 #@! TF.GenerationSoftware,KiCad,Pcbnew,(5.1.6-0-10_14)*
G04 #@! TF.CreationDate,2020-09-27T10:59:16+08:00*
G04 #@! TF.ProjectId,Watch_F4,57617463-685f-4463-942e-6b696361645f,rev?*
G04 #@! TF.SameCoordinates,Original*
G04 #@! TF.FileFunction,Soldermask,Bot*
G04 #@! TF.FilePolarity,Negative*
%FSLAX46Y46*%
G04 Gerber Fmt 4.6, Leading zero omitted, Abs format (unit mm)*
G04 Created by KiCad (PCBNEW (5.1.6-0-10_14)) date 2020-09-27 10:59:16*
%MOMM*%
%LPD*%
G01*
G04 APERTURE LIST*
%ADD10C,0.100000*%
G04 APERTURE END LIST*
D10*
G36*
X150388970Y-123254080D02*
G01*
X150426446Y-123265448D01*
X150460978Y-123283905D01*
X150491250Y-123308750D01*
X150516095Y-123339022D01*
X150534552Y-123373554D01*
X150545920Y-123411030D01*
X150550000Y-123452454D01*
X150550000Y-125147546D01*
X150545920Y-125188970D01*
X150534552Y-125226446D01*
X150516095Y-125260978D01*
X150491250Y-125291250D01*
X150460978Y-125316095D01*
X150426446Y-125334552D01*
X150388970Y-125345920D01*
X150347546Y-125350000D01*
X149852454Y-125350000D01*
X149811030Y-125345920D01*
X149773554Y-125334552D01*
X149739022Y-125316095D01*
X149708750Y-125291250D01*
X149683905Y-125260978D01*
X149665448Y-125226446D01*
X149654080Y-125188970D01*
X149650000Y-125147546D01*
X149650000Y-123452454D01*
X149654080Y-123411030D01*
X149665448Y-123373554D01*
X149683905Y-123339022D01*
X149708750Y-123308750D01*
X149739022Y-123283905D01*
X149773554Y-123265448D01*
X149811030Y-123254080D01*
X149852454Y-123250000D01*
X150347546Y-123250000D01*
X150388970Y-123254080D01*
G37*
G36*
X146188970Y-123254080D02*
G01*
X146226446Y-123265448D01*
X146260978Y-123283905D01*
X146291250Y-123308750D01*
X146316095Y-123339022D01*
X146334552Y-123373554D01*
X146345920Y-123411030D01*
X146350000Y-123452454D01*
X146350000Y-125147546D01*
X146345920Y-125188970D01*
X146334552Y-125226446D01*
X146316095Y-125260978D01*
X146291250Y-125291250D01*
X146260978Y-125316095D01*
X146226446Y-125334552D01*
X146188970Y-125345920D01*
X146147546Y-125350000D01*
X145652454Y-125350000D01*
X145611030Y-125345920D01*
X145573554Y-125334552D01*
X145539022Y-125316095D01*
X145508750Y-125291250D01*
X145483905Y-125260978D01*
X145465448Y-125226446D01*
X145454080Y-125188970D01*
X145450000Y-125147546D01*
X145450000Y-123452454D01*
X145454080Y-123411030D01*
X145465448Y-123373554D01*
X145483905Y-123339022D01*
X145508750Y-123308750D01*
X145539022Y-123283905D01*
X145573554Y-123265448D01*
X145611030Y-123254080D01*
X145652454Y-123250000D01*
X146147546Y-123250000D01*
X146188970Y-123254080D01*
G37*
G36*
X159875000Y-124625000D02*
G01*
X158425000Y-124625000D01*
X158425000Y-123175000D01*
X159875000Y-123175000D01*
X159875000Y-124625000D01*
G37*
G36*
X157291440Y-123188930D02*
G01*
X157361475Y-123202861D01*
X157493416Y-123257513D01*
X157612161Y-123336856D01*
X157713144Y-123437839D01*
X157792487Y-123556584D01*
X157847139Y-123688525D01*
X157847139Y-123688527D01*
X157875000Y-123828592D01*
X157875000Y-123971408D01*
X157872391Y-123984523D01*
X157847139Y-124111475D01*
X157792487Y-124243416D01*
X157713144Y-124362161D01*
X157612161Y-124463144D01*
X157493416Y-124542487D01*
X157361475Y-124597139D01*
X157291441Y-124611069D01*
X157221408Y-124625000D01*
X157078592Y-124625000D01*
X157008559Y-124611069D01*
X156938525Y-124597139D01*
X156806584Y-124542487D01*
X156687839Y-124463144D01*
X156586856Y-124362161D01*
X156507513Y-124243416D01*
X156452861Y-124111475D01*
X156427609Y-123984523D01*
X156425000Y-123971408D01*
X156425000Y-123828592D01*
X156452861Y-123688527D01*
X156452861Y-123688525D01*
X156507513Y-123556584D01*
X156586856Y-123437839D01*
X156687839Y-123336856D01*
X156806584Y-123257513D01*
X156938525Y-123202861D01*
X157008560Y-123188930D01*
X157078592Y-123175000D01*
X157221408Y-123175000D01*
X157291440Y-123188930D01*
G37*
G36*
X143787818Y-122382958D02*
G01*
X143822376Y-122393441D01*
X143891495Y-122414408D01*
X143987039Y-122465477D01*
X143987040Y-122465478D01*
X143987042Y-122465479D01*
X144070790Y-122534210D01*
X144139523Y-122617961D01*
X144190592Y-122713504D01*
X144222042Y-122817182D01*
X144230000Y-122897980D01*
X144230000Y-123552020D01*
X144222042Y-123632818D01*
X144190592Y-123736496D01*
X144141365Y-123828592D01*
X144139521Y-123832042D01*
X144070790Y-123915790D01*
X143987042Y-123984521D01*
X143987040Y-123984522D01*
X143987039Y-123984523D01*
X143891496Y-124035592D01*
X143822377Y-124056559D01*
X143787819Y-124067042D01*
X143680000Y-124077661D01*
X143572182Y-124067042D01*
X143537624Y-124056559D01*
X143468505Y-124035592D01*
X143372962Y-123984523D01*
X143372961Y-123984522D01*
X143372959Y-123984521D01*
X143289211Y-123915790D01*
X143220480Y-123832042D01*
X143209709Y-123811891D01*
X143169407Y-123736494D01*
X143137958Y-123632818D01*
X143130000Y-123552020D01*
X143130000Y-122897981D01*
X143137958Y-122817183D01*
X143137959Y-122817181D01*
X143148441Y-122782624D01*
X143169408Y-122713505D01*
X143220477Y-122617961D01*
X143289210Y-122534210D01*
X143372958Y-122465479D01*
X143372960Y-122465478D01*
X143372961Y-122465477D01*
X143468504Y-122414408D01*
X143537623Y-122393441D01*
X143572181Y-122382958D01*
X143680000Y-122372339D01*
X143787818Y-122382958D01*
G37*
G36*
X152427818Y-122382958D02*
G01*
X152462376Y-122393441D01*
X152531495Y-122414408D01*
X152627039Y-122465477D01*
X152627040Y-122465478D01*
X152627042Y-122465479D01*
X152710790Y-122534210D01*
X152779523Y-122617961D01*
X152830592Y-122713504D01*
X152862042Y-122817182D01*
X152870000Y-122897980D01*
X152870000Y-123552020D01*
X152862042Y-123632818D01*
X152830592Y-123736496D01*
X152781365Y-123828592D01*
X152779521Y-123832042D01*
X152710790Y-123915790D01*
X152627042Y-123984521D01*
X152627040Y-123984522D01*
X152627039Y-123984523D01*
X152531496Y-124035592D01*
X152462377Y-124056559D01*
X152427819Y-124067042D01*
X152320000Y-124077661D01*
X152212182Y-124067042D01*
X152177624Y-124056559D01*
X152108505Y-124035592D01*
X152012962Y-123984523D01*
X152012961Y-123984522D01*
X152012959Y-123984521D01*
X151929211Y-123915790D01*
X151860480Y-123832042D01*
X151849709Y-123811891D01*
X151809407Y-123736494D01*
X151777958Y-123632818D01*
X151770000Y-123552020D01*
X151770000Y-122897981D01*
X151777958Y-122817183D01*
X151777959Y-122817181D01*
X151788441Y-122782624D01*
X151809408Y-122713505D01*
X151860477Y-122617961D01*
X151929210Y-122534210D01*
X152012958Y-122465479D01*
X152012960Y-122465478D01*
X152012961Y-122465477D01*
X152108504Y-122414408D01*
X152177623Y-122393441D01*
X152212181Y-122382958D01*
X152320000Y-122372339D01*
X152427818Y-122382958D01*
G37*
G36*
X143787818Y-117952958D02*
G01*
X143822376Y-117963441D01*
X143891495Y-117984408D01*
X143987039Y-118035477D01*
X143987040Y-118035478D01*
X143987042Y-118035479D01*
X144070790Y-118104210D01*
X144139523Y-118187961D01*
X144190592Y-118283504D01*
X144211559Y-118352623D01*
X144222042Y-118387181D01*
X144230000Y-118467982D01*
X144230000Y-119622018D01*
X144222042Y-119702819D01*
X144211559Y-119737377D01*
X144190592Y-119806496D01*
X144152735Y-119877321D01*
X144139521Y-119902042D01*
X144070790Y-119985790D01*
X143987042Y-120054521D01*
X143987040Y-120054522D01*
X143987039Y-120054523D01*
X143891496Y-120105592D01*
X143822377Y-120126559D01*
X143787819Y-120137042D01*
X143680000Y-120147661D01*
X143572182Y-120137042D01*
X143537624Y-120126559D01*
X143468505Y-120105592D01*
X143372962Y-120054523D01*
X143372961Y-120054522D01*
X143372959Y-120054521D01*
X143289211Y-119985790D01*
X143220480Y-119902042D01*
X143207266Y-119877321D01*
X143169409Y-119806496D01*
X143148442Y-119737377D01*
X143137959Y-119702819D01*
X143130001Y-119622018D01*
X143130000Y-118467983D01*
X143137958Y-118387182D01*
X143148441Y-118352624D01*
X143169408Y-118283505D01*
X143220477Y-118187961D01*
X143289210Y-118104210D01*
X143372958Y-118035479D01*
X143372960Y-118035478D01*
X143372961Y-118035477D01*
X143468504Y-117984408D01*
X143537623Y-117963441D01*
X143572181Y-117952958D01*
X143680000Y-117942339D01*
X143787818Y-117952958D01*
G37*
G36*
X152427818Y-117952958D02*
G01*
X152462376Y-117963441D01*
X152531495Y-117984408D01*
X152627039Y-118035477D01*
X152627040Y-118035478D01*
X152627042Y-118035479D01*
X152710790Y-118104210D01*
X152779523Y-118187961D01*
X152830592Y-118283504D01*
X152851559Y-118352623D01*
X152862042Y-118387181D01*
X152870000Y-118467982D01*
X152870000Y-119622018D01*
X152862042Y-119702819D01*
X152851559Y-119737377D01*
X152830592Y-119806496D01*
X152792735Y-119877321D01*
X152779521Y-119902042D01*
X152710790Y-119985790D01*
X152627042Y-120054521D01*
X152627040Y-120054522D01*
X152627039Y-120054523D01*
X152531496Y-120105592D01*
X152462377Y-120126559D01*
X152427819Y-120137042D01*
X152320000Y-120147661D01*
X152212182Y-120137042D01*
X152177624Y-120126559D01*
X152108505Y-120105592D01*
X152012962Y-120054523D01*
X152012961Y-120054522D01*
X152012959Y-120054521D01*
X151929211Y-119985790D01*
X151860480Y-119902042D01*
X151847266Y-119877321D01*
X151809409Y-119806496D01*
X151788442Y-119737377D01*
X151777959Y-119702819D01*
X151770001Y-119622018D01*
X151770000Y-118467983D01*
X151777958Y-118387182D01*
X151788441Y-118352624D01*
X151809408Y-118283505D01*
X151860477Y-118187961D01*
X151929210Y-118104210D01*
X152012958Y-118035479D01*
X152012960Y-118035478D01*
X152012961Y-118035477D01*
X152108504Y-117984408D01*
X152177623Y-117963441D01*
X152212181Y-117952958D01*
X152320000Y-117942339D01*
X152427818Y-117952958D01*
G37*
G36*
X145219383Y-119184411D02*
G01*
X145287629Y-119212680D01*
X145349048Y-119253719D01*
X145401281Y-119305952D01*
X145442320Y-119367371D01*
X145470589Y-119435617D01*
X145485000Y-119508066D01*
X145485000Y-119581934D01*
X145470589Y-119654383D01*
X145442320Y-119722629D01*
X145401281Y-119784048D01*
X145349048Y-119836281D01*
X145287629Y-119877320D01*
X145287628Y-119877321D01*
X145287627Y-119877321D01*
X145219383Y-119905589D01*
X145146935Y-119920000D01*
X145073065Y-119920000D01*
X145000617Y-119905589D01*
X144932373Y-119877321D01*
X144932372Y-119877321D01*
X144932371Y-119877320D01*
X144870952Y-119836281D01*
X144818719Y-119784048D01*
X144777680Y-119722629D01*
X144749411Y-119654383D01*
X144735000Y-119581934D01*
X144735000Y-119508066D01*
X144749411Y-119435617D01*
X144777680Y-119367371D01*
X144818719Y-119305952D01*
X144870952Y-119253719D01*
X144932371Y-119212680D01*
X145000617Y-119184411D01*
X145073065Y-119170000D01*
X145146935Y-119170000D01*
X145219383Y-119184411D01*
G37*
G36*
X150999383Y-119184411D02*
G01*
X151067629Y-119212680D01*
X151129048Y-119253719D01*
X151181281Y-119305952D01*
X151222320Y-119367371D01*
X151250589Y-119435617D01*
X151265000Y-119508066D01*
X151265000Y-119581934D01*
X151250589Y-119654383D01*
X151222320Y-119722629D01*
X151181281Y-119784048D01*
X151129048Y-119836281D01*
X151067629Y-119877320D01*
X151067628Y-119877321D01*
X151067627Y-119877321D01*
X150999383Y-119905589D01*
X150926935Y-119920000D01*
X150853065Y-119920000D01*
X150780617Y-119905589D01*
X150712373Y-119877321D01*
X150712372Y-119877321D01*
X150712371Y-119877320D01*
X150650952Y-119836281D01*
X150598719Y-119784048D01*
X150557680Y-119722629D01*
X150529411Y-119654383D01*
X150515000Y-119581934D01*
X150515000Y-119508066D01*
X150529411Y-119435617D01*
X150557680Y-119367371D01*
X150598719Y-119305952D01*
X150650952Y-119253719D01*
X150712371Y-119212680D01*
X150780617Y-119184411D01*
X150853065Y-119170000D01*
X150926935Y-119170000D01*
X150999383Y-119184411D01*
G37*
G36*
X132195000Y-116150000D02*
G01*
X130545000Y-116150000D01*
X130545000Y-114750000D01*
X132195000Y-114750000D01*
X132195000Y-116150000D01*
G37*
G36*
X134155000Y-116150000D02*
G01*
X132505000Y-116150000D01*
X132505000Y-114750000D01*
X134155000Y-114750000D01*
X134155000Y-116150000D01*
G37*
G36*
X163565000Y-115600000D02*
G01*
X161915000Y-115600000D01*
X161915000Y-114200000D01*
X163565000Y-114200000D01*
X163565000Y-115600000D01*
G37*
G36*
X165525000Y-115600000D02*
G01*
X163875000Y-115600000D01*
X163875000Y-114200000D01*
X165525000Y-114200000D01*
X165525000Y-115600000D01*
G37*
G36*
X132195000Y-111650000D02*
G01*
X130545000Y-111650000D01*
X130545000Y-110250000D01*
X132195000Y-110250000D01*
X132195000Y-111650000D01*
G37*
G36*
X134155000Y-111650000D02*
G01*
X132505000Y-111650000D01*
X132505000Y-110250000D01*
X134155000Y-110250000D01*
X134155000Y-111650000D01*
G37*
G36*
X163565000Y-111100000D02*
G01*
X161915000Y-111100000D01*
X161915000Y-109700000D01*
X163565000Y-109700000D01*
X163565000Y-111100000D01*
G37*
G36*
X165525000Y-111100000D02*
G01*
X163875000Y-111100000D01*
X163875000Y-109700000D01*
X165525000Y-109700000D01*
X165525000Y-111100000D01*
G37*
G36*
X145453785Y-107949800D02*
G01*
X145498292Y-107963302D01*
X145539316Y-107985229D01*
X145575266Y-108014734D01*
X145604771Y-108050684D01*
X145626698Y-108091708D01*
X145640200Y-108136215D01*
X145645000Y-108184954D01*
X145645000Y-108855046D01*
X145640200Y-108903785D01*
X145626698Y-108948292D01*
X145604771Y-108989316D01*
X145575266Y-109025266D01*
X145539316Y-109054771D01*
X145498292Y-109076698D01*
X145453785Y-109090200D01*
X145405046Y-109095000D01*
X144834954Y-109095000D01*
X144786215Y-109090200D01*
X144741708Y-109076698D01*
X144700684Y-109054771D01*
X144664734Y-109025266D01*
X144635229Y-108989316D01*
X144613302Y-108948292D01*
X144599800Y-108903785D01*
X144595000Y-108855046D01*
X144595000Y-108184954D01*
X144599800Y-108136215D01*
X144613302Y-108091708D01*
X144635229Y-108050684D01*
X144664734Y-108014734D01*
X144700684Y-107985229D01*
X144741708Y-107963302D01*
X144786215Y-107949800D01*
X144834954Y-107945000D01*
X145405046Y-107945000D01*
X145453785Y-107949800D01*
G37*
G36*
X151203785Y-107944800D02*
G01*
X151248292Y-107958302D01*
X151289316Y-107980229D01*
X151325266Y-108009734D01*
X151354771Y-108045684D01*
X151376698Y-108086708D01*
X151390200Y-108131215D01*
X151395000Y-108179954D01*
X151395000Y-108850046D01*
X151390200Y-108898785D01*
X151376698Y-108943292D01*
X151354771Y-108984316D01*
X151325266Y-109020266D01*
X151289316Y-109049771D01*
X151248292Y-109071698D01*
X151203785Y-109085200D01*
X151155046Y-109090000D01*
X150584954Y-109090000D01*
X150536215Y-109085200D01*
X150491708Y-109071698D01*
X150450684Y-109049771D01*
X150414734Y-109020266D01*
X150385229Y-108984316D01*
X150363302Y-108943292D01*
X150349800Y-108898785D01*
X150345000Y-108850046D01*
X150345000Y-108179954D01*
X150349800Y-108131215D01*
X150363302Y-108086708D01*
X150385229Y-108045684D01*
X150414734Y-108009734D01*
X150450684Y-107980229D01*
X150491708Y-107958302D01*
X150536215Y-107944800D01*
X150584954Y-107940000D01*
X151155046Y-107940000D01*
X151203785Y-107944800D01*
G37*
G36*
X149554525Y-108176918D02*
G01*
X149570892Y-108181883D01*
X149585978Y-108189948D01*
X149599201Y-108200799D01*
X149610052Y-108214022D01*
X149618117Y-108229108D01*
X149623082Y-108245475D01*
X149625000Y-108264954D01*
X149625000Y-108535046D01*
X149623082Y-108554525D01*
X149618117Y-108570892D01*
X149610052Y-108585978D01*
X149599201Y-108599201D01*
X149585978Y-108610052D01*
X149570892Y-108618117D01*
X149554525Y-108623082D01*
X149535046Y-108625000D01*
X148864954Y-108625000D01*
X148845475Y-108623082D01*
X148829108Y-108618117D01*
X148814022Y-108610052D01*
X148800799Y-108599201D01*
X148789948Y-108585978D01*
X148781883Y-108570892D01*
X148776918Y-108554525D01*
X148775000Y-108535046D01*
X148775000Y-108264954D01*
X148776918Y-108245475D01*
X148781883Y-108229108D01*
X148789948Y-108214022D01*
X148800799Y-108200799D01*
X148814022Y-108189948D01*
X148829108Y-108181883D01*
X148845475Y-108176918D01*
X148864954Y-108175000D01*
X149535046Y-108175000D01*
X149554525Y-108176918D01*
G37*
G36*
X147154525Y-108176918D02*
G01*
X147170892Y-108181883D01*
X147185978Y-108189948D01*
X147199201Y-108200799D01*
X147210052Y-108214022D01*
X147218117Y-108229108D01*
X147223082Y-108245475D01*
X147225000Y-108264954D01*
X147225000Y-108535046D01*
X147223082Y-108554525D01*
X147218117Y-108570892D01*
X147210052Y-108585978D01*
X147199201Y-108599201D01*
X147185978Y-108610052D01*
X147170892Y-108618117D01*
X147154525Y-108623082D01*
X147135046Y-108625000D01*
X146464954Y-108625000D01*
X146445475Y-108623082D01*
X146429108Y-108618117D01*
X146414022Y-108610052D01*
X146400799Y-108599201D01*
X146389948Y-108585978D01*
X146381883Y-108570892D01*
X146376918Y-108554525D01*
X146375000Y-108535046D01*
X146375000Y-108264954D01*
X146376918Y-108245475D01*
X146381883Y-108229108D01*
X146389948Y-108214022D01*
X146400799Y-108200799D01*
X146414022Y-108189948D01*
X146429108Y-108181883D01*
X146445475Y-108176918D01*
X146464954Y-108175000D01*
X147135046Y-108175000D01*
X147154525Y-108176918D01*
G37*
G36*
X149554525Y-107376918D02*
G01*
X149570892Y-107381883D01*
X149585978Y-107389948D01*
X149599201Y-107400799D01*
X149610052Y-107414022D01*
X149618117Y-107429108D01*
X149623082Y-107445475D01*
X149625000Y-107464954D01*
X149625000Y-107735046D01*
X149623082Y-107754525D01*
X149618117Y-107770892D01*
X149610052Y-107785978D01*
X149599201Y-107799201D01*
X149585978Y-107810052D01*
X149570892Y-107818117D01*
X149554525Y-107823082D01*
X149535046Y-107825000D01*
X148864954Y-107825000D01*
X148845475Y-107823082D01*
X148829108Y-107818117D01*
X148814022Y-107810052D01*
X148800799Y-107799201D01*
X148789948Y-107785978D01*
X148781883Y-107770892D01*
X148776918Y-107754525D01*
X148775000Y-107735046D01*
X148775000Y-107464954D01*
X148776918Y-107445475D01*
X148781883Y-107429108D01*
X148789948Y-107414022D01*
X148800799Y-107400799D01*
X148814022Y-107389948D01*
X148829108Y-107381883D01*
X148845475Y-107376918D01*
X148864954Y-107375000D01*
X149535046Y-107375000D01*
X149554525Y-107376918D01*
G37*
G36*
X147154525Y-107376918D02*
G01*
X147170892Y-107381883D01*
X147185978Y-107389948D01*
X147199201Y-107400799D01*
X147210052Y-107414022D01*
X147218117Y-107429108D01*
X147223082Y-107445475D01*
X147225000Y-107464954D01*
X147225000Y-107735046D01*
X147223082Y-107754525D01*
X147218117Y-107770892D01*
X147210052Y-107785978D01*
X147199201Y-107799201D01*
X147185978Y-107810052D01*
X147170892Y-107818117D01*
X147154525Y-107823082D01*
X147135046Y-107825000D01*
X146464954Y-107825000D01*
X146445475Y-107823082D01*
X146429108Y-107818117D01*
X146414022Y-107810052D01*
X146400799Y-107799201D01*
X146389948Y-107785978D01*
X146381883Y-107770892D01*
X146376918Y-107754525D01*
X146375000Y-107735046D01*
X146375000Y-107464954D01*
X146376918Y-107445475D01*
X146381883Y-107429108D01*
X146389948Y-107414022D01*
X146400799Y-107400799D01*
X146414022Y-107389948D01*
X146429108Y-107381883D01*
X146445475Y-107376918D01*
X146464954Y-107375000D01*
X147135046Y-107375000D01*
X147154525Y-107376918D01*
G37*
G36*
X145453785Y-106199800D02*
G01*
X145498292Y-106213302D01*
X145539316Y-106235229D01*
X145575266Y-106264734D01*
X145604771Y-106300684D01*
X145626698Y-106341708D01*
X145640200Y-106386215D01*
X145645000Y-106434954D01*
X145645000Y-107105046D01*
X145640200Y-107153785D01*
X145626698Y-107198292D01*
X145604771Y-107239316D01*
X145575266Y-107275266D01*
X145539316Y-107304771D01*
X145498292Y-107326698D01*
X145453785Y-107340200D01*
X145405046Y-107345000D01*
X144834954Y-107345000D01*
X144786215Y-107340200D01*
X144741708Y-107326698D01*
X144700684Y-107304771D01*
X144664734Y-107275266D01*
X144635229Y-107239316D01*
X144613302Y-107198292D01*
X144599800Y-107153785D01*
X144595000Y-107105046D01*
X144595000Y-106434954D01*
X144599800Y-106386215D01*
X144613302Y-106341708D01*
X144635229Y-106300684D01*
X144664734Y-106264734D01*
X144700684Y-106235229D01*
X144741708Y-106213302D01*
X144786215Y-106199800D01*
X144834954Y-106195000D01*
X145405046Y-106195000D01*
X145453785Y-106199800D01*
G37*
G36*
X151203785Y-106194800D02*
G01*
X151248292Y-106208302D01*
X151289316Y-106230229D01*
X151325266Y-106259734D01*
X151354771Y-106295684D01*
X151376698Y-106336708D01*
X151390200Y-106381215D01*
X151395000Y-106429954D01*
X151395000Y-107100046D01*
X151390200Y-107148785D01*
X151376698Y-107193292D01*
X151354771Y-107234316D01*
X151325266Y-107270266D01*
X151289316Y-107299771D01*
X151248292Y-107321698D01*
X151203785Y-107335200D01*
X151155046Y-107340000D01*
X150584954Y-107340000D01*
X150536215Y-107335200D01*
X150491708Y-107321698D01*
X150450684Y-107299771D01*
X150414734Y-107270266D01*
X150385229Y-107234316D01*
X150363302Y-107193292D01*
X150349800Y-107148785D01*
X150345000Y-107100046D01*
X150345000Y-106429954D01*
X150349800Y-106381215D01*
X150363302Y-106336708D01*
X150385229Y-106295684D01*
X150414734Y-106259734D01*
X150450684Y-106230229D01*
X150491708Y-106208302D01*
X150536215Y-106194800D01*
X150584954Y-106190000D01*
X151155046Y-106190000D01*
X151203785Y-106194800D01*
G37*
G36*
X149554525Y-106576918D02*
G01*
X149570892Y-106581883D01*
X149585978Y-106589948D01*
X149599201Y-106600799D01*
X149610052Y-106614022D01*
X149618117Y-106629108D01*
X149623082Y-106645475D01*
X149625000Y-106664954D01*
X149625000Y-106935046D01*
X149623082Y-106954525D01*
X149618117Y-106970892D01*
X149610052Y-106985978D01*
X149599201Y-106999201D01*
X149585978Y-107010052D01*
X149570892Y-107018117D01*
X149554525Y-107023082D01*
X149535046Y-107025000D01*
X148864954Y-107025000D01*
X148845475Y-107023082D01*
X148829108Y-107018117D01*
X148814022Y-107010052D01*
X148800799Y-106999201D01*
X148789948Y-106985978D01*
X148781883Y-106970892D01*
X148776918Y-106954525D01*
X148775000Y-106935046D01*
X148775000Y-106664954D01*
X148776918Y-106645475D01*
X148781883Y-106629108D01*
X148789948Y-106614022D01*
X148800799Y-106600799D01*
X148814022Y-106589948D01*
X148829108Y-106581883D01*
X148845475Y-106576918D01*
X148864954Y-106575000D01*
X149535046Y-106575000D01*
X149554525Y-106576918D01*
G37*
G36*
X147154525Y-106576918D02*
G01*
X147170892Y-106581883D01*
X147185978Y-106589948D01*
X147199201Y-106600799D01*
X147210052Y-106614022D01*
X147218117Y-106629108D01*
X147223082Y-106645475D01*
X147225000Y-106664954D01*
X147225000Y-106935046D01*
X147223082Y-106954525D01*
X147218117Y-106970892D01*
X147210052Y-106985978D01*
X147199201Y-106999201D01*
X147185978Y-107010052D01*
X147170892Y-107018117D01*
X147154525Y-107023082D01*
X147135046Y-107025000D01*
X146464954Y-107025000D01*
X146445475Y-107023082D01*
X146429108Y-107018117D01*
X146414022Y-107010052D01*
X146400799Y-106999201D01*
X146389948Y-106985978D01*
X146381883Y-106970892D01*
X146376918Y-106954525D01*
X146375000Y-106935046D01*
X146375000Y-106664954D01*
X146376918Y-106645475D01*
X146381883Y-106629108D01*
X146389948Y-106614022D01*
X146400799Y-106600799D01*
X146414022Y-106589948D01*
X146429108Y-106581883D01*
X146445475Y-106576918D01*
X146464954Y-106575000D01*
X147135046Y-106575000D01*
X147154525Y-106576918D01*
G37*
G36*
X149554525Y-105776918D02*
G01*
X149570892Y-105781883D01*
X149585978Y-105789948D01*
X149599201Y-105800799D01*
X149610052Y-105814022D01*
X149618117Y-105829108D01*
X149623082Y-105845475D01*
X149625000Y-105864954D01*
X149625000Y-106135046D01*
X149623082Y-106154525D01*
X149618117Y-106170892D01*
X149610052Y-106185978D01*
X149599201Y-106199201D01*
X149585978Y-106210052D01*
X149570892Y-106218117D01*
X149554525Y-106223082D01*
X149535046Y-106225000D01*
X148864954Y-106225000D01*
X148845475Y-106223082D01*
X148829108Y-106218117D01*
X148814022Y-106210052D01*
X148800799Y-106199201D01*
X148789948Y-106185978D01*
X148781883Y-106170892D01*
X148776918Y-106154525D01*
X148775000Y-106135046D01*
X148775000Y-105864954D01*
X148776918Y-105845475D01*
X148781883Y-105829108D01*
X148789948Y-105814022D01*
X148800799Y-105800799D01*
X148814022Y-105789948D01*
X148829108Y-105781883D01*
X148845475Y-105776918D01*
X148864954Y-105775000D01*
X149535046Y-105775000D01*
X149554525Y-105776918D01*
G37*
G36*
X147154525Y-105776918D02*
G01*
X147170892Y-105781883D01*
X147185978Y-105789948D01*
X147199201Y-105800799D01*
X147210052Y-105814022D01*
X147218117Y-105829108D01*
X147223082Y-105845475D01*
X147225000Y-105864954D01*
X147225000Y-106135046D01*
X147223082Y-106154525D01*
X147218117Y-106170892D01*
X147210052Y-106185978D01*
X147199201Y-106199201D01*
X147185978Y-106210052D01*
X147170892Y-106218117D01*
X147154525Y-106223082D01*
X147135046Y-106225000D01*
X146464954Y-106225000D01*
X146445475Y-106223082D01*
X146429108Y-106218117D01*
X146414022Y-106210052D01*
X146400799Y-106199201D01*
X146389948Y-106185978D01*
X146381883Y-106170892D01*
X146376918Y-106154525D01*
X146375000Y-106135046D01*
X146375000Y-105864954D01*
X146376918Y-105845475D01*
X146381883Y-105829108D01*
X146389948Y-105814022D01*
X146400799Y-105800799D01*
X146414022Y-105789948D01*
X146429108Y-105781883D01*
X146445475Y-105776918D01*
X146464954Y-105775000D01*
X147135046Y-105775000D01*
X147154525Y-105776918D01*
G37*
G36*
X151203785Y-104524800D02*
G01*
X151248292Y-104538302D01*
X151289316Y-104560229D01*
X151325266Y-104589734D01*
X151354771Y-104625684D01*
X151376698Y-104666708D01*
X151390200Y-104711215D01*
X151395000Y-104759954D01*
X151395000Y-105430046D01*
X151390200Y-105478785D01*
X151376698Y-105523292D01*
X151354771Y-105564316D01*
X151325266Y-105600266D01*
X151289316Y-105629771D01*
X151248292Y-105651698D01*
X151203785Y-105665200D01*
X151155046Y-105670000D01*
X150584954Y-105670000D01*
X150536215Y-105665200D01*
X150491708Y-105651698D01*
X150450684Y-105629771D01*
X150414734Y-105600266D01*
X150385229Y-105564316D01*
X150363302Y-105523292D01*
X150349800Y-105478785D01*
X150345000Y-105430046D01*
X150345000Y-104759954D01*
X150349800Y-104711215D01*
X150363302Y-104666708D01*
X150385229Y-104625684D01*
X150414734Y-104589734D01*
X150450684Y-104560229D01*
X150491708Y-104538302D01*
X150536215Y-104524800D01*
X150584954Y-104520000D01*
X151155046Y-104520000D01*
X151203785Y-104524800D01*
G37*
G36*
X145443785Y-104479800D02*
G01*
X145488292Y-104493302D01*
X145529316Y-104515229D01*
X145565266Y-104544734D01*
X145594771Y-104580684D01*
X145616698Y-104621708D01*
X145630200Y-104666215D01*
X145635000Y-104714954D01*
X145635000Y-105385046D01*
X145630200Y-105433785D01*
X145616698Y-105478292D01*
X145594771Y-105519316D01*
X145565266Y-105555266D01*
X145529316Y-105584771D01*
X145488292Y-105606698D01*
X145443785Y-105620200D01*
X145395046Y-105625000D01*
X144824954Y-105625000D01*
X144776215Y-105620200D01*
X144731708Y-105606698D01*
X144690684Y-105584771D01*
X144654734Y-105555266D01*
X144625229Y-105519316D01*
X144603302Y-105478292D01*
X144589800Y-105433785D01*
X144585000Y-105385046D01*
X144585000Y-104714954D01*
X144589800Y-104666215D01*
X144603302Y-104621708D01*
X144625229Y-104580684D01*
X144654734Y-104544734D01*
X144690684Y-104515229D01*
X144731708Y-104493302D01*
X144776215Y-104479800D01*
X144824954Y-104475000D01*
X145395046Y-104475000D01*
X145443785Y-104479800D01*
G37*
G36*
X147154525Y-104976918D02*
G01*
X147170892Y-104981883D01*
X147185978Y-104989948D01*
X147199201Y-105000799D01*
X147210052Y-105014022D01*
X147218117Y-105029108D01*
X147223082Y-105045475D01*
X147225000Y-105064954D01*
X147225000Y-105335046D01*
X147223082Y-105354525D01*
X147218117Y-105370892D01*
X147210052Y-105385978D01*
X147199201Y-105399201D01*
X147185978Y-105410052D01*
X147170892Y-105418117D01*
X147154525Y-105423082D01*
X147135046Y-105425000D01*
X146464954Y-105425000D01*
X146445475Y-105423082D01*
X146429108Y-105418117D01*
X146414022Y-105410052D01*
X146400799Y-105399201D01*
X146389948Y-105385978D01*
X146381883Y-105370892D01*
X146376918Y-105354525D01*
X146375000Y-105335046D01*
X146375000Y-105064954D01*
X146376918Y-105045475D01*
X146381883Y-105029108D01*
X146389948Y-105014022D01*
X146400799Y-105000799D01*
X146414022Y-104989948D01*
X146429108Y-104981883D01*
X146445475Y-104976918D01*
X146464954Y-104975000D01*
X147135046Y-104975000D01*
X147154525Y-104976918D01*
G37*
G36*
X149554525Y-104976918D02*
G01*
X149570892Y-104981883D01*
X149585978Y-104989948D01*
X149599201Y-105000799D01*
X149610052Y-105014022D01*
X149618117Y-105029108D01*
X149623082Y-105045475D01*
X149625000Y-105064954D01*
X149625000Y-105335046D01*
X149623082Y-105354525D01*
X149618117Y-105370892D01*
X149610052Y-105385978D01*
X149599201Y-105399201D01*
X149585978Y-105410052D01*
X149570892Y-105418117D01*
X149554525Y-105423082D01*
X149535046Y-105425000D01*
X148864954Y-105425000D01*
X148845475Y-105423082D01*
X148829108Y-105418117D01*
X148814022Y-105410052D01*
X148800799Y-105399201D01*
X148789948Y-105385978D01*
X148781883Y-105370892D01*
X148776918Y-105354525D01*
X148775000Y-105335046D01*
X148775000Y-105064954D01*
X148776918Y-105045475D01*
X148781883Y-105029108D01*
X148789948Y-105014022D01*
X148800799Y-105000799D01*
X148814022Y-104989948D01*
X148829108Y-104981883D01*
X148845475Y-104976918D01*
X148864954Y-104975000D01*
X149535046Y-104975000D01*
X149554525Y-104976918D01*
G37*
G36*
X149554525Y-104176918D02*
G01*
X149570892Y-104181883D01*
X149585978Y-104189948D01*
X149599201Y-104200799D01*
X149610052Y-104214022D01*
X149618117Y-104229108D01*
X149623082Y-104245475D01*
X149625000Y-104264954D01*
X149625000Y-104535046D01*
X149623082Y-104554525D01*
X149618117Y-104570892D01*
X149610052Y-104585978D01*
X149599201Y-104599201D01*
X149585978Y-104610052D01*
X149570892Y-104618117D01*
X149554525Y-104623082D01*
X149535046Y-104625000D01*
X148864954Y-104625000D01*
X148845475Y-104623082D01*
X148829108Y-104618117D01*
X148814022Y-104610052D01*
X148800799Y-104599201D01*
X148789948Y-104585978D01*
X148781883Y-104570892D01*
X148776918Y-104554525D01*
X148775000Y-104535046D01*
X148775000Y-104264954D01*
X148776918Y-104245475D01*
X148781883Y-104229108D01*
X148789948Y-104214022D01*
X148800799Y-104200799D01*
X148814022Y-104189948D01*
X148829108Y-104181883D01*
X148845475Y-104176918D01*
X148864954Y-104175000D01*
X149535046Y-104175000D01*
X149554525Y-104176918D01*
G37*
G36*
X147154525Y-104176918D02*
G01*
X147170892Y-104181883D01*
X147185978Y-104189948D01*
X147199201Y-104200799D01*
X147210052Y-104214022D01*
X147218117Y-104229108D01*
X147223082Y-104245475D01*
X147225000Y-104264954D01*
X147225000Y-104535046D01*
X147223082Y-104554525D01*
X147218117Y-104570892D01*
X147210052Y-104585978D01*
X147199201Y-104599201D01*
X147185978Y-104610052D01*
X147170892Y-104618117D01*
X147154525Y-104623082D01*
X147135046Y-104625000D01*
X146464954Y-104625000D01*
X146445475Y-104623082D01*
X146429108Y-104618117D01*
X146414022Y-104610052D01*
X146400799Y-104599201D01*
X146389948Y-104585978D01*
X146381883Y-104570892D01*
X146376918Y-104554525D01*
X146375000Y-104535046D01*
X146375000Y-104264954D01*
X146376918Y-104245475D01*
X146381883Y-104229108D01*
X146389948Y-104214022D01*
X146400799Y-104200799D01*
X146414022Y-104189948D01*
X146429108Y-104181883D01*
X146445475Y-104176918D01*
X146464954Y-104175000D01*
X147135046Y-104175000D01*
X147154525Y-104176918D01*
G37*
G36*
X151203785Y-102774800D02*
G01*
X151248292Y-102788302D01*
X151289316Y-102810229D01*
X151325266Y-102839734D01*
X151354771Y-102875684D01*
X151376698Y-102916708D01*
X151390200Y-102961215D01*
X151395000Y-103009954D01*
X151395000Y-103680046D01*
X151390200Y-103728785D01*
X151376698Y-103773292D01*
X151354771Y-103814316D01*
X151325266Y-103850266D01*
X151289316Y-103879771D01*
X151248292Y-103901698D01*
X151203785Y-103915200D01*
X151155046Y-103920000D01*
X150584954Y-103920000D01*
X150536215Y-103915200D01*
X150491708Y-103901698D01*
X150450684Y-103879771D01*
X150414734Y-103850266D01*
X150385229Y-103814316D01*
X150363302Y-103773292D01*
X150349800Y-103728785D01*
X150345000Y-103680046D01*
X150345000Y-103009954D01*
X150349800Y-102961215D01*
X150363302Y-102916708D01*
X150385229Y-102875684D01*
X150414734Y-102839734D01*
X150450684Y-102810229D01*
X150491708Y-102788302D01*
X150536215Y-102774800D01*
X150584954Y-102770000D01*
X151155046Y-102770000D01*
X151203785Y-102774800D01*
G37*
G36*
X145443785Y-102729800D02*
G01*
X145488292Y-102743302D01*
X145529316Y-102765229D01*
X145565266Y-102794734D01*
X145594771Y-102830684D01*
X145616698Y-102871708D01*
X145630200Y-102916215D01*
X145635000Y-102964954D01*
X145635000Y-103635046D01*
X145630200Y-103683785D01*
X145616698Y-103728292D01*
X145594771Y-103769316D01*
X145565266Y-103805266D01*
X145529316Y-103834771D01*
X145488292Y-103856698D01*
X145443785Y-103870200D01*
X145395046Y-103875000D01*
X144824954Y-103875000D01*
X144776215Y-103870200D01*
X144731708Y-103856698D01*
X144690684Y-103834771D01*
X144654734Y-103805266D01*
X144625229Y-103769316D01*
X144603302Y-103728292D01*
X144589800Y-103683785D01*
X144585000Y-103635046D01*
X144585000Y-102964954D01*
X144589800Y-102916215D01*
X144603302Y-102871708D01*
X144625229Y-102830684D01*
X144654734Y-102794734D01*
X144690684Y-102765229D01*
X144731708Y-102743302D01*
X144776215Y-102729800D01*
X144824954Y-102725000D01*
X145395046Y-102725000D01*
X145443785Y-102729800D01*
G37*
G36*
X149554525Y-103376918D02*
G01*
X149570892Y-103381883D01*
X149585978Y-103389948D01*
X149599201Y-103400799D01*
X149610052Y-103414022D01*
X149618117Y-103429108D01*
X149623082Y-103445475D01*
X149625000Y-103464954D01*
X149625000Y-103735046D01*
X149623082Y-103754525D01*
X149618117Y-103770892D01*
X149610052Y-103785978D01*
X149599201Y-103799201D01*
X149585978Y-103810052D01*
X149570892Y-103818117D01*
X149554525Y-103823082D01*
X149535046Y-103825000D01*
X148864954Y-103825000D01*
X148845475Y-103823082D01*
X148829108Y-103818117D01*
X148814022Y-103810052D01*
X148800799Y-103799201D01*
X148789948Y-103785978D01*
X148781883Y-103770892D01*
X148776918Y-103754525D01*
X148775000Y-103735046D01*
X148775000Y-103464954D01*
X148776918Y-103445475D01*
X148781883Y-103429108D01*
X148789948Y-103414022D01*
X148800799Y-103400799D01*
X148814022Y-103389948D01*
X148829108Y-103381883D01*
X148845475Y-103376918D01*
X148864954Y-103375000D01*
X149535046Y-103375000D01*
X149554525Y-103376918D01*
G37*
G36*
X147154525Y-103376918D02*
G01*
X147170892Y-103381883D01*
X147185978Y-103389948D01*
X147199201Y-103400799D01*
X147210052Y-103414022D01*
X147218117Y-103429108D01*
X147223082Y-103445475D01*
X147225000Y-103464954D01*
X147225000Y-103735046D01*
X147223082Y-103754525D01*
X147218117Y-103770892D01*
X147210052Y-103785978D01*
X147199201Y-103799201D01*
X147185978Y-103810052D01*
X147170892Y-103818117D01*
X147154525Y-103823082D01*
X147135046Y-103825000D01*
X146464954Y-103825000D01*
X146445475Y-103823082D01*
X146429108Y-103818117D01*
X146414022Y-103810052D01*
X146400799Y-103799201D01*
X146389948Y-103785978D01*
X146381883Y-103770892D01*
X146376918Y-103754525D01*
X146375000Y-103735046D01*
X146375000Y-103464954D01*
X146376918Y-103445475D01*
X146381883Y-103429108D01*
X146389948Y-103414022D01*
X146400799Y-103400799D01*
X146414022Y-103389948D01*
X146429108Y-103381883D01*
X146445475Y-103376918D01*
X146464954Y-103375000D01*
X147135046Y-103375000D01*
X147154525Y-103376918D01*
G37*
G36*
X134155000Y-101750000D02*
G01*
X132505000Y-101750000D01*
X132505000Y-100350000D01*
X134155000Y-100350000D01*
X134155000Y-101750000D01*
G37*
G36*
X163515000Y-101750000D02*
G01*
X161865000Y-101750000D01*
X161865000Y-100350000D01*
X163515000Y-100350000D01*
X163515000Y-101750000D01*
G37*
G36*
X165333000Y-101750000D02*
G01*
X163683000Y-101750000D01*
X163683000Y-100350000D01*
X165333000Y-100350000D01*
X165333000Y-101750000D01*
G37*
G36*
X132195000Y-101750000D02*
G01*
X130545000Y-101750000D01*
X130545000Y-100350000D01*
X132195000Y-100350000D01*
X132195000Y-101750000D01*
G37*
G36*
X151123785Y-100549800D02*
G01*
X151168292Y-100563302D01*
X151209316Y-100585229D01*
X151245266Y-100614734D01*
X151274771Y-100650684D01*
X151296698Y-100691708D01*
X151310200Y-100736215D01*
X151315000Y-100784954D01*
X151315000Y-101455046D01*
X151310200Y-101503785D01*
X151296698Y-101548292D01*
X151274771Y-101589316D01*
X151245266Y-101625266D01*
X151209316Y-101654771D01*
X151168292Y-101676698D01*
X151123785Y-101690200D01*
X151075046Y-101695000D01*
X150504954Y-101695000D01*
X150456215Y-101690200D01*
X150411708Y-101676698D01*
X150370684Y-101654771D01*
X150334734Y-101625266D01*
X150305229Y-101589316D01*
X150283302Y-101548292D01*
X150269800Y-101503785D01*
X150265000Y-101455046D01*
X150265000Y-100784954D01*
X150269800Y-100736215D01*
X150283302Y-100691708D01*
X150305229Y-100650684D01*
X150334734Y-100614734D01*
X150370684Y-100585229D01*
X150411708Y-100563302D01*
X150456215Y-100549800D01*
X150504954Y-100545000D01*
X151075046Y-100545000D01*
X151123785Y-100549800D01*
G37*
G36*
X145583785Y-100549800D02*
G01*
X145628292Y-100563302D01*
X145669316Y-100585229D01*
X145705266Y-100614734D01*
X145734771Y-100650684D01*
X145756698Y-100691708D01*
X145770200Y-100736215D01*
X145775000Y-100784954D01*
X145775000Y-101455046D01*
X145770200Y-101503785D01*
X145756698Y-101548292D01*
X145734771Y-101589316D01*
X145705266Y-101625266D01*
X145669316Y-101654771D01*
X145628292Y-101676698D01*
X145583785Y-101690200D01*
X145535046Y-101695000D01*
X144964954Y-101695000D01*
X144916215Y-101690200D01*
X144871708Y-101676698D01*
X144830684Y-101654771D01*
X144794734Y-101625266D01*
X144765229Y-101589316D01*
X144743302Y-101548292D01*
X144729800Y-101503785D01*
X144725000Y-101455046D01*
X144725000Y-100784954D01*
X144729800Y-100736215D01*
X144743302Y-100691708D01*
X144765229Y-100650684D01*
X144794734Y-100614734D01*
X144830684Y-100585229D01*
X144871708Y-100563302D01*
X144916215Y-100549800D01*
X144964954Y-100545000D01*
X145535046Y-100545000D01*
X145583785Y-100549800D01*
G37*
G36*
X147445000Y-101675000D02*
G01*
X146695000Y-101675000D01*
X146695000Y-100515000D01*
X147445000Y-100515000D01*
X147445000Y-101675000D01*
G37*
G36*
X148395000Y-101675000D02*
G01*
X147645000Y-101675000D01*
X147645000Y-100515000D01*
X148395000Y-100515000D01*
X148395000Y-101675000D01*
G37*
G36*
X149345000Y-101675000D02*
G01*
X148595000Y-101675000D01*
X148595000Y-100515000D01*
X149345000Y-100515000D01*
X149345000Y-101675000D01*
G37*
G36*
X151123785Y-98799800D02*
G01*
X151168292Y-98813302D01*
X151209316Y-98835229D01*
X151245266Y-98864734D01*
X151274771Y-98900684D01*
X151296698Y-98941708D01*
X151310200Y-98986215D01*
X151315000Y-99034954D01*
X151315000Y-99705046D01*
X151310200Y-99753785D01*
X151296698Y-99798292D01*
X151274771Y-99839316D01*
X151245266Y-99875266D01*
X151209316Y-99904771D01*
X151168292Y-99926698D01*
X151123785Y-99940200D01*
X151075046Y-99945000D01*
X150504954Y-99945000D01*
X150456215Y-99940200D01*
X150411708Y-99926698D01*
X150370684Y-99904771D01*
X150334734Y-99875266D01*
X150305229Y-99839316D01*
X150283302Y-99798292D01*
X150269800Y-99753785D01*
X150265000Y-99705046D01*
X150265000Y-99034954D01*
X150269800Y-98986215D01*
X150283302Y-98941708D01*
X150305229Y-98900684D01*
X150334734Y-98864734D01*
X150370684Y-98835229D01*
X150411708Y-98813302D01*
X150456215Y-98799800D01*
X150504954Y-98795000D01*
X151075046Y-98795000D01*
X151123785Y-98799800D01*
G37*
G36*
X145583785Y-98799800D02*
G01*
X145628292Y-98813302D01*
X145669316Y-98835229D01*
X145705266Y-98864734D01*
X145734771Y-98900684D01*
X145756698Y-98941708D01*
X145770200Y-98986215D01*
X145775000Y-99034954D01*
X145775000Y-99705046D01*
X145770200Y-99753785D01*
X145756698Y-99798292D01*
X145734771Y-99839316D01*
X145705266Y-99875266D01*
X145669316Y-99904771D01*
X145628292Y-99926698D01*
X145583785Y-99940200D01*
X145535046Y-99945000D01*
X144964954Y-99945000D01*
X144916215Y-99940200D01*
X144871708Y-99926698D01*
X144830684Y-99904771D01*
X144794734Y-99875266D01*
X144765229Y-99839316D01*
X144743302Y-99798292D01*
X144729800Y-99753785D01*
X144725000Y-99705046D01*
X144725000Y-99034954D01*
X144729800Y-98986215D01*
X144743302Y-98941708D01*
X144765229Y-98900684D01*
X144794734Y-98864734D01*
X144830684Y-98835229D01*
X144871708Y-98813302D01*
X144916215Y-98799800D01*
X144964954Y-98795000D01*
X145535046Y-98795000D01*
X145583785Y-98799800D01*
G37*
G36*
X147445000Y-99475000D02*
G01*
X146695000Y-99475000D01*
X146695000Y-98315000D01*
X147445000Y-98315000D01*
X147445000Y-99475000D01*
G37*
G36*
X149345000Y-99475000D02*
G01*
X148595000Y-99475000D01*
X148595000Y-98315000D01*
X149345000Y-98315000D01*
X149345000Y-99475000D01*
G37*
G36*
X149493785Y-96489800D02*
G01*
X149538292Y-96503302D01*
X149579316Y-96525229D01*
X149615266Y-96554734D01*
X149644771Y-96590684D01*
X149666698Y-96631708D01*
X149680200Y-96676215D01*
X149685000Y-96724954D01*
X149685000Y-97295046D01*
X149680200Y-97343785D01*
X149666698Y-97388292D01*
X149644771Y-97429316D01*
X149615266Y-97465266D01*
X149579316Y-97494771D01*
X149538292Y-97516698D01*
X149493785Y-97530200D01*
X149445046Y-97535000D01*
X148774954Y-97535000D01*
X148726215Y-97530200D01*
X148681708Y-97516698D01*
X148640684Y-97494771D01*
X148604734Y-97465266D01*
X148575229Y-97429316D01*
X148553302Y-97388292D01*
X148539800Y-97343785D01*
X148535000Y-97295046D01*
X148535000Y-96724954D01*
X148539800Y-96676215D01*
X148553302Y-96631708D01*
X148575229Y-96590684D01*
X148604734Y-96554734D01*
X148640684Y-96525229D01*
X148681708Y-96503302D01*
X148726215Y-96489800D01*
X148774954Y-96485000D01*
X149445046Y-96485000D01*
X149493785Y-96489800D01*
G37*
G36*
X147743785Y-96489800D02*
G01*
X147788292Y-96503302D01*
X147829316Y-96525229D01*
X147865266Y-96554734D01*
X147894771Y-96590684D01*
X147916698Y-96631708D01*
X147930200Y-96676215D01*
X147935000Y-96724954D01*
X147935000Y-97295046D01*
X147930200Y-97343785D01*
X147916698Y-97388292D01*
X147894771Y-97429316D01*
X147865266Y-97465266D01*
X147829316Y-97494771D01*
X147788292Y-97516698D01*
X147743785Y-97530200D01*
X147695046Y-97535000D01*
X147024954Y-97535000D01*
X146976215Y-97530200D01*
X146931708Y-97516698D01*
X146890684Y-97494771D01*
X146854734Y-97465266D01*
X146825229Y-97429316D01*
X146803302Y-97388292D01*
X146789800Y-97343785D01*
X146785000Y-97295046D01*
X146785000Y-96724954D01*
X146789800Y-96676215D01*
X146803302Y-96631708D01*
X146825229Y-96590684D01*
X146854734Y-96554734D01*
X146890684Y-96525229D01*
X146931708Y-96503302D01*
X146976215Y-96489800D01*
X147024954Y-96485000D01*
X147695046Y-96485000D01*
X147743785Y-96489800D01*
G37*
G36*
X134155000Y-97250000D02*
G01*
X132505000Y-97250000D01*
X132505000Y-95850000D01*
X134155000Y-95850000D01*
X134155000Y-97250000D01*
G37*
G36*
X132195000Y-97250000D02*
G01*
X130545000Y-97250000D01*
X130545000Y-95850000D01*
X132195000Y-95850000D01*
X132195000Y-97250000D01*
G37*
G36*
X163515000Y-97250000D02*
G01*
X161865000Y-97250000D01*
X161865000Y-95850000D01*
X163515000Y-95850000D01*
X163515000Y-97250000D01*
G37*
G36*
X165333000Y-97250000D02*
G01*
X163683000Y-97250000D01*
X163683000Y-95850000D01*
X165333000Y-95850000D01*
X165333000Y-97250000D01*
G37*
M02*
