G04 #@! TF.GenerationSoftware,KiCad,Pcbnew,(5.1.6-0-10_14)*
G04 #@! TF.CreationDate,2020-09-27T10:59:16+08:00*
G04 #@! TF.ProjectId,Watch_F4,57617463-685f-4463-942e-6b696361645f,rev?*
G04 #@! TF.SameCoordinates,Original*
G04 #@! TF.FileFunction,Paste,Top*
G04 #@! TF.FilePolarity,Positive*
%FSLAX46Y46*%
G04 Gerber Fmt 4.6, Leading zero omitted, Abs format (unit mm)*
G04 Created by KiCad (PCBNEW (5.1.6-0-10_14)) date 2020-09-27 10:59:16*
%MOMM*%
%LPD*%
G01*
G04 APERTURE LIST*
%ADD10R,0.300000X1.150000*%
%ADD11R,0.350000X1.300000*%
%ADD12R,0.800000X0.900000*%
%ADD13R,1.800000X0.800000*%
%ADD14R,0.800000X1.800000*%
%ADD15R,1.800000X1.000000*%
%ADD16R,1.700000X2.400000*%
%ADD17R,2.700000X2.200000*%
G04 APERTURE END LIST*
D10*
X151350000Y-118480000D03*
X150550000Y-118480000D03*
X145750000Y-118480000D03*
X144950000Y-118480000D03*
X144650000Y-118480000D03*
X145450000Y-118480000D03*
X146250000Y-118480000D03*
X146750000Y-118480000D03*
X147250000Y-118480000D03*
X147750000Y-118480000D03*
X148250000Y-118480000D03*
X148750000Y-118480000D03*
X149250000Y-118480000D03*
X149750000Y-118480000D03*
X150250000Y-118480000D03*
X151050000Y-118480000D03*
D11*
X151850000Y-87600000D03*
X151150000Y-87600000D03*
X150450000Y-87600000D03*
X149750000Y-87600000D03*
X149050000Y-87600000D03*
X148350000Y-87600000D03*
X147650000Y-87600000D03*
X146950000Y-87600000D03*
X146250000Y-87600000D03*
X145550000Y-87600000D03*
X144850000Y-87600000D03*
X144150000Y-87600000D03*
G36*
G01*
X163950000Y-106876250D02*
X163950000Y-106363750D01*
G75*
G02*
X164168750Y-106145000I218750J0D01*
G01*
X164606250Y-106145000D01*
G75*
G02*
X164825000Y-106363750I0J-218750D01*
G01*
X164825000Y-106876250D01*
G75*
G02*
X164606250Y-107095000I-218750J0D01*
G01*
X164168750Y-107095000D01*
G75*
G02*
X163950000Y-106876250I0J218750D01*
G01*
G37*
G36*
G01*
X162375000Y-106876250D02*
X162375000Y-106363750D01*
G75*
G02*
X162593750Y-106145000I218750J0D01*
G01*
X163031250Y-106145000D01*
G75*
G02*
X163250000Y-106363750I0J-218750D01*
G01*
X163250000Y-106876250D01*
G75*
G02*
X163031250Y-107095000I-218750J0D01*
G01*
X162593750Y-107095000D01*
G75*
G02*
X162375000Y-106876250I0J218750D01*
G01*
G37*
G36*
G01*
X163250000Y-104543750D02*
X163250000Y-105056250D01*
G75*
G02*
X163031250Y-105275000I-218750J0D01*
G01*
X162593750Y-105275000D01*
G75*
G02*
X162375000Y-105056250I0J218750D01*
G01*
X162375000Y-104543750D01*
G75*
G02*
X162593750Y-104325000I218750J0D01*
G01*
X163031250Y-104325000D01*
G75*
G02*
X163250000Y-104543750I0J-218750D01*
G01*
G37*
G36*
G01*
X164825000Y-104543750D02*
X164825000Y-105056250D01*
G75*
G02*
X164606250Y-105275000I-218750J0D01*
G01*
X164168750Y-105275000D01*
G75*
G02*
X163950000Y-105056250I0J218750D01*
G01*
X163950000Y-104543750D01*
G75*
G02*
X164168750Y-104325000I218750J0D01*
G01*
X164606250Y-104325000D01*
G75*
G02*
X164825000Y-104543750I0J-218750D01*
G01*
G37*
D12*
X156740000Y-89200000D03*
X155790000Y-87200000D03*
X157690000Y-87200000D03*
G36*
G01*
X162262500Y-94045000D02*
X162737500Y-94045000D01*
G75*
G02*
X162975000Y-94282500I0J-237500D01*
G01*
X162975000Y-94857500D01*
G75*
G02*
X162737500Y-95095000I-237500J0D01*
G01*
X162262500Y-95095000D01*
G75*
G02*
X162025000Y-94857500I0J237500D01*
G01*
X162025000Y-94282500D01*
G75*
G02*
X162262500Y-94045000I237500J0D01*
G01*
G37*
G36*
G01*
X162262500Y-92295000D02*
X162737500Y-92295000D01*
G75*
G02*
X162975000Y-92532500I0J-237500D01*
G01*
X162975000Y-93107500D01*
G75*
G02*
X162737500Y-93345000I-237500J0D01*
G01*
X162262500Y-93345000D01*
G75*
G02*
X162025000Y-93107500I0J237500D01*
G01*
X162025000Y-92532500D01*
G75*
G02*
X162262500Y-92295000I237500J0D01*
G01*
G37*
G36*
G01*
X161020000Y-91117500D02*
X161020000Y-90642500D01*
G75*
G02*
X161257500Y-90405000I237500J0D01*
G01*
X161832500Y-90405000D01*
G75*
G02*
X162070000Y-90642500I0J-237500D01*
G01*
X162070000Y-91117500D01*
G75*
G02*
X161832500Y-91355000I-237500J0D01*
G01*
X161257500Y-91355000D01*
G75*
G02*
X161020000Y-91117500I0J237500D01*
G01*
G37*
G36*
G01*
X159270000Y-91117500D02*
X159270000Y-90642500D01*
G75*
G02*
X159507500Y-90405000I237500J0D01*
G01*
X160082500Y-90405000D01*
G75*
G02*
X160320000Y-90642500I0J-237500D01*
G01*
X160320000Y-91117500D01*
G75*
G02*
X160082500Y-91355000I-237500J0D01*
G01*
X159507500Y-91355000D01*
G75*
G02*
X159270000Y-91117500I0J237500D01*
G01*
G37*
G36*
G01*
X155680000Y-90592500D02*
X155680000Y-91067500D01*
G75*
G02*
X155442500Y-91305000I-237500J0D01*
G01*
X154867500Y-91305000D01*
G75*
G02*
X154630000Y-91067500I0J237500D01*
G01*
X154630000Y-90592500D01*
G75*
G02*
X154867500Y-90355000I237500J0D01*
G01*
X155442500Y-90355000D01*
G75*
G02*
X155680000Y-90592500I0J-237500D01*
G01*
G37*
G36*
G01*
X157430000Y-90592500D02*
X157430000Y-91067500D01*
G75*
G02*
X157192500Y-91305000I-237500J0D01*
G01*
X156617500Y-91305000D01*
G75*
G02*
X156380000Y-91067500I0J237500D01*
G01*
X156380000Y-90592500D01*
G75*
G02*
X156617500Y-90355000I237500J0D01*
G01*
X157192500Y-90355000D01*
G75*
G02*
X157430000Y-90592500I0J-237500D01*
G01*
G37*
G36*
G01*
X161000000Y-89237500D02*
X161000000Y-88762500D01*
G75*
G02*
X161237500Y-88525000I237500J0D01*
G01*
X161812500Y-88525000D01*
G75*
G02*
X162050000Y-88762500I0J-237500D01*
G01*
X162050000Y-89237500D01*
G75*
G02*
X161812500Y-89475000I-237500J0D01*
G01*
X161237500Y-89475000D01*
G75*
G02*
X161000000Y-89237500I0J237500D01*
G01*
G37*
G36*
G01*
X159250000Y-89237500D02*
X159250000Y-88762500D01*
G75*
G02*
X159487500Y-88525000I237500J0D01*
G01*
X160062500Y-88525000D01*
G75*
G02*
X160300000Y-88762500I0J-237500D01*
G01*
X160300000Y-89237500D01*
G75*
G02*
X160062500Y-89475000I-237500J0D01*
G01*
X159487500Y-89475000D01*
G75*
G02*
X159250000Y-89237500I0J237500D01*
G01*
G37*
G36*
G01*
X153212500Y-90240000D02*
X153687500Y-90240000D01*
G75*
G02*
X153925000Y-90477500I0J-237500D01*
G01*
X153925000Y-91052500D01*
G75*
G02*
X153687500Y-91290000I-237500J0D01*
G01*
X153212500Y-91290000D01*
G75*
G02*
X152975000Y-91052500I0J237500D01*
G01*
X152975000Y-90477500D01*
G75*
G02*
X153212500Y-90240000I237500J0D01*
G01*
G37*
G36*
G01*
X153212500Y-88490000D02*
X153687500Y-88490000D01*
G75*
G02*
X153925000Y-88727500I0J-237500D01*
G01*
X153925000Y-89302500D01*
G75*
G02*
X153687500Y-89540000I-237500J0D01*
G01*
X153212500Y-89540000D01*
G75*
G02*
X152975000Y-89302500I0J237500D01*
G01*
X152975000Y-88727500D01*
G75*
G02*
X153212500Y-88490000I237500J0D01*
G01*
G37*
G36*
G01*
X142842500Y-110565000D02*
X143317500Y-110565000D01*
G75*
G02*
X143555000Y-110802500I0J-237500D01*
G01*
X143555000Y-111377500D01*
G75*
G02*
X143317500Y-111615000I-237500J0D01*
G01*
X142842500Y-111615000D01*
G75*
G02*
X142605000Y-111377500I0J237500D01*
G01*
X142605000Y-110802500D01*
G75*
G02*
X142842500Y-110565000I237500J0D01*
G01*
G37*
G36*
G01*
X142842500Y-108815000D02*
X143317500Y-108815000D01*
G75*
G02*
X143555000Y-109052500I0J-237500D01*
G01*
X143555000Y-109627500D01*
G75*
G02*
X143317500Y-109865000I-237500J0D01*
G01*
X142842500Y-109865000D01*
G75*
G02*
X142605000Y-109627500I0J237500D01*
G01*
X142605000Y-109052500D01*
G75*
G02*
X142842500Y-108815000I237500J0D01*
G01*
G37*
G36*
G01*
X151900000Y-107655000D02*
X151900000Y-109055000D01*
G75*
G02*
X151825000Y-109130000I-75000J0D01*
G01*
X151675000Y-109130000D01*
G75*
G02*
X151600000Y-109055000I0J75000D01*
G01*
X151600000Y-107655000D01*
G75*
G02*
X151675000Y-107580000I75000J0D01*
G01*
X151825000Y-107580000D01*
G75*
G02*
X151900000Y-107655000I0J-75000D01*
G01*
G37*
G36*
G01*
X151400000Y-107655000D02*
X151400000Y-109055000D01*
G75*
G02*
X151325000Y-109130000I-75000J0D01*
G01*
X151175000Y-109130000D01*
G75*
G02*
X151100000Y-109055000I0J75000D01*
G01*
X151100000Y-107655000D01*
G75*
G02*
X151175000Y-107580000I75000J0D01*
G01*
X151325000Y-107580000D01*
G75*
G02*
X151400000Y-107655000I0J-75000D01*
G01*
G37*
G36*
G01*
X150900000Y-107655000D02*
X150900000Y-109055000D01*
G75*
G02*
X150825000Y-109130000I-75000J0D01*
G01*
X150675000Y-109130000D01*
G75*
G02*
X150600000Y-109055000I0J75000D01*
G01*
X150600000Y-107655000D01*
G75*
G02*
X150675000Y-107580000I75000J0D01*
G01*
X150825000Y-107580000D01*
G75*
G02*
X150900000Y-107655000I0J-75000D01*
G01*
G37*
G36*
G01*
X150400000Y-107655000D02*
X150400000Y-109055000D01*
G75*
G02*
X150325000Y-109130000I-75000J0D01*
G01*
X150175000Y-109130000D01*
G75*
G02*
X150100000Y-109055000I0J75000D01*
G01*
X150100000Y-107655000D01*
G75*
G02*
X150175000Y-107580000I75000J0D01*
G01*
X150325000Y-107580000D01*
G75*
G02*
X150400000Y-107655000I0J-75000D01*
G01*
G37*
G36*
G01*
X149900000Y-107655000D02*
X149900000Y-109055000D01*
G75*
G02*
X149825000Y-109130000I-75000J0D01*
G01*
X149675000Y-109130000D01*
G75*
G02*
X149600000Y-109055000I0J75000D01*
G01*
X149600000Y-107655000D01*
G75*
G02*
X149675000Y-107580000I75000J0D01*
G01*
X149825000Y-107580000D01*
G75*
G02*
X149900000Y-107655000I0J-75000D01*
G01*
G37*
G36*
G01*
X149400000Y-107655000D02*
X149400000Y-109055000D01*
G75*
G02*
X149325000Y-109130000I-75000J0D01*
G01*
X149175000Y-109130000D01*
G75*
G02*
X149100000Y-109055000I0J75000D01*
G01*
X149100000Y-107655000D01*
G75*
G02*
X149175000Y-107580000I75000J0D01*
G01*
X149325000Y-107580000D01*
G75*
G02*
X149400000Y-107655000I0J-75000D01*
G01*
G37*
G36*
G01*
X148900000Y-107655000D02*
X148900000Y-109055000D01*
G75*
G02*
X148825000Y-109130000I-75000J0D01*
G01*
X148675000Y-109130000D01*
G75*
G02*
X148600000Y-109055000I0J75000D01*
G01*
X148600000Y-107655000D01*
G75*
G02*
X148675000Y-107580000I75000J0D01*
G01*
X148825000Y-107580000D01*
G75*
G02*
X148900000Y-107655000I0J-75000D01*
G01*
G37*
G36*
G01*
X148400000Y-107655000D02*
X148400000Y-109055000D01*
G75*
G02*
X148325000Y-109130000I-75000J0D01*
G01*
X148175000Y-109130000D01*
G75*
G02*
X148100000Y-109055000I0J75000D01*
G01*
X148100000Y-107655000D01*
G75*
G02*
X148175000Y-107580000I75000J0D01*
G01*
X148325000Y-107580000D01*
G75*
G02*
X148400000Y-107655000I0J-75000D01*
G01*
G37*
G36*
G01*
X147900000Y-107655000D02*
X147900000Y-109055000D01*
G75*
G02*
X147825000Y-109130000I-75000J0D01*
G01*
X147675000Y-109130000D01*
G75*
G02*
X147600000Y-109055000I0J75000D01*
G01*
X147600000Y-107655000D01*
G75*
G02*
X147675000Y-107580000I75000J0D01*
G01*
X147825000Y-107580000D01*
G75*
G02*
X147900000Y-107655000I0J-75000D01*
G01*
G37*
G36*
G01*
X147400000Y-107655000D02*
X147400000Y-109055000D01*
G75*
G02*
X147325000Y-109130000I-75000J0D01*
G01*
X147175000Y-109130000D01*
G75*
G02*
X147100000Y-109055000I0J75000D01*
G01*
X147100000Y-107655000D01*
G75*
G02*
X147175000Y-107580000I75000J0D01*
G01*
X147325000Y-107580000D01*
G75*
G02*
X147400000Y-107655000I0J-75000D01*
G01*
G37*
G36*
G01*
X146900000Y-107655000D02*
X146900000Y-109055000D01*
G75*
G02*
X146825000Y-109130000I-75000J0D01*
G01*
X146675000Y-109130000D01*
G75*
G02*
X146600000Y-109055000I0J75000D01*
G01*
X146600000Y-107655000D01*
G75*
G02*
X146675000Y-107580000I75000J0D01*
G01*
X146825000Y-107580000D01*
G75*
G02*
X146900000Y-107655000I0J-75000D01*
G01*
G37*
G36*
G01*
X146400000Y-107655000D02*
X146400000Y-109055000D01*
G75*
G02*
X146325000Y-109130000I-75000J0D01*
G01*
X146175000Y-109130000D01*
G75*
G02*
X146100000Y-109055000I0J75000D01*
G01*
X146100000Y-107655000D01*
G75*
G02*
X146175000Y-107580000I75000J0D01*
G01*
X146325000Y-107580000D01*
G75*
G02*
X146400000Y-107655000I0J-75000D01*
G01*
G37*
G36*
G01*
X145900000Y-107655000D02*
X145900000Y-109055000D01*
G75*
G02*
X145825000Y-109130000I-75000J0D01*
G01*
X145675000Y-109130000D01*
G75*
G02*
X145600000Y-109055000I0J75000D01*
G01*
X145600000Y-107655000D01*
G75*
G02*
X145675000Y-107580000I75000J0D01*
G01*
X145825000Y-107580000D01*
G75*
G02*
X145900000Y-107655000I0J-75000D01*
G01*
G37*
G36*
G01*
X145400000Y-107655000D02*
X145400000Y-109055000D01*
G75*
G02*
X145325000Y-109130000I-75000J0D01*
G01*
X145175000Y-109130000D01*
G75*
G02*
X145100000Y-109055000I0J75000D01*
G01*
X145100000Y-107655000D01*
G75*
G02*
X145175000Y-107580000I75000J0D01*
G01*
X145325000Y-107580000D01*
G75*
G02*
X145400000Y-107655000I0J-75000D01*
G01*
G37*
G36*
G01*
X144900000Y-107655000D02*
X144900000Y-109055000D01*
G75*
G02*
X144825000Y-109130000I-75000J0D01*
G01*
X144675000Y-109130000D01*
G75*
G02*
X144600000Y-109055000I0J75000D01*
G01*
X144600000Y-107655000D01*
G75*
G02*
X144675000Y-107580000I75000J0D01*
G01*
X144825000Y-107580000D01*
G75*
G02*
X144900000Y-107655000I0J-75000D01*
G01*
G37*
G36*
G01*
X144400000Y-107655000D02*
X144400000Y-109055000D01*
G75*
G02*
X144325000Y-109130000I-75000J0D01*
G01*
X144175000Y-109130000D01*
G75*
G02*
X144100000Y-109055000I0J75000D01*
G01*
X144100000Y-107655000D01*
G75*
G02*
X144175000Y-107580000I75000J0D01*
G01*
X144325000Y-107580000D01*
G75*
G02*
X144400000Y-107655000I0J-75000D01*
G01*
G37*
G36*
G01*
X143100000Y-106355000D02*
X143100000Y-106505000D01*
G75*
G02*
X143025000Y-106580000I-75000J0D01*
G01*
X141625000Y-106580000D01*
G75*
G02*
X141550000Y-106505000I0J75000D01*
G01*
X141550000Y-106355000D01*
G75*
G02*
X141625000Y-106280000I75000J0D01*
G01*
X143025000Y-106280000D01*
G75*
G02*
X143100000Y-106355000I0J-75000D01*
G01*
G37*
G36*
G01*
X143100000Y-105855000D02*
X143100000Y-106005000D01*
G75*
G02*
X143025000Y-106080000I-75000J0D01*
G01*
X141625000Y-106080000D01*
G75*
G02*
X141550000Y-106005000I0J75000D01*
G01*
X141550000Y-105855000D01*
G75*
G02*
X141625000Y-105780000I75000J0D01*
G01*
X143025000Y-105780000D01*
G75*
G02*
X143100000Y-105855000I0J-75000D01*
G01*
G37*
G36*
G01*
X143100000Y-105355000D02*
X143100000Y-105505000D01*
G75*
G02*
X143025000Y-105580000I-75000J0D01*
G01*
X141625000Y-105580000D01*
G75*
G02*
X141550000Y-105505000I0J75000D01*
G01*
X141550000Y-105355000D01*
G75*
G02*
X141625000Y-105280000I75000J0D01*
G01*
X143025000Y-105280000D01*
G75*
G02*
X143100000Y-105355000I0J-75000D01*
G01*
G37*
G36*
G01*
X143100000Y-104855000D02*
X143100000Y-105005000D01*
G75*
G02*
X143025000Y-105080000I-75000J0D01*
G01*
X141625000Y-105080000D01*
G75*
G02*
X141550000Y-105005000I0J75000D01*
G01*
X141550000Y-104855000D01*
G75*
G02*
X141625000Y-104780000I75000J0D01*
G01*
X143025000Y-104780000D01*
G75*
G02*
X143100000Y-104855000I0J-75000D01*
G01*
G37*
G36*
G01*
X143100000Y-104355000D02*
X143100000Y-104505000D01*
G75*
G02*
X143025000Y-104580000I-75000J0D01*
G01*
X141625000Y-104580000D01*
G75*
G02*
X141550000Y-104505000I0J75000D01*
G01*
X141550000Y-104355000D01*
G75*
G02*
X141625000Y-104280000I75000J0D01*
G01*
X143025000Y-104280000D01*
G75*
G02*
X143100000Y-104355000I0J-75000D01*
G01*
G37*
G36*
G01*
X143100000Y-103855000D02*
X143100000Y-104005000D01*
G75*
G02*
X143025000Y-104080000I-75000J0D01*
G01*
X141625000Y-104080000D01*
G75*
G02*
X141550000Y-104005000I0J75000D01*
G01*
X141550000Y-103855000D01*
G75*
G02*
X141625000Y-103780000I75000J0D01*
G01*
X143025000Y-103780000D01*
G75*
G02*
X143100000Y-103855000I0J-75000D01*
G01*
G37*
G36*
G01*
X143100000Y-103355000D02*
X143100000Y-103505000D01*
G75*
G02*
X143025000Y-103580000I-75000J0D01*
G01*
X141625000Y-103580000D01*
G75*
G02*
X141550000Y-103505000I0J75000D01*
G01*
X141550000Y-103355000D01*
G75*
G02*
X141625000Y-103280000I75000J0D01*
G01*
X143025000Y-103280000D01*
G75*
G02*
X143100000Y-103355000I0J-75000D01*
G01*
G37*
G36*
G01*
X143100000Y-102855000D02*
X143100000Y-103005000D01*
G75*
G02*
X143025000Y-103080000I-75000J0D01*
G01*
X141625000Y-103080000D01*
G75*
G02*
X141550000Y-103005000I0J75000D01*
G01*
X141550000Y-102855000D01*
G75*
G02*
X141625000Y-102780000I75000J0D01*
G01*
X143025000Y-102780000D01*
G75*
G02*
X143100000Y-102855000I0J-75000D01*
G01*
G37*
G36*
G01*
X143100000Y-102355000D02*
X143100000Y-102505000D01*
G75*
G02*
X143025000Y-102580000I-75000J0D01*
G01*
X141625000Y-102580000D01*
G75*
G02*
X141550000Y-102505000I0J75000D01*
G01*
X141550000Y-102355000D01*
G75*
G02*
X141625000Y-102280000I75000J0D01*
G01*
X143025000Y-102280000D01*
G75*
G02*
X143100000Y-102355000I0J-75000D01*
G01*
G37*
G36*
G01*
X143100000Y-101855000D02*
X143100000Y-102005000D01*
G75*
G02*
X143025000Y-102080000I-75000J0D01*
G01*
X141625000Y-102080000D01*
G75*
G02*
X141550000Y-102005000I0J75000D01*
G01*
X141550000Y-101855000D01*
G75*
G02*
X141625000Y-101780000I75000J0D01*
G01*
X143025000Y-101780000D01*
G75*
G02*
X143100000Y-101855000I0J-75000D01*
G01*
G37*
G36*
G01*
X143100000Y-101355000D02*
X143100000Y-101505000D01*
G75*
G02*
X143025000Y-101580000I-75000J0D01*
G01*
X141625000Y-101580000D01*
G75*
G02*
X141550000Y-101505000I0J75000D01*
G01*
X141550000Y-101355000D01*
G75*
G02*
X141625000Y-101280000I75000J0D01*
G01*
X143025000Y-101280000D01*
G75*
G02*
X143100000Y-101355000I0J-75000D01*
G01*
G37*
G36*
G01*
X143100000Y-100855000D02*
X143100000Y-101005000D01*
G75*
G02*
X143025000Y-101080000I-75000J0D01*
G01*
X141625000Y-101080000D01*
G75*
G02*
X141550000Y-101005000I0J75000D01*
G01*
X141550000Y-100855000D01*
G75*
G02*
X141625000Y-100780000I75000J0D01*
G01*
X143025000Y-100780000D01*
G75*
G02*
X143100000Y-100855000I0J-75000D01*
G01*
G37*
G36*
G01*
X143100000Y-100355000D02*
X143100000Y-100505000D01*
G75*
G02*
X143025000Y-100580000I-75000J0D01*
G01*
X141625000Y-100580000D01*
G75*
G02*
X141550000Y-100505000I0J75000D01*
G01*
X141550000Y-100355000D01*
G75*
G02*
X141625000Y-100280000I75000J0D01*
G01*
X143025000Y-100280000D01*
G75*
G02*
X143100000Y-100355000I0J-75000D01*
G01*
G37*
G36*
G01*
X143100000Y-99855000D02*
X143100000Y-100005000D01*
G75*
G02*
X143025000Y-100080000I-75000J0D01*
G01*
X141625000Y-100080000D01*
G75*
G02*
X141550000Y-100005000I0J75000D01*
G01*
X141550000Y-99855000D01*
G75*
G02*
X141625000Y-99780000I75000J0D01*
G01*
X143025000Y-99780000D01*
G75*
G02*
X143100000Y-99855000I0J-75000D01*
G01*
G37*
G36*
G01*
X143100000Y-99355000D02*
X143100000Y-99505000D01*
G75*
G02*
X143025000Y-99580000I-75000J0D01*
G01*
X141625000Y-99580000D01*
G75*
G02*
X141550000Y-99505000I0J75000D01*
G01*
X141550000Y-99355000D01*
G75*
G02*
X141625000Y-99280000I75000J0D01*
G01*
X143025000Y-99280000D01*
G75*
G02*
X143100000Y-99355000I0J-75000D01*
G01*
G37*
G36*
G01*
X143100000Y-98855000D02*
X143100000Y-99005000D01*
G75*
G02*
X143025000Y-99080000I-75000J0D01*
G01*
X141625000Y-99080000D01*
G75*
G02*
X141550000Y-99005000I0J75000D01*
G01*
X141550000Y-98855000D01*
G75*
G02*
X141625000Y-98780000I75000J0D01*
G01*
X143025000Y-98780000D01*
G75*
G02*
X143100000Y-98855000I0J-75000D01*
G01*
G37*
G36*
G01*
X144400000Y-96305000D02*
X144400000Y-97705000D01*
G75*
G02*
X144325000Y-97780000I-75000J0D01*
G01*
X144175000Y-97780000D01*
G75*
G02*
X144100000Y-97705000I0J75000D01*
G01*
X144100000Y-96305000D01*
G75*
G02*
X144175000Y-96230000I75000J0D01*
G01*
X144325000Y-96230000D01*
G75*
G02*
X144400000Y-96305000I0J-75000D01*
G01*
G37*
G36*
G01*
X144900000Y-96305000D02*
X144900000Y-97705000D01*
G75*
G02*
X144825000Y-97780000I-75000J0D01*
G01*
X144675000Y-97780000D01*
G75*
G02*
X144600000Y-97705000I0J75000D01*
G01*
X144600000Y-96305000D01*
G75*
G02*
X144675000Y-96230000I75000J0D01*
G01*
X144825000Y-96230000D01*
G75*
G02*
X144900000Y-96305000I0J-75000D01*
G01*
G37*
G36*
G01*
X145400000Y-96305000D02*
X145400000Y-97705000D01*
G75*
G02*
X145325000Y-97780000I-75000J0D01*
G01*
X145175000Y-97780000D01*
G75*
G02*
X145100000Y-97705000I0J75000D01*
G01*
X145100000Y-96305000D01*
G75*
G02*
X145175000Y-96230000I75000J0D01*
G01*
X145325000Y-96230000D01*
G75*
G02*
X145400000Y-96305000I0J-75000D01*
G01*
G37*
G36*
G01*
X145900000Y-96305000D02*
X145900000Y-97705000D01*
G75*
G02*
X145825000Y-97780000I-75000J0D01*
G01*
X145675000Y-97780000D01*
G75*
G02*
X145600000Y-97705000I0J75000D01*
G01*
X145600000Y-96305000D01*
G75*
G02*
X145675000Y-96230000I75000J0D01*
G01*
X145825000Y-96230000D01*
G75*
G02*
X145900000Y-96305000I0J-75000D01*
G01*
G37*
G36*
G01*
X146400000Y-96305000D02*
X146400000Y-97705000D01*
G75*
G02*
X146325000Y-97780000I-75000J0D01*
G01*
X146175000Y-97780000D01*
G75*
G02*
X146100000Y-97705000I0J75000D01*
G01*
X146100000Y-96305000D01*
G75*
G02*
X146175000Y-96230000I75000J0D01*
G01*
X146325000Y-96230000D01*
G75*
G02*
X146400000Y-96305000I0J-75000D01*
G01*
G37*
G36*
G01*
X146900000Y-96305000D02*
X146900000Y-97705000D01*
G75*
G02*
X146825000Y-97780000I-75000J0D01*
G01*
X146675000Y-97780000D01*
G75*
G02*
X146600000Y-97705000I0J75000D01*
G01*
X146600000Y-96305000D01*
G75*
G02*
X146675000Y-96230000I75000J0D01*
G01*
X146825000Y-96230000D01*
G75*
G02*
X146900000Y-96305000I0J-75000D01*
G01*
G37*
G36*
G01*
X147400000Y-96305000D02*
X147400000Y-97705000D01*
G75*
G02*
X147325000Y-97780000I-75000J0D01*
G01*
X147175000Y-97780000D01*
G75*
G02*
X147100000Y-97705000I0J75000D01*
G01*
X147100000Y-96305000D01*
G75*
G02*
X147175000Y-96230000I75000J0D01*
G01*
X147325000Y-96230000D01*
G75*
G02*
X147400000Y-96305000I0J-75000D01*
G01*
G37*
G36*
G01*
X147900000Y-96305000D02*
X147900000Y-97705000D01*
G75*
G02*
X147825000Y-97780000I-75000J0D01*
G01*
X147675000Y-97780000D01*
G75*
G02*
X147600000Y-97705000I0J75000D01*
G01*
X147600000Y-96305000D01*
G75*
G02*
X147675000Y-96230000I75000J0D01*
G01*
X147825000Y-96230000D01*
G75*
G02*
X147900000Y-96305000I0J-75000D01*
G01*
G37*
G36*
G01*
X148400000Y-96305000D02*
X148400000Y-97705000D01*
G75*
G02*
X148325000Y-97780000I-75000J0D01*
G01*
X148175000Y-97780000D01*
G75*
G02*
X148100000Y-97705000I0J75000D01*
G01*
X148100000Y-96305000D01*
G75*
G02*
X148175000Y-96230000I75000J0D01*
G01*
X148325000Y-96230000D01*
G75*
G02*
X148400000Y-96305000I0J-75000D01*
G01*
G37*
G36*
G01*
X148900000Y-96305000D02*
X148900000Y-97705000D01*
G75*
G02*
X148825000Y-97780000I-75000J0D01*
G01*
X148675000Y-97780000D01*
G75*
G02*
X148600000Y-97705000I0J75000D01*
G01*
X148600000Y-96305000D01*
G75*
G02*
X148675000Y-96230000I75000J0D01*
G01*
X148825000Y-96230000D01*
G75*
G02*
X148900000Y-96305000I0J-75000D01*
G01*
G37*
G36*
G01*
X149400000Y-96305000D02*
X149400000Y-97705000D01*
G75*
G02*
X149325000Y-97780000I-75000J0D01*
G01*
X149175000Y-97780000D01*
G75*
G02*
X149100000Y-97705000I0J75000D01*
G01*
X149100000Y-96305000D01*
G75*
G02*
X149175000Y-96230000I75000J0D01*
G01*
X149325000Y-96230000D01*
G75*
G02*
X149400000Y-96305000I0J-75000D01*
G01*
G37*
G36*
G01*
X149900000Y-96305000D02*
X149900000Y-97705000D01*
G75*
G02*
X149825000Y-97780000I-75000J0D01*
G01*
X149675000Y-97780000D01*
G75*
G02*
X149600000Y-97705000I0J75000D01*
G01*
X149600000Y-96305000D01*
G75*
G02*
X149675000Y-96230000I75000J0D01*
G01*
X149825000Y-96230000D01*
G75*
G02*
X149900000Y-96305000I0J-75000D01*
G01*
G37*
G36*
G01*
X150400000Y-96305000D02*
X150400000Y-97705000D01*
G75*
G02*
X150325000Y-97780000I-75000J0D01*
G01*
X150175000Y-97780000D01*
G75*
G02*
X150100000Y-97705000I0J75000D01*
G01*
X150100000Y-96305000D01*
G75*
G02*
X150175000Y-96230000I75000J0D01*
G01*
X150325000Y-96230000D01*
G75*
G02*
X150400000Y-96305000I0J-75000D01*
G01*
G37*
G36*
G01*
X150900000Y-96305000D02*
X150900000Y-97705000D01*
G75*
G02*
X150825000Y-97780000I-75000J0D01*
G01*
X150675000Y-97780000D01*
G75*
G02*
X150600000Y-97705000I0J75000D01*
G01*
X150600000Y-96305000D01*
G75*
G02*
X150675000Y-96230000I75000J0D01*
G01*
X150825000Y-96230000D01*
G75*
G02*
X150900000Y-96305000I0J-75000D01*
G01*
G37*
G36*
G01*
X151400000Y-96305000D02*
X151400000Y-97705000D01*
G75*
G02*
X151325000Y-97780000I-75000J0D01*
G01*
X151175000Y-97780000D01*
G75*
G02*
X151100000Y-97705000I0J75000D01*
G01*
X151100000Y-96305000D01*
G75*
G02*
X151175000Y-96230000I75000J0D01*
G01*
X151325000Y-96230000D01*
G75*
G02*
X151400000Y-96305000I0J-75000D01*
G01*
G37*
G36*
G01*
X151900000Y-96305000D02*
X151900000Y-97705000D01*
G75*
G02*
X151825000Y-97780000I-75000J0D01*
G01*
X151675000Y-97780000D01*
G75*
G02*
X151600000Y-97705000I0J75000D01*
G01*
X151600000Y-96305000D01*
G75*
G02*
X151675000Y-96230000I75000J0D01*
G01*
X151825000Y-96230000D01*
G75*
G02*
X151900000Y-96305000I0J-75000D01*
G01*
G37*
G36*
G01*
X154450000Y-98855000D02*
X154450000Y-99005000D01*
G75*
G02*
X154375000Y-99080000I-75000J0D01*
G01*
X152975000Y-99080000D01*
G75*
G02*
X152900000Y-99005000I0J75000D01*
G01*
X152900000Y-98855000D01*
G75*
G02*
X152975000Y-98780000I75000J0D01*
G01*
X154375000Y-98780000D01*
G75*
G02*
X154450000Y-98855000I0J-75000D01*
G01*
G37*
G36*
G01*
X154450000Y-99355000D02*
X154450000Y-99505000D01*
G75*
G02*
X154375000Y-99580000I-75000J0D01*
G01*
X152975000Y-99580000D01*
G75*
G02*
X152900000Y-99505000I0J75000D01*
G01*
X152900000Y-99355000D01*
G75*
G02*
X152975000Y-99280000I75000J0D01*
G01*
X154375000Y-99280000D01*
G75*
G02*
X154450000Y-99355000I0J-75000D01*
G01*
G37*
G36*
G01*
X154450000Y-99855000D02*
X154450000Y-100005000D01*
G75*
G02*
X154375000Y-100080000I-75000J0D01*
G01*
X152975000Y-100080000D01*
G75*
G02*
X152900000Y-100005000I0J75000D01*
G01*
X152900000Y-99855000D01*
G75*
G02*
X152975000Y-99780000I75000J0D01*
G01*
X154375000Y-99780000D01*
G75*
G02*
X154450000Y-99855000I0J-75000D01*
G01*
G37*
G36*
G01*
X154450000Y-100355000D02*
X154450000Y-100505000D01*
G75*
G02*
X154375000Y-100580000I-75000J0D01*
G01*
X152975000Y-100580000D01*
G75*
G02*
X152900000Y-100505000I0J75000D01*
G01*
X152900000Y-100355000D01*
G75*
G02*
X152975000Y-100280000I75000J0D01*
G01*
X154375000Y-100280000D01*
G75*
G02*
X154450000Y-100355000I0J-75000D01*
G01*
G37*
G36*
G01*
X154450000Y-100855000D02*
X154450000Y-101005000D01*
G75*
G02*
X154375000Y-101080000I-75000J0D01*
G01*
X152975000Y-101080000D01*
G75*
G02*
X152900000Y-101005000I0J75000D01*
G01*
X152900000Y-100855000D01*
G75*
G02*
X152975000Y-100780000I75000J0D01*
G01*
X154375000Y-100780000D01*
G75*
G02*
X154450000Y-100855000I0J-75000D01*
G01*
G37*
G36*
G01*
X154450000Y-101355000D02*
X154450000Y-101505000D01*
G75*
G02*
X154375000Y-101580000I-75000J0D01*
G01*
X152975000Y-101580000D01*
G75*
G02*
X152900000Y-101505000I0J75000D01*
G01*
X152900000Y-101355000D01*
G75*
G02*
X152975000Y-101280000I75000J0D01*
G01*
X154375000Y-101280000D01*
G75*
G02*
X154450000Y-101355000I0J-75000D01*
G01*
G37*
G36*
G01*
X154450000Y-101855000D02*
X154450000Y-102005000D01*
G75*
G02*
X154375000Y-102080000I-75000J0D01*
G01*
X152975000Y-102080000D01*
G75*
G02*
X152900000Y-102005000I0J75000D01*
G01*
X152900000Y-101855000D01*
G75*
G02*
X152975000Y-101780000I75000J0D01*
G01*
X154375000Y-101780000D01*
G75*
G02*
X154450000Y-101855000I0J-75000D01*
G01*
G37*
G36*
G01*
X154450000Y-102355000D02*
X154450000Y-102505000D01*
G75*
G02*
X154375000Y-102580000I-75000J0D01*
G01*
X152975000Y-102580000D01*
G75*
G02*
X152900000Y-102505000I0J75000D01*
G01*
X152900000Y-102355000D01*
G75*
G02*
X152975000Y-102280000I75000J0D01*
G01*
X154375000Y-102280000D01*
G75*
G02*
X154450000Y-102355000I0J-75000D01*
G01*
G37*
G36*
G01*
X154450000Y-102855000D02*
X154450000Y-103005000D01*
G75*
G02*
X154375000Y-103080000I-75000J0D01*
G01*
X152975000Y-103080000D01*
G75*
G02*
X152900000Y-103005000I0J75000D01*
G01*
X152900000Y-102855000D01*
G75*
G02*
X152975000Y-102780000I75000J0D01*
G01*
X154375000Y-102780000D01*
G75*
G02*
X154450000Y-102855000I0J-75000D01*
G01*
G37*
G36*
G01*
X154450000Y-103355000D02*
X154450000Y-103505000D01*
G75*
G02*
X154375000Y-103580000I-75000J0D01*
G01*
X152975000Y-103580000D01*
G75*
G02*
X152900000Y-103505000I0J75000D01*
G01*
X152900000Y-103355000D01*
G75*
G02*
X152975000Y-103280000I75000J0D01*
G01*
X154375000Y-103280000D01*
G75*
G02*
X154450000Y-103355000I0J-75000D01*
G01*
G37*
G36*
G01*
X154450000Y-103855000D02*
X154450000Y-104005000D01*
G75*
G02*
X154375000Y-104080000I-75000J0D01*
G01*
X152975000Y-104080000D01*
G75*
G02*
X152900000Y-104005000I0J75000D01*
G01*
X152900000Y-103855000D01*
G75*
G02*
X152975000Y-103780000I75000J0D01*
G01*
X154375000Y-103780000D01*
G75*
G02*
X154450000Y-103855000I0J-75000D01*
G01*
G37*
G36*
G01*
X154450000Y-104355000D02*
X154450000Y-104505000D01*
G75*
G02*
X154375000Y-104580000I-75000J0D01*
G01*
X152975000Y-104580000D01*
G75*
G02*
X152900000Y-104505000I0J75000D01*
G01*
X152900000Y-104355000D01*
G75*
G02*
X152975000Y-104280000I75000J0D01*
G01*
X154375000Y-104280000D01*
G75*
G02*
X154450000Y-104355000I0J-75000D01*
G01*
G37*
G36*
G01*
X154450000Y-104855000D02*
X154450000Y-105005000D01*
G75*
G02*
X154375000Y-105080000I-75000J0D01*
G01*
X152975000Y-105080000D01*
G75*
G02*
X152900000Y-105005000I0J75000D01*
G01*
X152900000Y-104855000D01*
G75*
G02*
X152975000Y-104780000I75000J0D01*
G01*
X154375000Y-104780000D01*
G75*
G02*
X154450000Y-104855000I0J-75000D01*
G01*
G37*
G36*
G01*
X154450000Y-105355000D02*
X154450000Y-105505000D01*
G75*
G02*
X154375000Y-105580000I-75000J0D01*
G01*
X152975000Y-105580000D01*
G75*
G02*
X152900000Y-105505000I0J75000D01*
G01*
X152900000Y-105355000D01*
G75*
G02*
X152975000Y-105280000I75000J0D01*
G01*
X154375000Y-105280000D01*
G75*
G02*
X154450000Y-105355000I0J-75000D01*
G01*
G37*
G36*
G01*
X154450000Y-105855000D02*
X154450000Y-106005000D01*
G75*
G02*
X154375000Y-106080000I-75000J0D01*
G01*
X152975000Y-106080000D01*
G75*
G02*
X152900000Y-106005000I0J75000D01*
G01*
X152900000Y-105855000D01*
G75*
G02*
X152975000Y-105780000I75000J0D01*
G01*
X154375000Y-105780000D01*
G75*
G02*
X154450000Y-105855000I0J-75000D01*
G01*
G37*
G36*
G01*
X154450000Y-106355000D02*
X154450000Y-106505000D01*
G75*
G02*
X154375000Y-106580000I-75000J0D01*
G01*
X152975000Y-106580000D01*
G75*
G02*
X152900000Y-106505000I0J75000D01*
G01*
X152900000Y-106355000D01*
G75*
G02*
X152975000Y-106280000I75000J0D01*
G01*
X154375000Y-106280000D01*
G75*
G02*
X154450000Y-106355000I0J-75000D01*
G01*
G37*
D13*
X131360000Y-96220000D03*
X131360000Y-94940000D03*
X131360000Y-93660000D03*
X141460000Y-88540000D03*
X141460000Y-89820000D03*
X141460000Y-91100000D03*
X141460000Y-92380000D03*
X141460000Y-93660000D03*
X141460000Y-94940000D03*
X141460000Y-96220000D03*
D14*
X139560000Y-97820000D03*
X138280000Y-97820000D03*
X137000000Y-97820000D03*
X135720000Y-97820000D03*
X134440000Y-97820000D03*
X133160000Y-97820000D03*
D13*
X131360000Y-92380000D03*
D15*
X156190000Y-104600000D03*
X156190000Y-107100000D03*
D16*
X156460000Y-101610000D03*
X160160000Y-101610000D03*
G36*
G01*
X137780000Y-102135000D02*
X137780000Y-101835000D01*
G75*
G02*
X137930000Y-101685000I150000J0D01*
G01*
X139230000Y-101685000D01*
G75*
G02*
X139380000Y-101835000I0J-150000D01*
G01*
X139380000Y-102135000D01*
G75*
G02*
X139230000Y-102285000I-150000J0D01*
G01*
X137930000Y-102285000D01*
G75*
G02*
X137780000Y-102135000I0J150000D01*
G01*
G37*
G36*
G01*
X137780000Y-103405000D02*
X137780000Y-103105000D01*
G75*
G02*
X137930000Y-102955000I150000J0D01*
G01*
X139230000Y-102955000D01*
G75*
G02*
X139380000Y-103105000I0J-150000D01*
G01*
X139380000Y-103405000D01*
G75*
G02*
X139230000Y-103555000I-150000J0D01*
G01*
X137930000Y-103555000D01*
G75*
G02*
X137780000Y-103405000I0J150000D01*
G01*
G37*
G36*
G01*
X137780000Y-104675000D02*
X137780000Y-104375000D01*
G75*
G02*
X137930000Y-104225000I150000J0D01*
G01*
X139230000Y-104225000D01*
G75*
G02*
X139380000Y-104375000I0J-150000D01*
G01*
X139380000Y-104675000D01*
G75*
G02*
X139230000Y-104825000I-150000J0D01*
G01*
X137930000Y-104825000D01*
G75*
G02*
X137780000Y-104675000I0J150000D01*
G01*
G37*
G36*
G01*
X137780000Y-105945000D02*
X137780000Y-105645000D01*
G75*
G02*
X137930000Y-105495000I150000J0D01*
G01*
X139230000Y-105495000D01*
G75*
G02*
X139380000Y-105645000I0J-150000D01*
G01*
X139380000Y-105945000D01*
G75*
G02*
X139230000Y-106095000I-150000J0D01*
G01*
X137930000Y-106095000D01*
G75*
G02*
X137780000Y-105945000I0J150000D01*
G01*
G37*
G36*
G01*
X130580000Y-105945000D02*
X130580000Y-105645000D01*
G75*
G02*
X130730000Y-105495000I150000J0D01*
G01*
X132030000Y-105495000D01*
G75*
G02*
X132180000Y-105645000I0J-150000D01*
G01*
X132180000Y-105945000D01*
G75*
G02*
X132030000Y-106095000I-150000J0D01*
G01*
X130730000Y-106095000D01*
G75*
G02*
X130580000Y-105945000I0J150000D01*
G01*
G37*
G36*
G01*
X130580000Y-104675000D02*
X130580000Y-104375000D01*
G75*
G02*
X130730000Y-104225000I150000J0D01*
G01*
X132030000Y-104225000D01*
G75*
G02*
X132180000Y-104375000I0J-150000D01*
G01*
X132180000Y-104675000D01*
G75*
G02*
X132030000Y-104825000I-150000J0D01*
G01*
X130730000Y-104825000D01*
G75*
G02*
X130580000Y-104675000I0J150000D01*
G01*
G37*
G36*
G01*
X130580000Y-103405000D02*
X130580000Y-103105000D01*
G75*
G02*
X130730000Y-102955000I150000J0D01*
G01*
X132030000Y-102955000D01*
G75*
G02*
X132180000Y-103105000I0J-150000D01*
G01*
X132180000Y-103405000D01*
G75*
G02*
X132030000Y-103555000I-150000J0D01*
G01*
X130730000Y-103555000D01*
G75*
G02*
X130580000Y-103405000I0J150000D01*
G01*
G37*
G36*
G01*
X130580000Y-102135000D02*
X130580000Y-101835000D01*
G75*
G02*
X130730000Y-101685000I150000J0D01*
G01*
X132030000Y-101685000D01*
G75*
G02*
X132180000Y-101835000I0J-150000D01*
G01*
X132180000Y-102135000D01*
G75*
G02*
X132030000Y-102285000I-150000J0D01*
G01*
X130730000Y-102285000D01*
G75*
G02*
X130580000Y-102135000I0J150000D01*
G01*
G37*
G36*
G01*
X139150000Y-120595000D02*
X139150000Y-120295000D01*
G75*
G02*
X139300000Y-120145000I150000J0D01*
G01*
X140950000Y-120145000D01*
G75*
G02*
X141100000Y-120295000I0J-150000D01*
G01*
X141100000Y-120595000D01*
G75*
G02*
X140950000Y-120745000I-150000J0D01*
G01*
X139300000Y-120745000D01*
G75*
G02*
X139150000Y-120595000I0J150000D01*
G01*
G37*
G36*
G01*
X139150000Y-121865000D02*
X139150000Y-121565000D01*
G75*
G02*
X139300000Y-121415000I150000J0D01*
G01*
X140950000Y-121415000D01*
G75*
G02*
X141100000Y-121565000I0J-150000D01*
G01*
X141100000Y-121865000D01*
G75*
G02*
X140950000Y-122015000I-150000J0D01*
G01*
X139300000Y-122015000D01*
G75*
G02*
X139150000Y-121865000I0J150000D01*
G01*
G37*
G36*
G01*
X139150000Y-123135000D02*
X139150000Y-122835000D01*
G75*
G02*
X139300000Y-122685000I150000J0D01*
G01*
X140950000Y-122685000D01*
G75*
G02*
X141100000Y-122835000I0J-150000D01*
G01*
X141100000Y-123135000D01*
G75*
G02*
X140950000Y-123285000I-150000J0D01*
G01*
X139300000Y-123285000D01*
G75*
G02*
X139150000Y-123135000I0J150000D01*
G01*
G37*
G36*
G01*
X139150000Y-124405000D02*
X139150000Y-124105000D01*
G75*
G02*
X139300000Y-123955000I150000J0D01*
G01*
X140950000Y-123955000D01*
G75*
G02*
X141100000Y-124105000I0J-150000D01*
G01*
X141100000Y-124405000D01*
G75*
G02*
X140950000Y-124555000I-150000J0D01*
G01*
X139300000Y-124555000D01*
G75*
G02*
X139150000Y-124405000I0J150000D01*
G01*
G37*
G36*
G01*
X134200000Y-124405000D02*
X134200000Y-124105000D01*
G75*
G02*
X134350000Y-123955000I150000J0D01*
G01*
X136000000Y-123955000D01*
G75*
G02*
X136150000Y-124105000I0J-150000D01*
G01*
X136150000Y-124405000D01*
G75*
G02*
X136000000Y-124555000I-150000J0D01*
G01*
X134350000Y-124555000D01*
G75*
G02*
X134200000Y-124405000I0J150000D01*
G01*
G37*
G36*
G01*
X134200000Y-123135000D02*
X134200000Y-122835000D01*
G75*
G02*
X134350000Y-122685000I150000J0D01*
G01*
X136000000Y-122685000D01*
G75*
G02*
X136150000Y-122835000I0J-150000D01*
G01*
X136150000Y-123135000D01*
G75*
G02*
X136000000Y-123285000I-150000J0D01*
G01*
X134350000Y-123285000D01*
G75*
G02*
X134200000Y-123135000I0J150000D01*
G01*
G37*
G36*
G01*
X134200000Y-121865000D02*
X134200000Y-121565000D01*
G75*
G02*
X134350000Y-121415000I150000J0D01*
G01*
X136000000Y-121415000D01*
G75*
G02*
X136150000Y-121565000I0J-150000D01*
G01*
X136150000Y-121865000D01*
G75*
G02*
X136000000Y-122015000I-150000J0D01*
G01*
X134350000Y-122015000D01*
G75*
G02*
X134200000Y-121865000I0J150000D01*
G01*
G37*
G36*
G01*
X134200000Y-120595000D02*
X134200000Y-120295000D01*
G75*
G02*
X134350000Y-120145000I150000J0D01*
G01*
X136000000Y-120145000D01*
G75*
G02*
X136150000Y-120295000I0J-150000D01*
G01*
X136150000Y-120595000D01*
G75*
G02*
X136000000Y-120745000I-150000J0D01*
G01*
X134350000Y-120745000D01*
G75*
G02*
X134200000Y-120595000I0J150000D01*
G01*
G37*
G36*
G01*
X137765000Y-123597500D02*
X137765000Y-122752500D01*
G75*
G02*
X138007500Y-122510000I242500J0D01*
G01*
X138492500Y-122510000D01*
G75*
G02*
X138735000Y-122752500I0J-242500D01*
G01*
X138735000Y-123597500D01*
G75*
G02*
X138492500Y-123840000I-242500J0D01*
G01*
X138007500Y-123840000D01*
G75*
G02*
X137765000Y-123597500I0J242500D01*
G01*
G37*
G36*
G01*
X137765000Y-121947500D02*
X137765000Y-121102500D01*
G75*
G02*
X138007500Y-120860000I242500J0D01*
G01*
X138492500Y-120860000D01*
G75*
G02*
X138735000Y-121102500I0J-242500D01*
G01*
X138735000Y-121947500D01*
G75*
G02*
X138492500Y-122190000I-242500J0D01*
G01*
X138007500Y-122190000D01*
G75*
G02*
X137765000Y-121947500I0J242500D01*
G01*
G37*
G36*
G01*
X136565000Y-123597500D02*
X136565000Y-122752500D01*
G75*
G02*
X136807500Y-122510000I242500J0D01*
G01*
X137292500Y-122510000D01*
G75*
G02*
X137535000Y-122752500I0J-242500D01*
G01*
X137535000Y-123597500D01*
G75*
G02*
X137292500Y-123840000I-242500J0D01*
G01*
X136807500Y-123840000D01*
G75*
G02*
X136565000Y-123597500I0J242500D01*
G01*
G37*
G36*
G01*
X136565000Y-121947500D02*
X136565000Y-121102500D01*
G75*
G02*
X136807500Y-120860000I242500J0D01*
G01*
X137292500Y-120860000D01*
G75*
G02*
X137535000Y-121102500I0J-242500D01*
G01*
X137535000Y-121947500D01*
G75*
G02*
X137292500Y-122190000I-242500J0D01*
G01*
X136807500Y-122190000D01*
G75*
G02*
X136565000Y-121947500I0J242500D01*
G01*
G37*
G36*
G01*
X149550000Y-112495000D02*
X149550000Y-112195000D01*
G75*
G02*
X149700000Y-112045000I150000J0D01*
G01*
X151350000Y-112045000D01*
G75*
G02*
X151500000Y-112195000I0J-150000D01*
G01*
X151500000Y-112495000D01*
G75*
G02*
X151350000Y-112645000I-150000J0D01*
G01*
X149700000Y-112645000D01*
G75*
G02*
X149550000Y-112495000I0J150000D01*
G01*
G37*
G36*
G01*
X149550000Y-113765000D02*
X149550000Y-113465000D01*
G75*
G02*
X149700000Y-113315000I150000J0D01*
G01*
X151350000Y-113315000D01*
G75*
G02*
X151500000Y-113465000I0J-150000D01*
G01*
X151500000Y-113765000D01*
G75*
G02*
X151350000Y-113915000I-150000J0D01*
G01*
X149700000Y-113915000D01*
G75*
G02*
X149550000Y-113765000I0J150000D01*
G01*
G37*
G36*
G01*
X149550000Y-115035000D02*
X149550000Y-114735000D01*
G75*
G02*
X149700000Y-114585000I150000J0D01*
G01*
X151350000Y-114585000D01*
G75*
G02*
X151500000Y-114735000I0J-150000D01*
G01*
X151500000Y-115035000D01*
G75*
G02*
X151350000Y-115185000I-150000J0D01*
G01*
X149700000Y-115185000D01*
G75*
G02*
X149550000Y-115035000I0J150000D01*
G01*
G37*
G36*
G01*
X149550000Y-116305000D02*
X149550000Y-116005000D01*
G75*
G02*
X149700000Y-115855000I150000J0D01*
G01*
X151350000Y-115855000D01*
G75*
G02*
X151500000Y-116005000I0J-150000D01*
G01*
X151500000Y-116305000D01*
G75*
G02*
X151350000Y-116455000I-150000J0D01*
G01*
X149700000Y-116455000D01*
G75*
G02*
X149550000Y-116305000I0J150000D01*
G01*
G37*
G36*
G01*
X144600000Y-116305000D02*
X144600000Y-116005000D01*
G75*
G02*
X144750000Y-115855000I150000J0D01*
G01*
X146400000Y-115855000D01*
G75*
G02*
X146550000Y-116005000I0J-150000D01*
G01*
X146550000Y-116305000D01*
G75*
G02*
X146400000Y-116455000I-150000J0D01*
G01*
X144750000Y-116455000D01*
G75*
G02*
X144600000Y-116305000I0J150000D01*
G01*
G37*
G36*
G01*
X144600000Y-115035000D02*
X144600000Y-114735000D01*
G75*
G02*
X144750000Y-114585000I150000J0D01*
G01*
X146400000Y-114585000D01*
G75*
G02*
X146550000Y-114735000I0J-150000D01*
G01*
X146550000Y-115035000D01*
G75*
G02*
X146400000Y-115185000I-150000J0D01*
G01*
X144750000Y-115185000D01*
G75*
G02*
X144600000Y-115035000I0J150000D01*
G01*
G37*
G36*
G01*
X144600000Y-113765000D02*
X144600000Y-113465000D01*
G75*
G02*
X144750000Y-113315000I150000J0D01*
G01*
X146400000Y-113315000D01*
G75*
G02*
X146550000Y-113465000I0J-150000D01*
G01*
X146550000Y-113765000D01*
G75*
G02*
X146400000Y-113915000I-150000J0D01*
G01*
X144750000Y-113915000D01*
G75*
G02*
X144600000Y-113765000I0J150000D01*
G01*
G37*
G36*
G01*
X144600000Y-112495000D02*
X144600000Y-112195000D01*
G75*
G02*
X144750000Y-112045000I150000J0D01*
G01*
X146400000Y-112045000D01*
G75*
G02*
X146550000Y-112195000I0J-150000D01*
G01*
X146550000Y-112495000D01*
G75*
G02*
X146400000Y-112645000I-150000J0D01*
G01*
X144750000Y-112645000D01*
G75*
G02*
X144600000Y-112495000I0J150000D01*
G01*
G37*
G36*
G01*
X148160000Y-115375000D02*
X148160000Y-114625000D01*
G75*
G02*
X148390000Y-114395000I230000J0D01*
G01*
X148850000Y-114395000D01*
G75*
G02*
X149080000Y-114625000I0J-230000D01*
G01*
X149080000Y-115375000D01*
G75*
G02*
X148850000Y-115605000I-230000J0D01*
G01*
X148390000Y-115605000D01*
G75*
G02*
X148160000Y-115375000I0J230000D01*
G01*
G37*
G36*
G01*
X148160000Y-113875000D02*
X148160000Y-113125000D01*
G75*
G02*
X148390000Y-112895000I230000J0D01*
G01*
X148850000Y-112895000D01*
G75*
G02*
X149080000Y-113125000I0J-230000D01*
G01*
X149080000Y-113875000D01*
G75*
G02*
X148850000Y-114105000I-230000J0D01*
G01*
X148390000Y-114105000D01*
G75*
G02*
X148160000Y-113875000I0J230000D01*
G01*
G37*
G36*
G01*
X147020000Y-115375000D02*
X147020000Y-114625000D01*
G75*
G02*
X147250000Y-114395000I230000J0D01*
G01*
X147710000Y-114395000D01*
G75*
G02*
X147940000Y-114625000I0J-230000D01*
G01*
X147940000Y-115375000D01*
G75*
G02*
X147710000Y-115605000I-230000J0D01*
G01*
X147250000Y-115605000D01*
G75*
G02*
X147020000Y-115375000I0J230000D01*
G01*
G37*
G36*
G01*
X147020000Y-113875000D02*
X147020000Y-113125000D01*
G75*
G02*
X147250000Y-112895000I230000J0D01*
G01*
X147710000Y-112895000D01*
G75*
G02*
X147940000Y-113125000I0J-230000D01*
G01*
X147940000Y-113875000D01*
G75*
G02*
X147710000Y-114105000I-230000J0D01*
G01*
X147250000Y-114105000D01*
G75*
G02*
X147020000Y-113875000I0J230000D01*
G01*
G37*
G36*
G01*
X137095000Y-108645000D02*
X137095000Y-108495000D01*
G75*
G02*
X137170000Y-108420000I75000J0D01*
G01*
X137870000Y-108420000D01*
G75*
G02*
X137945000Y-108495000I0J-75000D01*
G01*
X137945000Y-108645000D01*
G75*
G02*
X137870000Y-108720000I-75000J0D01*
G01*
X137170000Y-108720000D01*
G75*
G02*
X137095000Y-108645000I0J75000D01*
G01*
G37*
G36*
G01*
X137095000Y-109145000D02*
X137095000Y-108995000D01*
G75*
G02*
X137170000Y-108920000I75000J0D01*
G01*
X137870000Y-108920000D01*
G75*
G02*
X137945000Y-108995000I0J-75000D01*
G01*
X137945000Y-109145000D01*
G75*
G02*
X137870000Y-109220000I-75000J0D01*
G01*
X137170000Y-109220000D01*
G75*
G02*
X137095000Y-109145000I0J75000D01*
G01*
G37*
G36*
G01*
X137095000Y-109645000D02*
X137095000Y-109495000D01*
G75*
G02*
X137170000Y-109420000I75000J0D01*
G01*
X137870000Y-109420000D01*
G75*
G02*
X137945000Y-109495000I0J-75000D01*
G01*
X137945000Y-109645000D01*
G75*
G02*
X137870000Y-109720000I-75000J0D01*
G01*
X137170000Y-109720000D01*
G75*
G02*
X137095000Y-109645000I0J75000D01*
G01*
G37*
G36*
G01*
X137095000Y-110145000D02*
X137095000Y-109995000D01*
G75*
G02*
X137170000Y-109920000I75000J0D01*
G01*
X137870000Y-109920000D01*
G75*
G02*
X137945000Y-109995000I0J-75000D01*
G01*
X137945000Y-110145000D01*
G75*
G02*
X137870000Y-110220000I-75000J0D01*
G01*
X137170000Y-110220000D01*
G75*
G02*
X137095000Y-110145000I0J75000D01*
G01*
G37*
G36*
G01*
X137095000Y-110645000D02*
X137095000Y-110495000D01*
G75*
G02*
X137170000Y-110420000I75000J0D01*
G01*
X137870000Y-110420000D01*
G75*
G02*
X137945000Y-110495000I0J-75000D01*
G01*
X137945000Y-110645000D01*
G75*
G02*
X137870000Y-110720000I-75000J0D01*
G01*
X137170000Y-110720000D01*
G75*
G02*
X137095000Y-110645000I0J75000D01*
G01*
G37*
G36*
G01*
X137095000Y-111145000D02*
X137095000Y-110995000D01*
G75*
G02*
X137170000Y-110920000I75000J0D01*
G01*
X137870000Y-110920000D01*
G75*
G02*
X137945000Y-110995000I0J-75000D01*
G01*
X137945000Y-111145000D01*
G75*
G02*
X137870000Y-111220000I-75000J0D01*
G01*
X137170000Y-111220000D01*
G75*
G02*
X137095000Y-111145000I0J75000D01*
G01*
G37*
G36*
G01*
X136745000Y-111345000D02*
X136895000Y-111345000D01*
G75*
G02*
X136970000Y-111420000I0J-75000D01*
G01*
X136970000Y-112120000D01*
G75*
G02*
X136895000Y-112195000I-75000J0D01*
G01*
X136745000Y-112195000D01*
G75*
G02*
X136670000Y-112120000I0J75000D01*
G01*
X136670000Y-111420000D01*
G75*
G02*
X136745000Y-111345000I75000J0D01*
G01*
G37*
G36*
G01*
X136245000Y-111345000D02*
X136395000Y-111345000D01*
G75*
G02*
X136470000Y-111420000I0J-75000D01*
G01*
X136470000Y-112120000D01*
G75*
G02*
X136395000Y-112195000I-75000J0D01*
G01*
X136245000Y-112195000D01*
G75*
G02*
X136170000Y-112120000I0J75000D01*
G01*
X136170000Y-111420000D01*
G75*
G02*
X136245000Y-111345000I75000J0D01*
G01*
G37*
G36*
G01*
X135745000Y-111345000D02*
X135895000Y-111345000D01*
G75*
G02*
X135970000Y-111420000I0J-75000D01*
G01*
X135970000Y-112120000D01*
G75*
G02*
X135895000Y-112195000I-75000J0D01*
G01*
X135745000Y-112195000D01*
G75*
G02*
X135670000Y-112120000I0J75000D01*
G01*
X135670000Y-111420000D01*
G75*
G02*
X135745000Y-111345000I75000J0D01*
G01*
G37*
G36*
G01*
X135245000Y-111345000D02*
X135395000Y-111345000D01*
G75*
G02*
X135470000Y-111420000I0J-75000D01*
G01*
X135470000Y-112120000D01*
G75*
G02*
X135395000Y-112195000I-75000J0D01*
G01*
X135245000Y-112195000D01*
G75*
G02*
X135170000Y-112120000I0J75000D01*
G01*
X135170000Y-111420000D01*
G75*
G02*
X135245000Y-111345000I75000J0D01*
G01*
G37*
G36*
G01*
X134745000Y-111345000D02*
X134895000Y-111345000D01*
G75*
G02*
X134970000Y-111420000I0J-75000D01*
G01*
X134970000Y-112120000D01*
G75*
G02*
X134895000Y-112195000I-75000J0D01*
G01*
X134745000Y-112195000D01*
G75*
G02*
X134670000Y-112120000I0J75000D01*
G01*
X134670000Y-111420000D01*
G75*
G02*
X134745000Y-111345000I75000J0D01*
G01*
G37*
G36*
G01*
X134245000Y-111345000D02*
X134395000Y-111345000D01*
G75*
G02*
X134470000Y-111420000I0J-75000D01*
G01*
X134470000Y-112120000D01*
G75*
G02*
X134395000Y-112195000I-75000J0D01*
G01*
X134245000Y-112195000D01*
G75*
G02*
X134170000Y-112120000I0J75000D01*
G01*
X134170000Y-111420000D01*
G75*
G02*
X134245000Y-111345000I75000J0D01*
G01*
G37*
G36*
G01*
X133195000Y-111145000D02*
X133195000Y-110995000D01*
G75*
G02*
X133270000Y-110920000I75000J0D01*
G01*
X133970000Y-110920000D01*
G75*
G02*
X134045000Y-110995000I0J-75000D01*
G01*
X134045000Y-111145000D01*
G75*
G02*
X133970000Y-111220000I-75000J0D01*
G01*
X133270000Y-111220000D01*
G75*
G02*
X133195000Y-111145000I0J75000D01*
G01*
G37*
G36*
G01*
X133195000Y-110645000D02*
X133195000Y-110495000D01*
G75*
G02*
X133270000Y-110420000I75000J0D01*
G01*
X133970000Y-110420000D01*
G75*
G02*
X134045000Y-110495000I0J-75000D01*
G01*
X134045000Y-110645000D01*
G75*
G02*
X133970000Y-110720000I-75000J0D01*
G01*
X133270000Y-110720000D01*
G75*
G02*
X133195000Y-110645000I0J75000D01*
G01*
G37*
G36*
G01*
X133195000Y-110145000D02*
X133195000Y-109995000D01*
G75*
G02*
X133270000Y-109920000I75000J0D01*
G01*
X133970000Y-109920000D01*
G75*
G02*
X134045000Y-109995000I0J-75000D01*
G01*
X134045000Y-110145000D01*
G75*
G02*
X133970000Y-110220000I-75000J0D01*
G01*
X133270000Y-110220000D01*
G75*
G02*
X133195000Y-110145000I0J75000D01*
G01*
G37*
G36*
G01*
X133195000Y-109645000D02*
X133195000Y-109495000D01*
G75*
G02*
X133270000Y-109420000I75000J0D01*
G01*
X133970000Y-109420000D01*
G75*
G02*
X134045000Y-109495000I0J-75000D01*
G01*
X134045000Y-109645000D01*
G75*
G02*
X133970000Y-109720000I-75000J0D01*
G01*
X133270000Y-109720000D01*
G75*
G02*
X133195000Y-109645000I0J75000D01*
G01*
G37*
G36*
G01*
X133195000Y-109145000D02*
X133195000Y-108995000D01*
G75*
G02*
X133270000Y-108920000I75000J0D01*
G01*
X133970000Y-108920000D01*
G75*
G02*
X134045000Y-108995000I0J-75000D01*
G01*
X134045000Y-109145000D01*
G75*
G02*
X133970000Y-109220000I-75000J0D01*
G01*
X133270000Y-109220000D01*
G75*
G02*
X133195000Y-109145000I0J75000D01*
G01*
G37*
G36*
G01*
X133195000Y-108645000D02*
X133195000Y-108495000D01*
G75*
G02*
X133270000Y-108420000I75000J0D01*
G01*
X133970000Y-108420000D01*
G75*
G02*
X134045000Y-108495000I0J-75000D01*
G01*
X134045000Y-108645000D01*
G75*
G02*
X133970000Y-108720000I-75000J0D01*
G01*
X133270000Y-108720000D01*
G75*
G02*
X133195000Y-108645000I0J75000D01*
G01*
G37*
G36*
G01*
X134245000Y-107445000D02*
X134395000Y-107445000D01*
G75*
G02*
X134470000Y-107520000I0J-75000D01*
G01*
X134470000Y-108220000D01*
G75*
G02*
X134395000Y-108295000I-75000J0D01*
G01*
X134245000Y-108295000D01*
G75*
G02*
X134170000Y-108220000I0J75000D01*
G01*
X134170000Y-107520000D01*
G75*
G02*
X134245000Y-107445000I75000J0D01*
G01*
G37*
G36*
G01*
X134745000Y-107445000D02*
X134895000Y-107445000D01*
G75*
G02*
X134970000Y-107520000I0J-75000D01*
G01*
X134970000Y-108220000D01*
G75*
G02*
X134895000Y-108295000I-75000J0D01*
G01*
X134745000Y-108295000D01*
G75*
G02*
X134670000Y-108220000I0J75000D01*
G01*
X134670000Y-107520000D01*
G75*
G02*
X134745000Y-107445000I75000J0D01*
G01*
G37*
G36*
G01*
X135245000Y-107445000D02*
X135395000Y-107445000D01*
G75*
G02*
X135470000Y-107520000I0J-75000D01*
G01*
X135470000Y-108220000D01*
G75*
G02*
X135395000Y-108295000I-75000J0D01*
G01*
X135245000Y-108295000D01*
G75*
G02*
X135170000Y-108220000I0J75000D01*
G01*
X135170000Y-107520000D01*
G75*
G02*
X135245000Y-107445000I75000J0D01*
G01*
G37*
G36*
G01*
X135745000Y-107445000D02*
X135895000Y-107445000D01*
G75*
G02*
X135970000Y-107520000I0J-75000D01*
G01*
X135970000Y-108220000D01*
G75*
G02*
X135895000Y-108295000I-75000J0D01*
G01*
X135745000Y-108295000D01*
G75*
G02*
X135670000Y-108220000I0J75000D01*
G01*
X135670000Y-107520000D01*
G75*
G02*
X135745000Y-107445000I75000J0D01*
G01*
G37*
G36*
G01*
X136245000Y-107445000D02*
X136395000Y-107445000D01*
G75*
G02*
X136470000Y-107520000I0J-75000D01*
G01*
X136470000Y-108220000D01*
G75*
G02*
X136395000Y-108295000I-75000J0D01*
G01*
X136245000Y-108295000D01*
G75*
G02*
X136170000Y-108220000I0J75000D01*
G01*
X136170000Y-107520000D01*
G75*
G02*
X136245000Y-107445000I75000J0D01*
G01*
G37*
G36*
G01*
X136745000Y-107445000D02*
X136895000Y-107445000D01*
G75*
G02*
X136970000Y-107520000I0J-75000D01*
G01*
X136970000Y-108220000D01*
G75*
G02*
X136895000Y-108295000I-75000J0D01*
G01*
X136745000Y-108295000D01*
G75*
G02*
X136670000Y-108220000I0J75000D01*
G01*
X136670000Y-107520000D01*
G75*
G02*
X136745000Y-107445000I75000J0D01*
G01*
G37*
G36*
G01*
X132280000Y-113512500D02*
X132280000Y-113987500D01*
G75*
G02*
X132042500Y-114225000I-237500J0D01*
G01*
X131467500Y-114225000D01*
G75*
G02*
X131230000Y-113987500I0J237500D01*
G01*
X131230000Y-113512500D01*
G75*
G02*
X131467500Y-113275000I237500J0D01*
G01*
X132042500Y-113275000D01*
G75*
G02*
X132280000Y-113512500I0J-237500D01*
G01*
G37*
G36*
G01*
X134030000Y-113512500D02*
X134030000Y-113987500D01*
G75*
G02*
X133792500Y-114225000I-237500J0D01*
G01*
X133217500Y-114225000D01*
G75*
G02*
X132980000Y-113987500I0J237500D01*
G01*
X132980000Y-113512500D01*
G75*
G02*
X133217500Y-113275000I237500J0D01*
G01*
X133792500Y-113275000D01*
G75*
G02*
X134030000Y-113512500I0J-237500D01*
G01*
G37*
G36*
G01*
X139512500Y-112950000D02*
X139987500Y-112950000D01*
G75*
G02*
X140225000Y-113187500I0J-237500D01*
G01*
X140225000Y-113762500D01*
G75*
G02*
X139987500Y-114000000I-237500J0D01*
G01*
X139512500Y-114000000D01*
G75*
G02*
X139275000Y-113762500I0J237500D01*
G01*
X139275000Y-113187500D01*
G75*
G02*
X139512500Y-112950000I237500J0D01*
G01*
G37*
G36*
G01*
X139512500Y-111200000D02*
X139987500Y-111200000D01*
G75*
G02*
X140225000Y-111437500I0J-237500D01*
G01*
X140225000Y-112012500D01*
G75*
G02*
X139987500Y-112250000I-237500J0D01*
G01*
X139512500Y-112250000D01*
G75*
G02*
X139275000Y-112012500I0J237500D01*
G01*
X139275000Y-111437500D01*
G75*
G02*
X139512500Y-111200000I237500J0D01*
G01*
G37*
G36*
G01*
X139597500Y-108555000D02*
X139122500Y-108555000D01*
G75*
G02*
X138885000Y-108317500I0J237500D01*
G01*
X138885000Y-107742500D01*
G75*
G02*
X139122500Y-107505000I237500J0D01*
G01*
X139597500Y-107505000D01*
G75*
G02*
X139835000Y-107742500I0J-237500D01*
G01*
X139835000Y-108317500D01*
G75*
G02*
X139597500Y-108555000I-237500J0D01*
G01*
G37*
G36*
G01*
X139597500Y-110305000D02*
X139122500Y-110305000D01*
G75*
G02*
X138885000Y-110067500I0J237500D01*
G01*
X138885000Y-109492500D01*
G75*
G02*
X139122500Y-109255000I237500J0D01*
G01*
X139597500Y-109255000D01*
G75*
G02*
X139835000Y-109492500I0J-237500D01*
G01*
X139835000Y-110067500D01*
G75*
G02*
X139597500Y-110305000I-237500J0D01*
G01*
G37*
G36*
G01*
X131462500Y-117900000D02*
X131937500Y-117900000D01*
G75*
G02*
X132175000Y-118137500I0J-237500D01*
G01*
X132175000Y-118712500D01*
G75*
G02*
X131937500Y-118950000I-237500J0D01*
G01*
X131462500Y-118950000D01*
G75*
G02*
X131225000Y-118712500I0J237500D01*
G01*
X131225000Y-118137500D01*
G75*
G02*
X131462500Y-117900000I237500J0D01*
G01*
G37*
G36*
G01*
X131462500Y-116150000D02*
X131937500Y-116150000D01*
G75*
G02*
X132175000Y-116387500I0J-237500D01*
G01*
X132175000Y-116962500D01*
G75*
G02*
X131937500Y-117200000I-237500J0D01*
G01*
X131462500Y-117200000D01*
G75*
G02*
X131225000Y-116962500I0J237500D01*
G01*
X131225000Y-116387500D01*
G75*
G02*
X131462500Y-116150000I237500J0D01*
G01*
G37*
G36*
G01*
X132937500Y-121000000D02*
X132462500Y-121000000D01*
G75*
G02*
X132225000Y-120762500I0J237500D01*
G01*
X132225000Y-120187500D01*
G75*
G02*
X132462500Y-119950000I237500J0D01*
G01*
X132937500Y-119950000D01*
G75*
G02*
X133175000Y-120187500I0J-237500D01*
G01*
X133175000Y-120762500D01*
G75*
G02*
X132937500Y-121000000I-237500J0D01*
G01*
G37*
G36*
G01*
X132937500Y-122750000D02*
X132462500Y-122750000D01*
G75*
G02*
X132225000Y-122512500I0J237500D01*
G01*
X132225000Y-121937500D01*
G75*
G02*
X132462500Y-121700000I237500J0D01*
G01*
X132937500Y-121700000D01*
G75*
G02*
X133175000Y-121937500I0J-237500D01*
G01*
X133175000Y-122512500D01*
G75*
G02*
X132937500Y-122750000I-237500J0D01*
G01*
G37*
G36*
G01*
X163437500Y-111050000D02*
X162962500Y-111050000D01*
G75*
G02*
X162725000Y-110812500I0J237500D01*
G01*
X162725000Y-110237500D01*
G75*
G02*
X162962500Y-110000000I237500J0D01*
G01*
X163437500Y-110000000D01*
G75*
G02*
X163675000Y-110237500I0J-237500D01*
G01*
X163675000Y-110812500D01*
G75*
G02*
X163437500Y-111050000I-237500J0D01*
G01*
G37*
G36*
G01*
X163437500Y-112800000D02*
X162962500Y-112800000D01*
G75*
G02*
X162725000Y-112562500I0J237500D01*
G01*
X162725000Y-111987500D01*
G75*
G02*
X162962500Y-111750000I237500J0D01*
G01*
X163437500Y-111750000D01*
G75*
G02*
X163675000Y-111987500I0J-237500D01*
G01*
X163675000Y-112562500D01*
G75*
G02*
X163437500Y-112800000I-237500J0D01*
G01*
G37*
G36*
G01*
X155750000Y-116187500D02*
X155750000Y-115712500D01*
G75*
G02*
X155987500Y-115475000I237500J0D01*
G01*
X156562500Y-115475000D01*
G75*
G02*
X156800000Y-115712500I0J-237500D01*
G01*
X156800000Y-116187500D01*
G75*
G02*
X156562500Y-116425000I-237500J0D01*
G01*
X155987500Y-116425000D01*
G75*
G02*
X155750000Y-116187500I0J237500D01*
G01*
G37*
G36*
G01*
X154000000Y-116187500D02*
X154000000Y-115712500D01*
G75*
G02*
X154237500Y-115475000I237500J0D01*
G01*
X154812500Y-115475000D01*
G75*
G02*
X155050000Y-115712500I0J-237500D01*
G01*
X155050000Y-116187500D01*
G75*
G02*
X154812500Y-116425000I-237500J0D01*
G01*
X154237500Y-116425000D01*
G75*
G02*
X154000000Y-116187500I0J237500D01*
G01*
G37*
G36*
G01*
X140850000Y-117462500D02*
X140850000Y-117937500D01*
G75*
G02*
X140612500Y-118175000I-237500J0D01*
G01*
X140037500Y-118175000D01*
G75*
G02*
X139800000Y-117937500I0J237500D01*
G01*
X139800000Y-117462500D01*
G75*
G02*
X140037500Y-117225000I237500J0D01*
G01*
X140612500Y-117225000D01*
G75*
G02*
X140850000Y-117462500I0J-237500D01*
G01*
G37*
G36*
G01*
X142600000Y-117462500D02*
X142600000Y-117937500D01*
G75*
G02*
X142362500Y-118175000I-237500J0D01*
G01*
X141787500Y-118175000D01*
G75*
G02*
X141550000Y-117937500I0J237500D01*
G01*
X141550000Y-117462500D01*
G75*
G02*
X141787500Y-117225000I237500J0D01*
G01*
X142362500Y-117225000D01*
G75*
G02*
X142600000Y-117462500I0J-237500D01*
G01*
G37*
G36*
G01*
X150450000Y-110312500D02*
X150450000Y-110787500D01*
G75*
G02*
X150212500Y-111025000I-237500J0D01*
G01*
X149637500Y-111025000D01*
G75*
G02*
X149400000Y-110787500I0J237500D01*
G01*
X149400000Y-110312500D01*
G75*
G02*
X149637500Y-110075000I237500J0D01*
G01*
X150212500Y-110075000D01*
G75*
G02*
X150450000Y-110312500I0J-237500D01*
G01*
G37*
G36*
G01*
X152200000Y-110312500D02*
X152200000Y-110787500D01*
G75*
G02*
X151962500Y-111025000I-237500J0D01*
G01*
X151387500Y-111025000D01*
G75*
G02*
X151150000Y-110787500I0J237500D01*
G01*
X151150000Y-110312500D01*
G75*
G02*
X151387500Y-110075000I237500J0D01*
G01*
X151962500Y-110075000D01*
G75*
G02*
X152200000Y-110312500I0J-237500D01*
G01*
G37*
G36*
G01*
X131875000Y-99482500D02*
X131875000Y-99957500D01*
G75*
G02*
X131637500Y-100195000I-237500J0D01*
G01*
X131062500Y-100195000D01*
G75*
G02*
X130825000Y-99957500I0J237500D01*
G01*
X130825000Y-99482500D01*
G75*
G02*
X131062500Y-99245000I237500J0D01*
G01*
X131637500Y-99245000D01*
G75*
G02*
X131875000Y-99482500I0J-237500D01*
G01*
G37*
G36*
G01*
X133625000Y-99482500D02*
X133625000Y-99957500D01*
G75*
G02*
X133387500Y-100195000I-237500J0D01*
G01*
X132812500Y-100195000D01*
G75*
G02*
X132575000Y-99957500I0J237500D01*
G01*
X132575000Y-99482500D01*
G75*
G02*
X132812500Y-99245000I237500J0D01*
G01*
X133387500Y-99245000D01*
G75*
G02*
X133625000Y-99482500I0J-237500D01*
G01*
G37*
D17*
X164000000Y-117900000D03*
X158900000Y-117900000D03*
G36*
G01*
X138250000Y-115687500D02*
X138250000Y-115212500D01*
G75*
G02*
X138487500Y-114975000I237500J0D01*
G01*
X139062500Y-114975000D01*
G75*
G02*
X139300000Y-115212500I0J-237500D01*
G01*
X139300000Y-115687500D01*
G75*
G02*
X139062500Y-115925000I-237500J0D01*
G01*
X138487500Y-115925000D01*
G75*
G02*
X138250000Y-115687500I0J237500D01*
G01*
G37*
G36*
G01*
X136500000Y-115687500D02*
X136500000Y-115212500D01*
G75*
G02*
X136737500Y-114975000I237500J0D01*
G01*
X137312500Y-114975000D01*
G75*
G02*
X137550000Y-115212500I0J-237500D01*
G01*
X137550000Y-115687500D01*
G75*
G02*
X137312500Y-115925000I-237500J0D01*
G01*
X136737500Y-115925000D01*
G75*
G02*
X136500000Y-115687500I0J237500D01*
G01*
G37*
G36*
G01*
X135980000Y-113512500D02*
X135980000Y-113987500D01*
G75*
G02*
X135742500Y-114225000I-237500J0D01*
G01*
X135167500Y-114225000D01*
G75*
G02*
X134930000Y-113987500I0J237500D01*
G01*
X134930000Y-113512500D01*
G75*
G02*
X135167500Y-113275000I237500J0D01*
G01*
X135742500Y-113275000D01*
G75*
G02*
X135980000Y-113512500I0J-237500D01*
G01*
G37*
G36*
G01*
X137730000Y-113512500D02*
X137730000Y-113987500D01*
G75*
G02*
X137492500Y-114225000I-237500J0D01*
G01*
X136917500Y-114225000D01*
G75*
G02*
X136680000Y-113987500I0J237500D01*
G01*
X136680000Y-113512500D01*
G75*
G02*
X136917500Y-113275000I237500J0D01*
G01*
X137492500Y-113275000D01*
G75*
G02*
X137730000Y-113512500I0J-237500D01*
G01*
G37*
G36*
G01*
X131372500Y-110455000D02*
X131847500Y-110455000D01*
G75*
G02*
X132085000Y-110692500I0J-237500D01*
G01*
X132085000Y-111267500D01*
G75*
G02*
X131847500Y-111505000I-237500J0D01*
G01*
X131372500Y-111505000D01*
G75*
G02*
X131135000Y-111267500I0J237500D01*
G01*
X131135000Y-110692500D01*
G75*
G02*
X131372500Y-110455000I237500J0D01*
G01*
G37*
G36*
G01*
X131372500Y-108705000D02*
X131847500Y-108705000D01*
G75*
G02*
X132085000Y-108942500I0J-237500D01*
G01*
X132085000Y-109517500D01*
G75*
G02*
X131847500Y-109755000I-237500J0D01*
G01*
X131372500Y-109755000D01*
G75*
G02*
X131135000Y-109517500I0J237500D01*
G01*
X131135000Y-108942500D01*
G75*
G02*
X131372500Y-108705000I237500J0D01*
G01*
G37*
G36*
G01*
X144847500Y-93250000D02*
X144372500Y-93250000D01*
G75*
G02*
X144135000Y-93012500I0J237500D01*
G01*
X144135000Y-92437500D01*
G75*
G02*
X144372500Y-92200000I237500J0D01*
G01*
X144847500Y-92200000D01*
G75*
G02*
X145085000Y-92437500I0J-237500D01*
G01*
X145085000Y-93012500D01*
G75*
G02*
X144847500Y-93250000I-237500J0D01*
G01*
G37*
G36*
G01*
X144847500Y-95000000D02*
X144372500Y-95000000D01*
G75*
G02*
X144135000Y-94762500I0J237500D01*
G01*
X144135000Y-94187500D01*
G75*
G02*
X144372500Y-93950000I237500J0D01*
G01*
X144847500Y-93950000D01*
G75*
G02*
X145085000Y-94187500I0J-237500D01*
G01*
X145085000Y-94762500D01*
G75*
G02*
X144847500Y-95000000I-237500J0D01*
G01*
G37*
G36*
G01*
X134075000Y-116817500D02*
X134075000Y-117292500D01*
G75*
G02*
X133837500Y-117530000I-237500J0D01*
G01*
X133262500Y-117530000D01*
G75*
G02*
X133025000Y-117292500I0J237500D01*
G01*
X133025000Y-116817500D01*
G75*
G02*
X133262500Y-116580000I237500J0D01*
G01*
X133837500Y-116580000D01*
G75*
G02*
X134075000Y-116817500I0J-237500D01*
G01*
G37*
G36*
G01*
X135825000Y-116817500D02*
X135825000Y-117292500D01*
G75*
G02*
X135587500Y-117530000I-237500J0D01*
G01*
X135012500Y-117530000D01*
G75*
G02*
X134775000Y-117292500I0J237500D01*
G01*
X134775000Y-116817500D01*
G75*
G02*
X135012500Y-116580000I237500J0D01*
G01*
X135587500Y-116580000D01*
G75*
G02*
X135825000Y-116817500I0J-237500D01*
G01*
G37*
G36*
G01*
X134050000Y-118462500D02*
X134050000Y-118937500D01*
G75*
G02*
X133812500Y-119175000I-237500J0D01*
G01*
X133237500Y-119175000D01*
G75*
G02*
X133000000Y-118937500I0J237500D01*
G01*
X133000000Y-118462500D01*
G75*
G02*
X133237500Y-118225000I237500J0D01*
G01*
X133812500Y-118225000D01*
G75*
G02*
X134050000Y-118462500I0J-237500D01*
G01*
G37*
G36*
G01*
X135800000Y-118462500D02*
X135800000Y-118937500D01*
G75*
G02*
X135562500Y-119175000I-237500J0D01*
G01*
X134987500Y-119175000D01*
G75*
G02*
X134750000Y-118937500I0J237500D01*
G01*
X134750000Y-118462500D01*
G75*
G02*
X134987500Y-118225000I237500J0D01*
G01*
X135562500Y-118225000D01*
G75*
G02*
X135800000Y-118462500I0J-237500D01*
G01*
G37*
G36*
G01*
X158150000Y-111012500D02*
X158150000Y-111487500D01*
G75*
G02*
X157912500Y-111725000I-237500J0D01*
G01*
X157337500Y-111725000D01*
G75*
G02*
X157100000Y-111487500I0J237500D01*
G01*
X157100000Y-111012500D01*
G75*
G02*
X157337500Y-110775000I237500J0D01*
G01*
X157912500Y-110775000D01*
G75*
G02*
X158150000Y-111012500I0J-237500D01*
G01*
G37*
G36*
G01*
X159900000Y-111012500D02*
X159900000Y-111487500D01*
G75*
G02*
X159662500Y-111725000I-237500J0D01*
G01*
X159087500Y-111725000D01*
G75*
G02*
X158850000Y-111487500I0J237500D01*
G01*
X158850000Y-111012500D01*
G75*
G02*
X159087500Y-110775000I237500J0D01*
G01*
X159662500Y-110775000D01*
G75*
G02*
X159900000Y-111012500I0J-237500D01*
G01*
G37*
G36*
G01*
X155055000Y-113547500D02*
X155055000Y-113072500D01*
G75*
G02*
X155292500Y-112835000I237500J0D01*
G01*
X155867500Y-112835000D01*
G75*
G02*
X156105000Y-113072500I0J-237500D01*
G01*
X156105000Y-113547500D01*
G75*
G02*
X155867500Y-113785000I-237500J0D01*
G01*
X155292500Y-113785000D01*
G75*
G02*
X155055000Y-113547500I0J237500D01*
G01*
G37*
G36*
G01*
X153305000Y-113547500D02*
X153305000Y-113072500D01*
G75*
G02*
X153542500Y-112835000I237500J0D01*
G01*
X154117500Y-112835000D01*
G75*
G02*
X154355000Y-113072500I0J-237500D01*
G01*
X154355000Y-113547500D01*
G75*
G02*
X154117500Y-113785000I-237500J0D01*
G01*
X153542500Y-113785000D01*
G75*
G02*
X153305000Y-113547500I0J237500D01*
G01*
G37*
G36*
G01*
X165087500Y-111050000D02*
X164612500Y-111050000D01*
G75*
G02*
X164375000Y-110812500I0J237500D01*
G01*
X164375000Y-110237500D01*
G75*
G02*
X164612500Y-110000000I237500J0D01*
G01*
X165087500Y-110000000D01*
G75*
G02*
X165325000Y-110237500I0J-237500D01*
G01*
X165325000Y-110812500D01*
G75*
G02*
X165087500Y-111050000I-237500J0D01*
G01*
G37*
G36*
G01*
X165087500Y-112800000D02*
X164612500Y-112800000D01*
G75*
G02*
X164375000Y-112562500I0J237500D01*
G01*
X164375000Y-111987500D01*
G75*
G02*
X164612500Y-111750000I237500J0D01*
G01*
X165087500Y-111750000D01*
G75*
G02*
X165325000Y-111987500I0J-237500D01*
G01*
X165325000Y-112562500D01*
G75*
G02*
X165087500Y-112800000I-237500J0D01*
G01*
G37*
G36*
G01*
X155080000Y-111912500D02*
X155080000Y-111437500D01*
G75*
G02*
X155317500Y-111200000I237500J0D01*
G01*
X155892500Y-111200000D01*
G75*
G02*
X156130000Y-111437500I0J-237500D01*
G01*
X156130000Y-111912500D01*
G75*
G02*
X155892500Y-112150000I-237500J0D01*
G01*
X155317500Y-112150000D01*
G75*
G02*
X155080000Y-111912500I0J237500D01*
G01*
G37*
G36*
G01*
X153330000Y-111912500D02*
X153330000Y-111437500D01*
G75*
G02*
X153567500Y-111200000I237500J0D01*
G01*
X154142500Y-111200000D01*
G75*
G02*
X154380000Y-111437500I0J-237500D01*
G01*
X154380000Y-111912500D01*
G75*
G02*
X154142500Y-112150000I-237500J0D01*
G01*
X153567500Y-112150000D01*
G75*
G02*
X153330000Y-111912500I0J237500D01*
G01*
G37*
G36*
G01*
X161312500Y-111750000D02*
X161787500Y-111750000D01*
G75*
G02*
X162025000Y-111987500I0J-237500D01*
G01*
X162025000Y-112562500D01*
G75*
G02*
X161787500Y-112800000I-237500J0D01*
G01*
X161312500Y-112800000D01*
G75*
G02*
X161075000Y-112562500I0J237500D01*
G01*
X161075000Y-111987500D01*
G75*
G02*
X161312500Y-111750000I237500J0D01*
G01*
G37*
G36*
G01*
X161312500Y-110000000D02*
X161787500Y-110000000D01*
G75*
G02*
X162025000Y-110237500I0J-237500D01*
G01*
X162025000Y-110812500D01*
G75*
G02*
X161787500Y-111050000I-237500J0D01*
G01*
X161312500Y-111050000D01*
G75*
G02*
X161075000Y-110812500I0J237500D01*
G01*
X161075000Y-110237500D01*
G75*
G02*
X161312500Y-110000000I237500J0D01*
G01*
G37*
G36*
G01*
X159412500Y-94940000D02*
X159887500Y-94940000D01*
G75*
G02*
X160125000Y-95177500I0J-237500D01*
G01*
X160125000Y-95752500D01*
G75*
G02*
X159887500Y-95990000I-237500J0D01*
G01*
X159412500Y-95990000D01*
G75*
G02*
X159175000Y-95752500I0J237500D01*
G01*
X159175000Y-95177500D01*
G75*
G02*
X159412500Y-94940000I237500J0D01*
G01*
G37*
G36*
G01*
X159412500Y-93190000D02*
X159887500Y-93190000D01*
G75*
G02*
X160125000Y-93427500I0J-237500D01*
G01*
X160125000Y-94002500D01*
G75*
G02*
X159887500Y-94240000I-237500J0D01*
G01*
X159412500Y-94240000D01*
G75*
G02*
X159175000Y-94002500I0J237500D01*
G01*
X159175000Y-93427500D01*
G75*
G02*
X159412500Y-93190000I237500J0D01*
G01*
G37*
G36*
G01*
X158150000Y-112762500D02*
X158150000Y-113237500D01*
G75*
G02*
X157912500Y-113475000I-237500J0D01*
G01*
X157337500Y-113475000D01*
G75*
G02*
X157100000Y-113237500I0J237500D01*
G01*
X157100000Y-112762500D01*
G75*
G02*
X157337500Y-112525000I237500J0D01*
G01*
X157912500Y-112525000D01*
G75*
G02*
X158150000Y-112762500I0J-237500D01*
G01*
G37*
G36*
G01*
X159900000Y-112762500D02*
X159900000Y-113237500D01*
G75*
G02*
X159662500Y-113475000I-237500J0D01*
G01*
X159087500Y-113475000D01*
G75*
G02*
X158850000Y-113237500I0J237500D01*
G01*
X158850000Y-112762500D01*
G75*
G02*
X159087500Y-112525000I237500J0D01*
G01*
X159662500Y-112525000D01*
G75*
G02*
X159900000Y-112762500I0J-237500D01*
G01*
G37*
G36*
G01*
X157380000Y-99107500D02*
X157380000Y-98632500D01*
G75*
G02*
X157617500Y-98395000I237500J0D01*
G01*
X158192500Y-98395000D01*
G75*
G02*
X158430000Y-98632500I0J-237500D01*
G01*
X158430000Y-99107500D01*
G75*
G02*
X158192500Y-99345000I-237500J0D01*
G01*
X157617500Y-99345000D01*
G75*
G02*
X157380000Y-99107500I0J237500D01*
G01*
G37*
G36*
G01*
X155630000Y-99107500D02*
X155630000Y-98632500D01*
G75*
G02*
X155867500Y-98395000I237500J0D01*
G01*
X156442500Y-98395000D01*
G75*
G02*
X156680000Y-98632500I0J-237500D01*
G01*
X156680000Y-99107500D01*
G75*
G02*
X156442500Y-99345000I-237500J0D01*
G01*
X155867500Y-99345000D01*
G75*
G02*
X155630000Y-99107500I0J237500D01*
G01*
G37*
G36*
G01*
X155085000Y-110277500D02*
X155085000Y-109802500D01*
G75*
G02*
X155322500Y-109565000I237500J0D01*
G01*
X155897500Y-109565000D01*
G75*
G02*
X156135000Y-109802500I0J-237500D01*
G01*
X156135000Y-110277500D01*
G75*
G02*
X155897500Y-110515000I-237500J0D01*
G01*
X155322500Y-110515000D01*
G75*
G02*
X155085000Y-110277500I0J237500D01*
G01*
G37*
G36*
G01*
X153335000Y-110277500D02*
X153335000Y-109802500D01*
G75*
G02*
X153572500Y-109565000I237500J0D01*
G01*
X154147500Y-109565000D01*
G75*
G02*
X154385000Y-109802500I0J-237500D01*
G01*
X154385000Y-110277500D01*
G75*
G02*
X154147500Y-110515000I-237500J0D01*
G01*
X153572500Y-110515000D01*
G75*
G02*
X153335000Y-110277500I0J237500D01*
G01*
G37*
G36*
G01*
X159877500Y-97665000D02*
X159402500Y-97665000D01*
G75*
G02*
X159165000Y-97427500I0J237500D01*
G01*
X159165000Y-96852500D01*
G75*
G02*
X159402500Y-96615000I237500J0D01*
G01*
X159877500Y-96615000D01*
G75*
G02*
X160115000Y-96852500I0J-237500D01*
G01*
X160115000Y-97427500D01*
G75*
G02*
X159877500Y-97665000I-237500J0D01*
G01*
G37*
G36*
G01*
X159877500Y-99415000D02*
X159402500Y-99415000D01*
G75*
G02*
X159165000Y-99177500I0J237500D01*
G01*
X159165000Y-98602500D01*
G75*
G02*
X159402500Y-98365000I237500J0D01*
G01*
X159877500Y-98365000D01*
G75*
G02*
X160115000Y-98602500I0J-237500D01*
G01*
X160115000Y-99177500D01*
G75*
G02*
X159877500Y-99415000I-237500J0D01*
G01*
G37*
G36*
G01*
X143537500Y-114325000D02*
X143062500Y-114325000D01*
G75*
G02*
X142825000Y-114087500I0J237500D01*
G01*
X142825000Y-113512500D01*
G75*
G02*
X143062500Y-113275000I237500J0D01*
G01*
X143537500Y-113275000D01*
G75*
G02*
X143775000Y-113512500I0J-237500D01*
G01*
X143775000Y-114087500D01*
G75*
G02*
X143537500Y-114325000I-237500J0D01*
G01*
G37*
G36*
G01*
X143537500Y-116075000D02*
X143062500Y-116075000D01*
G75*
G02*
X142825000Y-115837500I0J237500D01*
G01*
X142825000Y-115262500D01*
G75*
G02*
X143062500Y-115025000I237500J0D01*
G01*
X143537500Y-115025000D01*
G75*
G02*
X143775000Y-115262500I0J-237500D01*
G01*
X143775000Y-115837500D01*
G75*
G02*
X143537500Y-116075000I-237500J0D01*
G01*
G37*
G36*
G01*
X141937500Y-114700000D02*
X141462500Y-114700000D01*
G75*
G02*
X141225000Y-114462500I0J237500D01*
G01*
X141225000Y-113887500D01*
G75*
G02*
X141462500Y-113650000I237500J0D01*
G01*
X141937500Y-113650000D01*
G75*
G02*
X142175000Y-113887500I0J-237500D01*
G01*
X142175000Y-114462500D01*
G75*
G02*
X141937500Y-114700000I-237500J0D01*
G01*
G37*
G36*
G01*
X141937500Y-116450000D02*
X141462500Y-116450000D01*
G75*
G02*
X141225000Y-116212500I0J237500D01*
G01*
X141225000Y-115637500D01*
G75*
G02*
X141462500Y-115400000I237500J0D01*
G01*
X141937500Y-115400000D01*
G75*
G02*
X142175000Y-115637500I0J-237500D01*
G01*
X142175000Y-116212500D01*
G75*
G02*
X141937500Y-116450000I-237500J0D01*
G01*
G37*
G36*
G01*
X159510000Y-104807500D02*
X159510000Y-104332500D01*
G75*
G02*
X159747500Y-104095000I237500J0D01*
G01*
X160322500Y-104095000D01*
G75*
G02*
X160560000Y-104332500I0J-237500D01*
G01*
X160560000Y-104807500D01*
G75*
G02*
X160322500Y-105045000I-237500J0D01*
G01*
X159747500Y-105045000D01*
G75*
G02*
X159510000Y-104807500I0J237500D01*
G01*
G37*
G36*
G01*
X157760000Y-104807500D02*
X157760000Y-104332500D01*
G75*
G02*
X157997500Y-104095000I237500J0D01*
G01*
X158572500Y-104095000D01*
G75*
G02*
X158810000Y-104332500I0J-237500D01*
G01*
X158810000Y-104807500D01*
G75*
G02*
X158572500Y-105045000I-237500J0D01*
G01*
X157997500Y-105045000D01*
G75*
G02*
X157760000Y-104807500I0J237500D01*
G01*
G37*
G36*
G01*
X159515000Y-106457500D02*
X159515000Y-105982500D01*
G75*
G02*
X159752500Y-105745000I237500J0D01*
G01*
X160327500Y-105745000D01*
G75*
G02*
X160565000Y-105982500I0J-237500D01*
G01*
X160565000Y-106457500D01*
G75*
G02*
X160327500Y-106695000I-237500J0D01*
G01*
X159752500Y-106695000D01*
G75*
G02*
X159515000Y-106457500I0J237500D01*
G01*
G37*
G36*
G01*
X157765000Y-106457500D02*
X157765000Y-105982500D01*
G75*
G02*
X158002500Y-105745000I237500J0D01*
G01*
X158577500Y-105745000D01*
G75*
G02*
X158815000Y-105982500I0J-237500D01*
G01*
X158815000Y-106457500D01*
G75*
G02*
X158577500Y-106695000I-237500J0D01*
G01*
X158002500Y-106695000D01*
G75*
G02*
X157765000Y-106457500I0J237500D01*
G01*
G37*
G36*
G01*
X138255000Y-117297500D02*
X138255000Y-116822500D01*
G75*
G02*
X138492500Y-116585000I237500J0D01*
G01*
X139067500Y-116585000D01*
G75*
G02*
X139305000Y-116822500I0J-237500D01*
G01*
X139305000Y-117297500D01*
G75*
G02*
X139067500Y-117535000I-237500J0D01*
G01*
X138492500Y-117535000D01*
G75*
G02*
X138255000Y-117297500I0J237500D01*
G01*
G37*
G36*
G01*
X136505000Y-117297500D02*
X136505000Y-116822500D01*
G75*
G02*
X136742500Y-116585000I237500J0D01*
G01*
X137317500Y-116585000D01*
G75*
G02*
X137555000Y-116822500I0J-237500D01*
G01*
X137555000Y-117297500D01*
G75*
G02*
X137317500Y-117535000I-237500J0D01*
G01*
X136742500Y-117535000D01*
G75*
G02*
X136505000Y-117297500I0J237500D01*
G01*
G37*
G36*
G01*
X134070000Y-115182500D02*
X134070000Y-115657500D01*
G75*
G02*
X133832500Y-115895000I-237500J0D01*
G01*
X133257500Y-115895000D01*
G75*
G02*
X133020000Y-115657500I0J237500D01*
G01*
X133020000Y-115182500D01*
G75*
G02*
X133257500Y-114945000I237500J0D01*
G01*
X133832500Y-114945000D01*
G75*
G02*
X134070000Y-115182500I0J-237500D01*
G01*
G37*
G36*
G01*
X135820000Y-115182500D02*
X135820000Y-115657500D01*
G75*
G02*
X135582500Y-115895000I-237500J0D01*
G01*
X135007500Y-115895000D01*
G75*
G02*
X134770000Y-115657500I0J237500D01*
G01*
X134770000Y-115182500D01*
G75*
G02*
X135007500Y-114945000I237500J0D01*
G01*
X135582500Y-114945000D01*
G75*
G02*
X135820000Y-115182500I0J-237500D01*
G01*
G37*
G36*
G01*
X138250000Y-118937500D02*
X138250000Y-118462500D01*
G75*
G02*
X138487500Y-118225000I237500J0D01*
G01*
X139062500Y-118225000D01*
G75*
G02*
X139300000Y-118462500I0J-237500D01*
G01*
X139300000Y-118937500D01*
G75*
G02*
X139062500Y-119175000I-237500J0D01*
G01*
X138487500Y-119175000D01*
G75*
G02*
X138250000Y-118937500I0J237500D01*
G01*
G37*
G36*
G01*
X136500000Y-118937500D02*
X136500000Y-118462500D01*
G75*
G02*
X136737500Y-118225000I237500J0D01*
G01*
X137312500Y-118225000D01*
G75*
G02*
X137550000Y-118462500I0J-237500D01*
G01*
X137550000Y-118937500D01*
G75*
G02*
X137312500Y-119175000I-237500J0D01*
G01*
X136737500Y-119175000D01*
G75*
G02*
X136500000Y-118937500I0J237500D01*
G01*
G37*
M02*
