G04 #@! TF.GenerationSoftware,KiCad,Pcbnew,(5.1.6-0-10_14)*
G04 #@! TF.CreationDate,2020-09-27T10:59:16+08:00*
G04 #@! TF.ProjectId,Watch_F4,57617463-685f-4463-942e-6b696361645f,rev?*
G04 #@! TF.SameCoordinates,Original*
G04 #@! TF.FileFunction,Copper,L2,Bot*
G04 #@! TF.FilePolarity,Positive*
%FSLAX46Y46*%
G04 Gerber Fmt 4.6, Leading zero omitted, Abs format (unit mm)*
G04 Created by KiCad (PCBNEW (5.1.6-0-10_14)) date 2020-09-27 10:59:16*
%MOMM*%
%LPD*%
G01*
G04 APERTURE LIST*
G04 #@! TA.AperFunction,ComponentPad*
%ADD10O,1.000000X1.600000*%
G04 #@! TD*
G04 #@! TA.AperFunction,ComponentPad*
%ADD11O,1.000000X2.100000*%
G04 #@! TD*
G04 #@! TA.AperFunction,SMDPad,CuDef*
%ADD12R,1.550000X1.300000*%
G04 #@! TD*
G04 #@! TA.AperFunction,SMDPad,CuDef*
%ADD13R,0.650000X1.060000*%
G04 #@! TD*
G04 #@! TA.AperFunction,ComponentPad*
%ADD14O,1.350000X1.350000*%
G04 #@! TD*
G04 #@! TA.AperFunction,ComponentPad*
%ADD15R,1.350000X1.350000*%
G04 #@! TD*
G04 #@! TA.AperFunction,ViaPad*
%ADD16C,0.700000*%
G04 #@! TD*
G04 #@! TA.AperFunction,Conductor*
%ADD17C,0.200000*%
G04 #@! TD*
G04 #@! TA.AperFunction,Conductor*
%ADD18C,0.250000*%
G04 #@! TD*
G04 #@! TA.AperFunction,Conductor*
%ADD19C,0.500000*%
G04 #@! TD*
G04 #@! TA.AperFunction,Conductor*
%ADD20C,1.300000*%
G04 #@! TD*
G04 #@! TA.AperFunction,Conductor*
%ADD21C,0.350000*%
G04 #@! TD*
G04 #@! TA.AperFunction,Conductor*
%ADD22C,0.254000*%
G04 #@! TD*
G04 APERTURE END LIST*
D10*
X152320000Y-123225000D03*
X143680000Y-123225000D03*
D11*
X152320000Y-119045000D03*
X143680000Y-119045000D03*
G04 #@! TA.AperFunction,SMDPad,CuDef*
G36*
G01*
X147885000Y-96772500D02*
X147885000Y-97247500D01*
G75*
G02*
X147647500Y-97485000I-237500J0D01*
G01*
X147072500Y-97485000D01*
G75*
G02*
X146835000Y-97247500I0J237500D01*
G01*
X146835000Y-96772500D01*
G75*
G02*
X147072500Y-96535000I237500J0D01*
G01*
X147647500Y-96535000D01*
G75*
G02*
X147885000Y-96772500I0J-237500D01*
G01*
G37*
G04 #@! TD.AperFunction*
G04 #@! TA.AperFunction,SMDPad,CuDef*
G36*
G01*
X149635000Y-96772500D02*
X149635000Y-97247500D01*
G75*
G02*
X149397500Y-97485000I-237500J0D01*
G01*
X148822500Y-97485000D01*
G75*
G02*
X148585000Y-97247500I0J237500D01*
G01*
X148585000Y-96772500D01*
G75*
G02*
X148822500Y-96535000I237500J0D01*
G01*
X149397500Y-96535000D01*
G75*
G02*
X149635000Y-96772500I0J-237500D01*
G01*
G37*
G04 #@! TD.AperFunction*
G04 #@! TA.AperFunction,SMDPad,CuDef*
G36*
G01*
X150500000Y-123500000D02*
X150500000Y-125100000D01*
G75*
G02*
X150300000Y-125300000I-200000J0D01*
G01*
X149900000Y-125300000D01*
G75*
G02*
X149700000Y-125100000I0J200000D01*
G01*
X149700000Y-123500000D01*
G75*
G02*
X149900000Y-123300000I200000J0D01*
G01*
X150300000Y-123300000D01*
G75*
G02*
X150500000Y-123500000I0J-200000D01*
G01*
G37*
G04 #@! TD.AperFunction*
G04 #@! TA.AperFunction,SMDPad,CuDef*
G36*
G01*
X146300000Y-123500000D02*
X146300000Y-125100000D01*
G75*
G02*
X146100000Y-125300000I-200000J0D01*
G01*
X145700000Y-125300000D01*
G75*
G02*
X145500000Y-125100000I0J200000D01*
G01*
X145500000Y-123500000D01*
G75*
G02*
X145700000Y-123300000I200000J0D01*
G01*
X146100000Y-123300000D01*
G75*
G02*
X146300000Y-123500000I0J-200000D01*
G01*
G37*
G04 #@! TD.AperFunction*
D12*
X133330000Y-110950000D03*
X133330000Y-115450000D03*
X131370000Y-115450000D03*
X131370000Y-110950000D03*
X164508000Y-96550000D03*
X164508000Y-101050000D03*
X162690000Y-101050000D03*
X162690000Y-96550000D03*
X164700000Y-110400000D03*
X164700000Y-114900000D03*
X162740000Y-114900000D03*
X162740000Y-110400000D03*
X131370000Y-101050000D03*
X131370000Y-96550000D03*
X133330000Y-96550000D03*
X133330000Y-101050000D03*
D13*
X148970000Y-98895000D03*
X147070000Y-98895000D03*
X147070000Y-101095000D03*
X148020000Y-101095000D03*
X148970000Y-101095000D03*
G04 #@! TA.AperFunction,SMDPad,CuDef*
G36*
G01*
X145012500Y-100595000D02*
X145487500Y-100595000D01*
G75*
G02*
X145725000Y-100832500I0J-237500D01*
G01*
X145725000Y-101407500D01*
G75*
G02*
X145487500Y-101645000I-237500J0D01*
G01*
X145012500Y-101645000D01*
G75*
G02*
X144775000Y-101407500I0J237500D01*
G01*
X144775000Y-100832500D01*
G75*
G02*
X145012500Y-100595000I237500J0D01*
G01*
G37*
G04 #@! TD.AperFunction*
G04 #@! TA.AperFunction,SMDPad,CuDef*
G36*
G01*
X145012500Y-98845000D02*
X145487500Y-98845000D01*
G75*
G02*
X145725000Y-99082500I0J-237500D01*
G01*
X145725000Y-99657500D01*
G75*
G02*
X145487500Y-99895000I-237500J0D01*
G01*
X145012500Y-99895000D01*
G75*
G02*
X144775000Y-99657500I0J237500D01*
G01*
X144775000Y-99082500D01*
G75*
G02*
X145012500Y-98845000I237500J0D01*
G01*
G37*
G04 #@! TD.AperFunction*
G04 #@! TA.AperFunction,SMDPad,CuDef*
G36*
G01*
X150552500Y-100595000D02*
X151027500Y-100595000D01*
G75*
G02*
X151265000Y-100832500I0J-237500D01*
G01*
X151265000Y-101407500D01*
G75*
G02*
X151027500Y-101645000I-237500J0D01*
G01*
X150552500Y-101645000D01*
G75*
G02*
X150315000Y-101407500I0J237500D01*
G01*
X150315000Y-100832500D01*
G75*
G02*
X150552500Y-100595000I237500J0D01*
G01*
G37*
G04 #@! TD.AperFunction*
G04 #@! TA.AperFunction,SMDPad,CuDef*
G36*
G01*
X150552500Y-98845000D02*
X151027500Y-98845000D01*
G75*
G02*
X151265000Y-99082500I0J-237500D01*
G01*
X151265000Y-99657500D01*
G75*
G02*
X151027500Y-99895000I-237500J0D01*
G01*
X150552500Y-99895000D01*
G75*
G02*
X150315000Y-99657500I0J237500D01*
G01*
X150315000Y-99082500D01*
G75*
G02*
X150552500Y-98845000I237500J0D01*
G01*
G37*
G04 #@! TD.AperFunction*
G04 #@! TA.AperFunction,SMDPad,CuDef*
G36*
G01*
X145347500Y-103825000D02*
X144872500Y-103825000D01*
G75*
G02*
X144635000Y-103587500I0J237500D01*
G01*
X144635000Y-103012500D01*
G75*
G02*
X144872500Y-102775000I237500J0D01*
G01*
X145347500Y-102775000D01*
G75*
G02*
X145585000Y-103012500I0J-237500D01*
G01*
X145585000Y-103587500D01*
G75*
G02*
X145347500Y-103825000I-237500J0D01*
G01*
G37*
G04 #@! TD.AperFunction*
G04 #@! TA.AperFunction,SMDPad,CuDef*
G36*
G01*
X145347500Y-105575000D02*
X144872500Y-105575000D01*
G75*
G02*
X144635000Y-105337500I0J237500D01*
G01*
X144635000Y-104762500D01*
G75*
G02*
X144872500Y-104525000I237500J0D01*
G01*
X145347500Y-104525000D01*
G75*
G02*
X145585000Y-104762500I0J-237500D01*
G01*
X145585000Y-105337500D01*
G75*
G02*
X145347500Y-105575000I-237500J0D01*
G01*
G37*
G04 #@! TD.AperFunction*
G04 #@! TA.AperFunction,SMDPad,CuDef*
G36*
G01*
X150632500Y-104570000D02*
X151107500Y-104570000D01*
G75*
G02*
X151345000Y-104807500I0J-237500D01*
G01*
X151345000Y-105382500D01*
G75*
G02*
X151107500Y-105620000I-237500J0D01*
G01*
X150632500Y-105620000D01*
G75*
G02*
X150395000Y-105382500I0J237500D01*
G01*
X150395000Y-104807500D01*
G75*
G02*
X150632500Y-104570000I237500J0D01*
G01*
G37*
G04 #@! TD.AperFunction*
G04 #@! TA.AperFunction,SMDPad,CuDef*
G36*
G01*
X150632500Y-102820000D02*
X151107500Y-102820000D01*
G75*
G02*
X151345000Y-103057500I0J-237500D01*
G01*
X151345000Y-103632500D01*
G75*
G02*
X151107500Y-103870000I-237500J0D01*
G01*
X150632500Y-103870000D01*
G75*
G02*
X150395000Y-103632500I0J237500D01*
G01*
X150395000Y-103057500D01*
G75*
G02*
X150632500Y-102820000I237500J0D01*
G01*
G37*
G04 #@! TD.AperFunction*
G04 #@! TA.AperFunction,SMDPad,CuDef*
G36*
G01*
X151107500Y-107290000D02*
X150632500Y-107290000D01*
G75*
G02*
X150395000Y-107052500I0J237500D01*
G01*
X150395000Y-106477500D01*
G75*
G02*
X150632500Y-106240000I237500J0D01*
G01*
X151107500Y-106240000D01*
G75*
G02*
X151345000Y-106477500I0J-237500D01*
G01*
X151345000Y-107052500D01*
G75*
G02*
X151107500Y-107290000I-237500J0D01*
G01*
G37*
G04 #@! TD.AperFunction*
G04 #@! TA.AperFunction,SMDPad,CuDef*
G36*
G01*
X151107500Y-109040000D02*
X150632500Y-109040000D01*
G75*
G02*
X150395000Y-108802500I0J237500D01*
G01*
X150395000Y-108227500D01*
G75*
G02*
X150632500Y-107990000I237500J0D01*
G01*
X151107500Y-107990000D01*
G75*
G02*
X151345000Y-108227500I0J-237500D01*
G01*
X151345000Y-108802500D01*
G75*
G02*
X151107500Y-109040000I-237500J0D01*
G01*
G37*
G04 #@! TD.AperFunction*
D14*
X157150000Y-123900000D03*
D15*
X159150000Y-123900000D03*
G04 #@! TA.AperFunction,SMDPad,CuDef*
G36*
G01*
X147175000Y-103512500D02*
X147175000Y-103687500D01*
G75*
G02*
X147087500Y-103775000I-87500J0D01*
G01*
X146512500Y-103775000D01*
G75*
G02*
X146425000Y-103687500I0J87500D01*
G01*
X146425000Y-103512500D01*
G75*
G02*
X146512500Y-103425000I87500J0D01*
G01*
X147087500Y-103425000D01*
G75*
G02*
X147175000Y-103512500I0J-87500D01*
G01*
G37*
G04 #@! TD.AperFunction*
G04 #@! TA.AperFunction,SMDPad,CuDef*
G36*
G01*
X147175000Y-104312500D02*
X147175000Y-104487500D01*
G75*
G02*
X147087500Y-104575000I-87500J0D01*
G01*
X146512500Y-104575000D01*
G75*
G02*
X146425000Y-104487500I0J87500D01*
G01*
X146425000Y-104312500D01*
G75*
G02*
X146512500Y-104225000I87500J0D01*
G01*
X147087500Y-104225000D01*
G75*
G02*
X147175000Y-104312500I0J-87500D01*
G01*
G37*
G04 #@! TD.AperFunction*
G04 #@! TA.AperFunction,SMDPad,CuDef*
G36*
G01*
X147175000Y-105112500D02*
X147175000Y-105287500D01*
G75*
G02*
X147087500Y-105375000I-87500J0D01*
G01*
X146512500Y-105375000D01*
G75*
G02*
X146425000Y-105287500I0J87500D01*
G01*
X146425000Y-105112500D01*
G75*
G02*
X146512500Y-105025000I87500J0D01*
G01*
X147087500Y-105025000D01*
G75*
G02*
X147175000Y-105112500I0J-87500D01*
G01*
G37*
G04 #@! TD.AperFunction*
G04 #@! TA.AperFunction,SMDPad,CuDef*
G36*
G01*
X147175000Y-105912500D02*
X147175000Y-106087500D01*
G75*
G02*
X147087500Y-106175000I-87500J0D01*
G01*
X146512500Y-106175000D01*
G75*
G02*
X146425000Y-106087500I0J87500D01*
G01*
X146425000Y-105912500D01*
G75*
G02*
X146512500Y-105825000I87500J0D01*
G01*
X147087500Y-105825000D01*
G75*
G02*
X147175000Y-105912500I0J-87500D01*
G01*
G37*
G04 #@! TD.AperFunction*
G04 #@! TA.AperFunction,SMDPad,CuDef*
G36*
G01*
X147175000Y-106712500D02*
X147175000Y-106887500D01*
G75*
G02*
X147087500Y-106975000I-87500J0D01*
G01*
X146512500Y-106975000D01*
G75*
G02*
X146425000Y-106887500I0J87500D01*
G01*
X146425000Y-106712500D01*
G75*
G02*
X146512500Y-106625000I87500J0D01*
G01*
X147087500Y-106625000D01*
G75*
G02*
X147175000Y-106712500I0J-87500D01*
G01*
G37*
G04 #@! TD.AperFunction*
G04 #@! TA.AperFunction,SMDPad,CuDef*
G36*
G01*
X147175000Y-107512500D02*
X147175000Y-107687500D01*
G75*
G02*
X147087500Y-107775000I-87500J0D01*
G01*
X146512500Y-107775000D01*
G75*
G02*
X146425000Y-107687500I0J87500D01*
G01*
X146425000Y-107512500D01*
G75*
G02*
X146512500Y-107425000I87500J0D01*
G01*
X147087500Y-107425000D01*
G75*
G02*
X147175000Y-107512500I0J-87500D01*
G01*
G37*
G04 #@! TD.AperFunction*
G04 #@! TA.AperFunction,SMDPad,CuDef*
G36*
G01*
X147175000Y-108312500D02*
X147175000Y-108487500D01*
G75*
G02*
X147087500Y-108575000I-87500J0D01*
G01*
X146512500Y-108575000D01*
G75*
G02*
X146425000Y-108487500I0J87500D01*
G01*
X146425000Y-108312500D01*
G75*
G02*
X146512500Y-108225000I87500J0D01*
G01*
X147087500Y-108225000D01*
G75*
G02*
X147175000Y-108312500I0J-87500D01*
G01*
G37*
G04 #@! TD.AperFunction*
G04 #@! TA.AperFunction,SMDPad,CuDef*
G36*
G01*
X149575000Y-108312500D02*
X149575000Y-108487500D01*
G75*
G02*
X149487500Y-108575000I-87500J0D01*
G01*
X148912500Y-108575000D01*
G75*
G02*
X148825000Y-108487500I0J87500D01*
G01*
X148825000Y-108312500D01*
G75*
G02*
X148912500Y-108225000I87500J0D01*
G01*
X149487500Y-108225000D01*
G75*
G02*
X149575000Y-108312500I0J-87500D01*
G01*
G37*
G04 #@! TD.AperFunction*
G04 #@! TA.AperFunction,SMDPad,CuDef*
G36*
G01*
X149575000Y-107512500D02*
X149575000Y-107687500D01*
G75*
G02*
X149487500Y-107775000I-87500J0D01*
G01*
X148912500Y-107775000D01*
G75*
G02*
X148825000Y-107687500I0J87500D01*
G01*
X148825000Y-107512500D01*
G75*
G02*
X148912500Y-107425000I87500J0D01*
G01*
X149487500Y-107425000D01*
G75*
G02*
X149575000Y-107512500I0J-87500D01*
G01*
G37*
G04 #@! TD.AperFunction*
G04 #@! TA.AperFunction,SMDPad,CuDef*
G36*
G01*
X149575000Y-106712500D02*
X149575000Y-106887500D01*
G75*
G02*
X149487500Y-106975000I-87500J0D01*
G01*
X148912500Y-106975000D01*
G75*
G02*
X148825000Y-106887500I0J87500D01*
G01*
X148825000Y-106712500D01*
G75*
G02*
X148912500Y-106625000I87500J0D01*
G01*
X149487500Y-106625000D01*
G75*
G02*
X149575000Y-106712500I0J-87500D01*
G01*
G37*
G04 #@! TD.AperFunction*
G04 #@! TA.AperFunction,SMDPad,CuDef*
G36*
G01*
X149575000Y-105912500D02*
X149575000Y-106087500D01*
G75*
G02*
X149487500Y-106175000I-87500J0D01*
G01*
X148912500Y-106175000D01*
G75*
G02*
X148825000Y-106087500I0J87500D01*
G01*
X148825000Y-105912500D01*
G75*
G02*
X148912500Y-105825000I87500J0D01*
G01*
X149487500Y-105825000D01*
G75*
G02*
X149575000Y-105912500I0J-87500D01*
G01*
G37*
G04 #@! TD.AperFunction*
G04 #@! TA.AperFunction,SMDPad,CuDef*
G36*
G01*
X149575000Y-105112500D02*
X149575000Y-105287500D01*
G75*
G02*
X149487500Y-105375000I-87500J0D01*
G01*
X148912500Y-105375000D01*
G75*
G02*
X148825000Y-105287500I0J87500D01*
G01*
X148825000Y-105112500D01*
G75*
G02*
X148912500Y-105025000I87500J0D01*
G01*
X149487500Y-105025000D01*
G75*
G02*
X149575000Y-105112500I0J-87500D01*
G01*
G37*
G04 #@! TD.AperFunction*
G04 #@! TA.AperFunction,SMDPad,CuDef*
G36*
G01*
X149575000Y-104312500D02*
X149575000Y-104487500D01*
G75*
G02*
X149487500Y-104575000I-87500J0D01*
G01*
X148912500Y-104575000D01*
G75*
G02*
X148825000Y-104487500I0J87500D01*
G01*
X148825000Y-104312500D01*
G75*
G02*
X148912500Y-104225000I87500J0D01*
G01*
X149487500Y-104225000D01*
G75*
G02*
X149575000Y-104312500I0J-87500D01*
G01*
G37*
G04 #@! TD.AperFunction*
G04 #@! TA.AperFunction,SMDPad,CuDef*
G36*
G01*
X149575000Y-103512500D02*
X149575000Y-103687500D01*
G75*
G02*
X149487500Y-103775000I-87500J0D01*
G01*
X148912500Y-103775000D01*
G75*
G02*
X148825000Y-103687500I0J87500D01*
G01*
X148825000Y-103512500D01*
G75*
G02*
X148912500Y-103425000I87500J0D01*
G01*
X149487500Y-103425000D01*
G75*
G02*
X149575000Y-103512500I0J-87500D01*
G01*
G37*
G04 #@! TD.AperFunction*
G04 #@! TA.AperFunction,SMDPad,CuDef*
G36*
G01*
X145357500Y-107295000D02*
X144882500Y-107295000D01*
G75*
G02*
X144645000Y-107057500I0J237500D01*
G01*
X144645000Y-106482500D01*
G75*
G02*
X144882500Y-106245000I237500J0D01*
G01*
X145357500Y-106245000D01*
G75*
G02*
X145595000Y-106482500I0J-237500D01*
G01*
X145595000Y-107057500D01*
G75*
G02*
X145357500Y-107295000I-237500J0D01*
G01*
G37*
G04 #@! TD.AperFunction*
G04 #@! TA.AperFunction,SMDPad,CuDef*
G36*
G01*
X145357500Y-109045000D02*
X144882500Y-109045000D01*
G75*
G02*
X144645000Y-108807500I0J237500D01*
G01*
X144645000Y-108232500D01*
G75*
G02*
X144882500Y-107995000I237500J0D01*
G01*
X145357500Y-107995000D01*
G75*
G02*
X145595000Y-108232500I0J-237500D01*
G01*
X145595000Y-108807500D01*
G75*
G02*
X145357500Y-109045000I-237500J0D01*
G01*
G37*
G04 #@! TD.AperFunction*
D16*
X143860000Y-89400000D03*
X149158000Y-105958000D03*
X150790000Y-99370000D03*
X148020000Y-101095000D03*
X143120000Y-94200000D03*
X135455000Y-113750000D03*
X137840000Y-111990000D03*
X152100000Y-101080000D03*
X145250000Y-99370000D03*
X159640000Y-97140000D03*
X160035000Y-104570000D03*
X155790000Y-87200000D03*
X133550000Y-115450000D03*
X162690000Y-114900000D03*
X137650000Y-122350000D03*
X143080000Y-111090000D03*
X161090000Y-94020000D03*
X156155000Y-98870000D03*
X154320000Y-97690000D03*
X155160000Y-95690000D03*
X142100000Y-112650000D03*
X149450000Y-121350000D03*
X143700000Y-112500000D03*
X148700000Y-120300000D03*
X145100000Y-105100000D03*
X134760000Y-102490000D03*
X134360000Y-104510000D03*
X152080000Y-100130000D03*
X152427500Y-107677500D03*
X150650000Y-98250000D03*
X148970000Y-101095000D03*
X150870000Y-103345000D03*
X140510000Y-107120000D03*
X142390000Y-107230000D03*
X132830000Y-107760000D03*
X140125000Y-120445000D03*
X153830000Y-113310000D03*
X148800000Y-95520000D03*
X150440000Y-93340000D03*
X140610001Y-112780000D03*
X147400000Y-110400000D03*
X139360000Y-109780000D03*
X148762357Y-109962357D03*
X145600000Y-113650000D03*
X153440000Y-97960000D03*
X161290000Y-96370000D03*
X154090000Y-96420000D03*
X158442831Y-109257169D03*
X145600000Y-116150000D03*
X153200000Y-95400000D03*
X164050000Y-92850000D03*
X160300000Y-109650000D03*
X145600000Y-114900000D03*
X154314751Y-95600250D03*
X164350000Y-94000000D03*
X159350000Y-109750000D03*
X143911778Y-100818088D03*
X138930000Y-105765000D03*
X135500000Y-99700000D03*
X141300000Y-97630000D03*
X143780000Y-99470000D03*
X138930000Y-104495000D03*
X148140000Y-103170000D03*
X149340000Y-102810000D03*
X147830000Y-104370000D03*
X139430000Y-96080000D03*
X133220000Y-93680000D03*
X160650000Y-111500000D03*
X152900000Y-116000000D03*
X156200000Y-117500000D03*
X145680000Y-95680000D03*
X133500000Y-105660000D03*
X135720000Y-106150000D03*
X140510000Y-105960000D03*
X152240000Y-105850000D03*
X152120000Y-102150000D03*
X144860000Y-88850000D03*
X153550000Y-92530000D03*
X138200000Y-113030000D03*
X145489851Y-110411394D03*
X149650000Y-119950000D03*
X148350000Y-111050000D03*
X146400000Y-120000000D03*
X146600000Y-111400000D03*
D17*
X146425000Y-105200000D02*
X146800000Y-105200000D01*
X145120000Y-106505000D02*
X146425000Y-105200000D01*
X145120000Y-106770000D02*
X145120000Y-106505000D01*
X149025000Y-105825000D02*
X149158000Y-105958000D01*
X148972686Y-105825000D02*
X149025000Y-105825000D01*
X148347686Y-105200000D02*
X148972686Y-105825000D01*
X146800000Y-105200000D02*
X148347686Y-105200000D01*
X149158000Y-105958000D02*
X149200000Y-106000000D01*
X147969999Y-100314999D02*
X148020000Y-100365000D01*
X146669999Y-100314999D02*
X147969999Y-100314999D01*
X148020000Y-100365000D02*
X148020000Y-101095000D01*
X145725000Y-99370000D02*
X146669999Y-100314999D01*
X145250000Y-99370000D02*
X145725000Y-99370000D01*
D18*
X135455000Y-114225000D02*
X134230000Y-115450000D01*
X134230000Y-115450000D02*
X133550000Y-115450000D01*
X135455000Y-113750000D02*
X135455000Y-114225000D01*
X136080000Y-113750000D02*
X135455000Y-113750000D01*
X137840000Y-111990000D02*
X136080000Y-113750000D01*
D17*
X162660000Y-115420000D02*
X162690000Y-115450000D01*
X150790000Y-99895000D02*
X150790000Y-99370000D01*
X152100000Y-101080000D02*
X150790000Y-99895000D01*
X164650000Y-113673532D02*
X164688766Y-113634766D01*
X164650000Y-115450000D02*
X164650000Y-113673532D01*
X160894000Y-97140000D02*
X159640000Y-97140000D01*
X164592000Y-99060000D02*
X160894000Y-97140000D01*
X164592000Y-101092000D02*
X164592000Y-99060000D01*
D19*
X133679999Y-96769997D02*
X133330000Y-96419998D01*
X133740003Y-96830001D02*
X133679999Y-96769997D01*
X140984973Y-96830001D02*
X133740003Y-96830001D01*
X143120000Y-94694974D02*
X140984973Y-96830001D01*
X143120000Y-94200000D02*
X143120000Y-94694974D01*
X143860000Y-93460000D02*
X143120000Y-94200000D01*
X143860000Y-89400000D02*
X143860000Y-93460000D01*
D17*
X161715000Y-101050000D02*
X160035000Y-102730000D01*
X160035000Y-102730000D02*
X160035000Y-104570000D01*
X162690000Y-101050000D02*
X161715000Y-101050000D01*
D18*
X138405002Y-113750000D02*
X135455000Y-113750000D01*
X141470000Y-111020000D02*
X138405002Y-113750000D01*
D17*
X150049999Y-99104999D02*
X150315000Y-99370000D01*
X150049999Y-98424999D02*
X150049999Y-99104999D01*
X150315000Y-99370000D02*
X150790000Y-99370000D01*
X149110000Y-97485000D02*
X150049999Y-98424999D01*
X149110000Y-97010000D02*
X149110000Y-97485000D01*
D20*
X131370000Y-115450000D02*
X133330000Y-115450000D01*
X131370000Y-96550000D02*
X133330000Y-96550000D01*
X162690000Y-101050000D02*
X164508000Y-101050000D01*
D18*
X133550000Y-115450000D02*
X133330000Y-115450000D01*
D19*
X135455000Y-120155000D02*
X137650000Y-122350000D01*
X135455000Y-113750000D02*
X135455000Y-120155000D01*
D20*
X162690000Y-114900000D02*
X164700000Y-114900000D01*
D17*
X142865000Y-111000000D02*
X141460000Y-111000000D01*
X143080000Y-111090000D02*
X142865000Y-111000000D01*
D18*
X144825000Y-123225000D02*
X145900000Y-124300000D01*
X143680000Y-123225000D02*
X144825000Y-123225000D01*
D17*
X155980000Y-98870000D02*
X156155000Y-98870000D01*
X154320000Y-97690000D02*
X155980000Y-98870000D01*
X155160000Y-95690000D02*
X157750000Y-94020000D01*
X157750000Y-94020000D02*
X161090000Y-94020000D01*
X149450000Y-121350000D02*
X142950000Y-121360331D01*
X142950000Y-121360331D02*
X142050000Y-120600000D01*
X142050000Y-120600000D02*
X142100000Y-112650000D01*
X142700000Y-113400000D02*
X143700000Y-112500000D01*
X142700000Y-120300000D02*
X142700000Y-113400000D01*
X143300000Y-120900001D02*
X142700000Y-120300000D01*
X148099999Y-120900001D02*
X143300000Y-120900001D01*
X148700000Y-120300000D02*
X148099999Y-120900001D01*
X150910000Y-102775000D02*
X150910000Y-103300000D01*
X150305000Y-102170000D02*
X150910000Y-102775000D01*
X149760000Y-101360000D02*
X149760000Y-102120000D01*
X149495000Y-101095000D02*
X149760000Y-101360000D01*
X148970000Y-101095000D02*
X149495000Y-101095000D01*
X149760000Y-102120000D02*
X150305000Y-102170000D01*
X146200000Y-101440000D02*
X146200000Y-102140000D01*
X146545000Y-101095000D02*
X146200000Y-101440000D01*
X147070000Y-101095000D02*
X146545000Y-101095000D01*
X146200000Y-102140000D02*
X149760000Y-102120000D01*
D19*
X134760000Y-104260000D02*
X134760000Y-102490000D01*
X134360000Y-104510000D02*
X134760000Y-104260000D01*
D17*
X152080000Y-99445556D02*
X152080000Y-100130000D01*
X150884444Y-98250000D02*
X152080000Y-99445556D01*
X150650000Y-98250000D02*
X150884444Y-98250000D01*
X142280000Y-107120000D02*
X142390000Y-107230000D01*
X140510000Y-107120000D02*
X142280000Y-107120000D01*
X134360000Y-106230000D02*
X134360000Y-104510000D01*
X132830000Y-107760000D02*
X134360000Y-106230000D01*
X143680000Y-108520000D02*
X145120000Y-108520000D01*
X142390000Y-107230000D02*
X143680000Y-108520000D01*
X146800000Y-106800000D02*
X146800000Y-107600000D01*
X146340000Y-107775000D02*
X145595000Y-108520000D01*
X146625000Y-107775000D02*
X146340000Y-107775000D01*
X145595000Y-108520000D02*
X145120000Y-108520000D01*
X146800000Y-107600000D02*
X146625000Y-107775000D01*
X152427500Y-107677500D02*
X152427500Y-108487500D01*
X152400000Y-108515000D02*
X150870000Y-108515000D01*
X152427500Y-108487500D02*
X152400000Y-108515000D01*
X145120000Y-109045000D02*
X145295000Y-109220000D01*
X145120000Y-108520000D02*
X145120000Y-109045000D01*
X150870000Y-109040000D02*
X150870000Y-108515000D01*
X150690000Y-109220000D02*
X150870000Y-109040000D01*
X145295000Y-109220000D02*
X150690000Y-109220000D01*
D21*
X152074999Y-122025001D02*
X153850000Y-120250000D01*
X141705001Y-122025001D02*
X152074999Y-122025001D01*
X140125000Y-120445000D02*
X141705001Y-122025001D01*
X152224999Y-114915001D02*
X152224999Y-116774999D01*
X153830000Y-113310000D02*
X152224999Y-114915001D01*
X153850000Y-118400000D02*
X153850000Y-120250000D01*
X152224999Y-116774999D02*
X153850000Y-118400000D01*
D17*
X150440000Y-93340000D02*
X148800000Y-95520000D01*
X141490002Y-111899999D02*
X140610001Y-112780000D01*
X143450001Y-111899999D02*
X141490002Y-111899999D01*
X144300000Y-111050000D02*
X143450001Y-111899999D01*
X145800000Y-111050000D02*
X144300000Y-111050000D01*
X147400000Y-110400000D02*
X145800000Y-111050000D01*
X139450009Y-109689991D02*
X139360000Y-109780000D01*
X147890248Y-109689991D02*
X139450009Y-109689991D01*
X148762357Y-109962357D02*
X147890248Y-109689991D01*
X154090000Y-96420000D02*
X161290000Y-96370000D01*
X151502855Y-109257169D02*
X158442831Y-109257169D01*
X147110024Y-113650000D02*
X151502855Y-109257169D01*
X145600000Y-113650000D02*
X147110024Y-113650000D01*
X155750000Y-92850000D02*
X164050000Y-92850000D01*
X153200000Y-95400000D02*
X155750000Y-92850000D01*
X145600000Y-116150000D02*
X150750000Y-111000000D01*
X158950000Y-111000000D02*
X160300000Y-109650000D01*
X150750000Y-111000000D02*
X158950000Y-111000000D01*
X163769999Y-93419999D02*
X164350000Y-94000000D01*
X156495002Y-93419999D02*
X163769999Y-93419999D01*
X154314751Y-95600250D02*
X156495002Y-93419999D01*
X146355012Y-114900000D02*
X150705012Y-110550000D01*
X145600000Y-114900000D02*
X146355012Y-114900000D01*
X158550000Y-110550000D02*
X159350000Y-109750000D01*
X150705012Y-110550000D02*
X158550000Y-110550000D01*
X143561779Y-101168087D02*
X143561779Y-103468221D01*
X143911778Y-100818088D02*
X143561779Y-101168087D01*
X139696998Y-105765000D02*
X138930000Y-105765000D01*
X141993777Y-103468221D02*
X139696998Y-105765000D01*
X143561779Y-103468221D02*
X141993777Y-103468221D01*
X141300000Y-97630000D02*
X140363430Y-98336570D01*
X140363430Y-98336570D02*
X135500000Y-99700000D01*
X143780000Y-99964974D02*
X142990000Y-100754974D01*
X143780000Y-99470000D02*
X143780000Y-99964974D01*
X140383396Y-104495000D02*
X138930000Y-104495000D01*
X142990000Y-101888396D02*
X140383396Y-104495000D01*
X142990000Y-100754974D02*
X142990000Y-101888396D01*
X144775000Y-101120000D02*
X145250000Y-101120000D01*
X144034980Y-101860020D02*
X144775000Y-101120000D01*
X144034980Y-106899424D02*
X144034980Y-101860020D01*
X144680566Y-107545010D02*
X144034980Y-106899424D01*
X145845010Y-106579990D02*
X145845010Y-107259434D01*
X145845010Y-107259434D02*
X145559434Y-107545010D01*
X146425000Y-106000000D02*
X145845010Y-106579990D01*
X145559434Y-107545010D02*
X144680566Y-107545010D01*
X146800000Y-106000000D02*
X146425000Y-106000000D01*
X148970000Y-98165000D02*
X148970000Y-98895000D01*
X144524990Y-98880566D02*
X145290557Y-98114999D01*
X148919999Y-98114999D02*
X148970000Y-98165000D01*
X145290557Y-98114999D02*
X148919999Y-98114999D01*
X144524990Y-99869990D02*
X144524990Y-98880566D01*
X145250000Y-100595000D02*
X144524990Y-99869990D01*
X145250000Y-101120000D02*
X145250000Y-100595000D01*
X147360000Y-97010000D02*
X147360000Y-98114999D01*
X149375000Y-105375000D02*
X149925000Y-105375000D01*
X149200000Y-105200000D02*
X149375000Y-105375000D01*
X149925000Y-106295000D02*
X150395000Y-106765000D01*
X150395000Y-106765000D02*
X150870000Y-106765000D01*
X149925000Y-105375000D02*
X149925000Y-106295000D01*
X149025000Y-105025000D02*
X149200000Y-105200000D01*
X148972686Y-105025000D02*
X149025000Y-105025000D01*
X148574990Y-104627304D02*
X148972686Y-105025000D01*
X148574990Y-104004990D02*
X148574990Y-104627304D01*
X148140000Y-103170000D02*
X148574990Y-104004990D01*
X150175000Y-104400000D02*
X149200000Y-104400000D01*
X150870000Y-105095000D02*
X150175000Y-104400000D01*
X149825010Y-103295010D02*
X149340000Y-102810000D01*
X149575000Y-104400000D02*
X149825010Y-104149990D01*
X149825010Y-104149990D02*
X149825010Y-103295010D01*
X149200000Y-104400000D02*
X149575000Y-104400000D01*
X146425000Y-104400000D02*
X146800000Y-104400000D01*
X145685000Y-104400000D02*
X146425000Y-104400000D01*
X145110000Y-103825000D02*
X145685000Y-104400000D01*
X145110000Y-103300000D02*
X145110000Y-103825000D01*
X147800000Y-104400000D02*
X147830000Y-104370000D01*
X146800000Y-104400000D02*
X147800000Y-104400000D01*
X134880000Y-96090000D02*
X133220000Y-93680000D01*
X139430000Y-96080000D02*
X134880000Y-96090000D01*
X156165000Y-115985000D02*
X160650000Y-111500000D01*
X152900000Y-116000000D02*
X156165000Y-115985000D01*
D18*
X150100000Y-124300000D02*
X150800000Y-124300000D01*
X150800000Y-124300000D02*
X151300000Y-124800000D01*
X151300000Y-124800000D02*
X154100000Y-124800000D01*
X156200000Y-122700000D02*
X156200000Y-117500000D01*
X154100000Y-124800000D02*
X156200000Y-122700000D01*
D17*
X133520000Y-100860000D02*
X133330000Y-101050000D01*
X139260000Y-100850000D02*
X133520000Y-100860000D01*
X141113429Y-98936571D02*
X139250000Y-100850000D01*
X142423429Y-98936571D02*
X141113429Y-98936571D01*
X145680000Y-95680000D02*
X142423429Y-98936571D01*
D20*
X131370000Y-101050000D02*
X133330000Y-101050000D01*
D17*
X131370000Y-107790000D02*
X133500000Y-105660000D01*
X131370000Y-110950000D02*
X131370000Y-107790000D01*
X139970001Y-106499999D02*
X140510000Y-105960000D01*
X136069999Y-106499999D02*
X139970001Y-106499999D01*
X135720000Y-106150000D02*
X136069999Y-106499999D01*
D20*
X131370000Y-110950000D02*
X133330000Y-110950000D01*
X162690000Y-110400000D02*
X164650000Y-110400000D01*
D17*
X152240000Y-105850000D02*
X153700000Y-107310000D01*
X153700000Y-107310000D02*
X153700000Y-108600000D01*
X160940000Y-108600000D02*
X162740000Y-110400000D01*
X153700000Y-108600000D02*
X160940000Y-108600000D01*
X164633000Y-96550000D02*
X164508000Y-96550000D01*
X165110000Y-95260000D02*
X164633000Y-96550000D01*
X165100000Y-93218000D02*
X165110000Y-95260000D01*
X164320000Y-92110000D02*
X165100000Y-93218000D01*
X155530000Y-92120000D02*
X164320000Y-92110000D01*
X152500000Y-95220000D02*
X155530000Y-92120000D01*
X152556565Y-96738309D02*
X152500000Y-95220000D01*
X152700001Y-96881745D02*
X152556565Y-96738309D01*
X152700001Y-101569999D02*
X152700001Y-96881745D01*
X152120000Y-102150000D02*
X152700001Y-101569999D01*
D20*
X162690000Y-96550000D02*
X164508000Y-96550000D01*
D17*
X150790000Y-100595000D02*
X150790000Y-101120000D01*
X150509999Y-100314999D02*
X150790000Y-100595000D01*
X149014999Y-100314999D02*
X150509999Y-100314999D01*
X147595000Y-98895000D02*
X149014999Y-100314999D01*
X147070000Y-98895000D02*
X147595000Y-98895000D01*
X149870000Y-88850000D02*
X153550000Y-92530000D01*
X144860000Y-88850000D02*
X149870000Y-88850000D01*
X138889999Y-112680001D02*
X141420000Y-110330000D01*
X138549999Y-112680001D02*
X138889999Y-112680001D01*
X138200000Y-113030000D02*
X138549999Y-112680001D01*
X145408457Y-110330000D02*
X145489851Y-110411394D01*
X141420000Y-110330000D02*
X145408457Y-110330000D01*
X144999999Y-113361999D02*
X146100000Y-112300000D01*
X144999999Y-116438001D02*
X144999999Y-113361999D01*
X148161999Y-119600001D02*
X144999999Y-116438001D01*
X149300001Y-119600001D02*
X148161999Y-119600001D01*
X149650000Y-119950000D02*
X149300001Y-119600001D01*
X147100000Y-112300000D02*
X148350000Y-111050000D01*
X146100000Y-112300000D02*
X147100000Y-112300000D01*
X144649989Y-118249989D02*
X146400000Y-120000000D01*
X144649989Y-113217021D02*
X144649989Y-118249989D01*
X145950000Y-111450000D02*
X144649989Y-113217021D01*
X146550000Y-111450000D02*
X146600000Y-111400000D01*
X145950000Y-111450000D02*
X146550000Y-111450000D01*
D22*
G36*
X161720820Y-111639502D02*
G01*
X161840518Y-111675812D01*
X161965000Y-111688072D01*
X163515000Y-111688072D01*
X163546192Y-111685000D01*
X163893808Y-111685000D01*
X163925000Y-111688072D01*
X165340001Y-111688072D01*
X165340001Y-113612776D01*
X164985750Y-113615000D01*
X164827000Y-113773750D01*
X164827000Y-114773000D01*
X164847000Y-114773000D01*
X164847000Y-115027000D01*
X164827000Y-115027000D01*
X164827000Y-116026250D01*
X164985750Y-116185000D01*
X165340001Y-116187224D01*
X165340001Y-117976647D01*
X165265137Y-119033982D01*
X165046968Y-120047336D01*
X164688195Y-121019833D01*
X164195970Y-121932086D01*
X163580123Y-122765876D01*
X162852934Y-123504578D01*
X162028927Y-124133441D01*
X161124516Y-124639935D01*
X160345993Y-124941123D01*
X160355537Y-124929494D01*
X160414502Y-124819180D01*
X160450812Y-124699482D01*
X160463072Y-124575000D01*
X160463072Y-123225000D01*
X160450812Y-123100518D01*
X160414502Y-122980820D01*
X160355537Y-122870506D01*
X160276185Y-122773815D01*
X160179494Y-122694463D01*
X160069180Y-122635498D01*
X159949482Y-122599188D01*
X159825000Y-122586928D01*
X158475000Y-122586928D01*
X158350518Y-122599188D01*
X158230820Y-122635498D01*
X158120506Y-122694463D01*
X158023815Y-122773815D01*
X157946881Y-122867559D01*
X157813629Y-122770527D01*
X157580528Y-122662762D01*
X157479400Y-122632090D01*
X157277000Y-122755776D01*
X157277000Y-123773000D01*
X157297000Y-123773000D01*
X157297000Y-124027000D01*
X157277000Y-124027000D01*
X157277000Y-125044224D01*
X157479400Y-125167910D01*
X157580528Y-125137238D01*
X157813629Y-125029473D01*
X157946881Y-124932441D01*
X158023815Y-125026185D01*
X158120506Y-125105537D01*
X158230820Y-125164502D01*
X158350518Y-125200812D01*
X158475000Y-125213072D01*
X159298665Y-125213072D01*
X159147976Y-125248000D01*
X158094555Y-125339237D01*
X157997362Y-125340000D01*
X154640002Y-125340000D01*
X154663804Y-125310998D01*
X155947800Y-124027002D01*
X156004914Y-124027002D01*
X155882085Y-124229401D01*
X155970711Y-124470430D01*
X156104656Y-124689537D01*
X156278773Y-124878303D01*
X156486371Y-125029473D01*
X156719472Y-125137238D01*
X156820600Y-125167910D01*
X157023000Y-125044224D01*
X157023000Y-124027000D01*
X157003000Y-124027000D01*
X157003000Y-123773000D01*
X157023000Y-123773000D01*
X157023000Y-122755776D01*
X156961862Y-122718415D01*
X156963676Y-122700001D01*
X156960000Y-122662678D01*
X156960000Y-118133000D01*
X156965099Y-118127901D01*
X157072896Y-117966572D01*
X157147147Y-117787314D01*
X157185000Y-117597014D01*
X157185000Y-117402986D01*
X157147147Y-117212686D01*
X157072896Y-117033428D01*
X156965099Y-116872099D01*
X156827901Y-116734901D01*
X156666572Y-116627104D01*
X156583546Y-116592713D01*
X156632617Y-116552063D01*
X156659193Y-116530253D01*
X156660389Y-116529057D01*
X156689631Y-116504833D01*
X156711450Y-116477996D01*
X157639446Y-115550000D01*
X161326928Y-115550000D01*
X161339188Y-115674482D01*
X161375498Y-115794180D01*
X161434463Y-115904494D01*
X161513815Y-116001185D01*
X161610506Y-116080537D01*
X161720820Y-116139502D01*
X161840518Y-116175812D01*
X161965000Y-116188072D01*
X162454250Y-116185000D01*
X162613000Y-116026250D01*
X162613000Y-115027000D01*
X162867000Y-115027000D01*
X162867000Y-116026250D01*
X163025750Y-116185000D01*
X163515000Y-116188072D01*
X163639482Y-116175812D01*
X163720000Y-116151387D01*
X163800518Y-116175812D01*
X163925000Y-116188072D01*
X164414250Y-116185000D01*
X164573000Y-116026250D01*
X164573000Y-115027000D01*
X162867000Y-115027000D01*
X162613000Y-115027000D01*
X161488750Y-115027000D01*
X161330000Y-115185750D01*
X161326928Y-115550000D01*
X157639446Y-115550000D01*
X158939446Y-114250000D01*
X161326928Y-114250000D01*
X161330000Y-114614250D01*
X161488750Y-114773000D01*
X162613000Y-114773000D01*
X162613000Y-113773750D01*
X162867000Y-113773750D01*
X162867000Y-114773000D01*
X164573000Y-114773000D01*
X164573000Y-113773750D01*
X164414250Y-113615000D01*
X163925000Y-113611928D01*
X163800518Y-113624188D01*
X163720000Y-113648613D01*
X163639482Y-113624188D01*
X163515000Y-113611928D01*
X163025750Y-113615000D01*
X162867000Y-113773750D01*
X162613000Y-113773750D01*
X162454250Y-113615000D01*
X161965000Y-113611928D01*
X161840518Y-113624188D01*
X161720820Y-113660498D01*
X161610506Y-113719463D01*
X161513815Y-113798815D01*
X161434463Y-113895506D01*
X161375498Y-114005820D01*
X161339188Y-114125518D01*
X161326928Y-114250000D01*
X158939446Y-114250000D01*
X160704447Y-112485000D01*
X160747014Y-112485000D01*
X160937314Y-112447147D01*
X161116572Y-112372896D01*
X161277901Y-112265099D01*
X161415099Y-112127901D01*
X161522896Y-111966572D01*
X161597147Y-111787314D01*
X161635000Y-111597014D01*
X161635000Y-111593630D01*
X161720820Y-111639502D01*
G37*
X161720820Y-111639502D02*
X161840518Y-111675812D01*
X161965000Y-111688072D01*
X163515000Y-111688072D01*
X163546192Y-111685000D01*
X163893808Y-111685000D01*
X163925000Y-111688072D01*
X165340001Y-111688072D01*
X165340001Y-113612776D01*
X164985750Y-113615000D01*
X164827000Y-113773750D01*
X164827000Y-114773000D01*
X164847000Y-114773000D01*
X164847000Y-115027000D01*
X164827000Y-115027000D01*
X164827000Y-116026250D01*
X164985750Y-116185000D01*
X165340001Y-116187224D01*
X165340001Y-117976647D01*
X165265137Y-119033982D01*
X165046968Y-120047336D01*
X164688195Y-121019833D01*
X164195970Y-121932086D01*
X163580123Y-122765876D01*
X162852934Y-123504578D01*
X162028927Y-124133441D01*
X161124516Y-124639935D01*
X160345993Y-124941123D01*
X160355537Y-124929494D01*
X160414502Y-124819180D01*
X160450812Y-124699482D01*
X160463072Y-124575000D01*
X160463072Y-123225000D01*
X160450812Y-123100518D01*
X160414502Y-122980820D01*
X160355537Y-122870506D01*
X160276185Y-122773815D01*
X160179494Y-122694463D01*
X160069180Y-122635498D01*
X159949482Y-122599188D01*
X159825000Y-122586928D01*
X158475000Y-122586928D01*
X158350518Y-122599188D01*
X158230820Y-122635498D01*
X158120506Y-122694463D01*
X158023815Y-122773815D01*
X157946881Y-122867559D01*
X157813629Y-122770527D01*
X157580528Y-122662762D01*
X157479400Y-122632090D01*
X157277000Y-122755776D01*
X157277000Y-123773000D01*
X157297000Y-123773000D01*
X157297000Y-124027000D01*
X157277000Y-124027000D01*
X157277000Y-125044224D01*
X157479400Y-125167910D01*
X157580528Y-125137238D01*
X157813629Y-125029473D01*
X157946881Y-124932441D01*
X158023815Y-125026185D01*
X158120506Y-125105537D01*
X158230820Y-125164502D01*
X158350518Y-125200812D01*
X158475000Y-125213072D01*
X159298665Y-125213072D01*
X159147976Y-125248000D01*
X158094555Y-125339237D01*
X157997362Y-125340000D01*
X154640002Y-125340000D01*
X154663804Y-125310998D01*
X155947800Y-124027002D01*
X156004914Y-124027002D01*
X155882085Y-124229401D01*
X155970711Y-124470430D01*
X156104656Y-124689537D01*
X156278773Y-124878303D01*
X156486371Y-125029473D01*
X156719472Y-125137238D01*
X156820600Y-125167910D01*
X157023000Y-125044224D01*
X157023000Y-124027000D01*
X157003000Y-124027000D01*
X157003000Y-123773000D01*
X157023000Y-123773000D01*
X157023000Y-122755776D01*
X156961862Y-122718415D01*
X156963676Y-122700001D01*
X156960000Y-122662678D01*
X156960000Y-118133000D01*
X156965099Y-118127901D01*
X157072896Y-117966572D01*
X157147147Y-117787314D01*
X157185000Y-117597014D01*
X157185000Y-117402986D01*
X157147147Y-117212686D01*
X157072896Y-117033428D01*
X156965099Y-116872099D01*
X156827901Y-116734901D01*
X156666572Y-116627104D01*
X156583546Y-116592713D01*
X156632617Y-116552063D01*
X156659193Y-116530253D01*
X156660389Y-116529057D01*
X156689631Y-116504833D01*
X156711450Y-116477996D01*
X157639446Y-115550000D01*
X161326928Y-115550000D01*
X161339188Y-115674482D01*
X161375498Y-115794180D01*
X161434463Y-115904494D01*
X161513815Y-116001185D01*
X161610506Y-116080537D01*
X161720820Y-116139502D01*
X161840518Y-116175812D01*
X161965000Y-116188072D01*
X162454250Y-116185000D01*
X162613000Y-116026250D01*
X162613000Y-115027000D01*
X162867000Y-115027000D01*
X162867000Y-116026250D01*
X163025750Y-116185000D01*
X163515000Y-116188072D01*
X163639482Y-116175812D01*
X163720000Y-116151387D01*
X163800518Y-116175812D01*
X163925000Y-116188072D01*
X164414250Y-116185000D01*
X164573000Y-116026250D01*
X164573000Y-115027000D01*
X162867000Y-115027000D01*
X162613000Y-115027000D01*
X161488750Y-115027000D01*
X161330000Y-115185750D01*
X161326928Y-115550000D01*
X157639446Y-115550000D01*
X158939446Y-114250000D01*
X161326928Y-114250000D01*
X161330000Y-114614250D01*
X161488750Y-114773000D01*
X162613000Y-114773000D01*
X162613000Y-113773750D01*
X162867000Y-113773750D01*
X162867000Y-114773000D01*
X164573000Y-114773000D01*
X164573000Y-113773750D01*
X164414250Y-113615000D01*
X163925000Y-113611928D01*
X163800518Y-113624188D01*
X163720000Y-113648613D01*
X163639482Y-113624188D01*
X163515000Y-113611928D01*
X163025750Y-113615000D01*
X162867000Y-113773750D01*
X162613000Y-113773750D01*
X162454250Y-113615000D01*
X161965000Y-113611928D01*
X161840518Y-113624188D01*
X161720820Y-113660498D01*
X161610506Y-113719463D01*
X161513815Y-113798815D01*
X161434463Y-113895506D01*
X161375498Y-114005820D01*
X161339188Y-114125518D01*
X161326928Y-114250000D01*
X158939446Y-114250000D01*
X160704447Y-112485000D01*
X160747014Y-112485000D01*
X160937314Y-112447147D01*
X161116572Y-112372896D01*
X161277901Y-112265099D01*
X161415099Y-112127901D01*
X161522896Y-111966572D01*
X161597147Y-111787314D01*
X161635000Y-111597014D01*
X161635000Y-111593630D01*
X161720820Y-111639502D01*
G36*
X134954901Y-106777901D02*
G01*
X135092099Y-106915099D01*
X135253428Y-107022896D01*
X135432686Y-107097147D01*
X135622986Y-107135000D01*
X135698806Y-107135000D01*
X135787366Y-107182336D01*
X135925914Y-107224364D01*
X136033894Y-107234999D01*
X136033903Y-107234999D01*
X136069998Y-107238554D01*
X136106093Y-107234999D01*
X139528577Y-107234999D01*
X139562853Y-107407314D01*
X139637104Y-107586572D01*
X139744901Y-107747901D01*
X139882099Y-107885099D01*
X140043428Y-107992896D01*
X140222686Y-108067147D01*
X140412986Y-108105000D01*
X140607014Y-108105000D01*
X140797314Y-108067147D01*
X140976572Y-107992896D01*
X141137901Y-107885099D01*
X141168000Y-107855000D01*
X141622963Y-107855000D01*
X141624901Y-107857901D01*
X141762099Y-107995099D01*
X141923428Y-108102896D01*
X142102686Y-108177147D01*
X142292986Y-108215000D01*
X142335554Y-108215000D01*
X143075544Y-108954991D01*
X139898240Y-108954991D01*
X139826572Y-108907104D01*
X139647314Y-108832853D01*
X139457014Y-108795000D01*
X139262986Y-108795000D01*
X139072686Y-108832853D01*
X138893428Y-108907104D01*
X138732099Y-109014901D01*
X138594901Y-109152099D01*
X138487104Y-109313428D01*
X138412853Y-109492686D01*
X138375000Y-109682986D01*
X138375000Y-109877014D01*
X138412853Y-110067314D01*
X138487104Y-110246572D01*
X138594901Y-110407901D01*
X138732099Y-110545099D01*
X138893428Y-110652896D01*
X139072686Y-110727147D01*
X139262986Y-110765000D01*
X139457014Y-110765000D01*
X139647314Y-110727147D01*
X139826572Y-110652896D01*
X139987901Y-110545099D01*
X140108009Y-110424991D01*
X140237744Y-110424991D01*
X138601309Y-111945001D01*
X138586093Y-111945001D01*
X138549998Y-111941446D01*
X138513903Y-111945001D01*
X138513894Y-111945001D01*
X138405914Y-111955636D01*
X138267366Y-111997664D01*
X138178806Y-112045000D01*
X138102986Y-112045000D01*
X137912686Y-112082853D01*
X137733428Y-112157104D01*
X137572099Y-112264901D01*
X137434901Y-112402099D01*
X137327104Y-112563428D01*
X137252853Y-112742686D01*
X137215000Y-112932986D01*
X137215000Y-113127014D01*
X137252853Y-113317314D01*
X137327104Y-113496572D01*
X137434901Y-113657901D01*
X137572099Y-113795099D01*
X137733428Y-113902896D01*
X137912686Y-113977147D01*
X138102986Y-114015000D01*
X138297014Y-114015000D01*
X138487314Y-113977147D01*
X138666572Y-113902896D01*
X138827901Y-113795099D01*
X138965099Y-113657901D01*
X139072896Y-113496572D01*
X139121567Y-113379070D01*
X139147289Y-113372292D01*
X139159562Y-113366303D01*
X139172632Y-113362338D01*
X139224533Y-113334597D01*
X139277404Y-113308795D01*
X139288271Y-113300528D01*
X139300319Y-113294088D01*
X139345813Y-113256752D01*
X139363758Y-113243100D01*
X139373698Y-113233868D01*
X139412237Y-113202239D01*
X139426630Y-113184701D01*
X139645724Y-112981195D01*
X139662854Y-113067314D01*
X139737105Y-113246572D01*
X139844902Y-113407901D01*
X139982100Y-113545099D01*
X140143429Y-113652896D01*
X140322687Y-113727147D01*
X140512987Y-113765000D01*
X140707015Y-113765000D01*
X140897315Y-113727147D01*
X141076573Y-113652896D01*
X141237902Y-113545099D01*
X141360125Y-113422876D01*
X141315677Y-120490164D01*
X141094233Y-120268721D01*
X141072147Y-120157686D01*
X140997896Y-119978428D01*
X140890099Y-119817099D01*
X140752901Y-119679901D01*
X140591572Y-119572104D01*
X140412314Y-119497853D01*
X140222014Y-119460000D01*
X140027986Y-119460000D01*
X139837686Y-119497853D01*
X139658428Y-119572104D01*
X139497099Y-119679901D01*
X139359901Y-119817099D01*
X139252104Y-119978428D01*
X139177853Y-120157686D01*
X139140000Y-120347986D01*
X139140000Y-120542014D01*
X139177853Y-120732314D01*
X139252104Y-120911572D01*
X139359901Y-121072901D01*
X139497099Y-121210099D01*
X139658428Y-121317896D01*
X139837686Y-121392147D01*
X139948721Y-121414233D01*
X141104106Y-122569619D01*
X141129473Y-122600529D01*
X141167995Y-122632143D01*
X141252811Y-122701750D01*
X141310478Y-122732573D01*
X141393528Y-122776964D01*
X141546213Y-122823281D01*
X141665210Y-122835001D01*
X141665213Y-122835001D01*
X141705001Y-122838920D01*
X141744789Y-122835001D01*
X142545000Y-122835001D01*
X142545000Y-123098000D01*
X143553000Y-123098000D01*
X143553000Y-123078000D01*
X143807000Y-123078000D01*
X143807000Y-123098000D01*
X144815000Y-123098000D01*
X144815000Y-122835001D01*
X145065647Y-122835001D01*
X145048815Y-122848815D01*
X144969463Y-122945506D01*
X144910498Y-123055820D01*
X144874188Y-123175518D01*
X144861928Y-123300000D01*
X144865000Y-124014250D01*
X145023750Y-124173000D01*
X145773000Y-124173000D01*
X145773000Y-124153000D01*
X146027000Y-124153000D01*
X146027000Y-124173000D01*
X146776250Y-124173000D01*
X146935000Y-124014250D01*
X146938072Y-123300000D01*
X146925812Y-123175518D01*
X146889502Y-123055820D01*
X146830537Y-122945506D01*
X146751185Y-122848815D01*
X146734353Y-122835001D01*
X149395605Y-122835001D01*
X149307394Y-122907394D01*
X149203169Y-123034392D01*
X149125722Y-123179284D01*
X149078031Y-123336500D01*
X149061928Y-123500000D01*
X149061928Y-125100000D01*
X149078031Y-125263500D01*
X149101237Y-125340000D01*
X146934132Y-125340000D01*
X146938072Y-125300000D01*
X146935000Y-124585750D01*
X146776250Y-124427000D01*
X146027000Y-124427000D01*
X146027000Y-124447000D01*
X145773000Y-124447000D01*
X145773000Y-124427000D01*
X145023750Y-124427000D01*
X144865000Y-124585750D01*
X144861928Y-125300000D01*
X144865868Y-125340000D01*
X138023338Y-125340000D01*
X136966018Y-125265137D01*
X135952664Y-125046968D01*
X134980167Y-124688195D01*
X134067914Y-124195970D01*
X133234124Y-123580123D01*
X133002390Y-123352000D01*
X142545000Y-123352000D01*
X142545000Y-123652000D01*
X142591585Y-123870987D01*
X142679997Y-124076678D01*
X142806839Y-124261169D01*
X142967236Y-124417369D01*
X143155024Y-124539276D01*
X143378126Y-124619119D01*
X143553000Y-124492954D01*
X143553000Y-123352000D01*
X143807000Y-123352000D01*
X143807000Y-124492954D01*
X143981874Y-124619119D01*
X144204976Y-124539276D01*
X144392764Y-124417369D01*
X144553161Y-124261169D01*
X144680003Y-124076678D01*
X144768415Y-123870987D01*
X144815000Y-123652000D01*
X144815000Y-123352000D01*
X143807000Y-123352000D01*
X143553000Y-123352000D01*
X142545000Y-123352000D01*
X133002390Y-123352000D01*
X132495422Y-122852934D01*
X131866559Y-122028927D01*
X131360065Y-121124516D01*
X130986057Y-120157766D01*
X130752000Y-119147976D01*
X130660763Y-118094555D01*
X130660000Y-117997362D01*
X130660000Y-116737664D01*
X131084250Y-116735000D01*
X131243000Y-116576250D01*
X131243000Y-115577000D01*
X131497000Y-115577000D01*
X131497000Y-116576250D01*
X131655750Y-116735000D01*
X132145000Y-116738072D01*
X132269482Y-116725812D01*
X132350000Y-116701387D01*
X132430518Y-116725812D01*
X132555000Y-116738072D01*
X133044250Y-116735000D01*
X133203000Y-116576250D01*
X133203000Y-115577000D01*
X133457000Y-115577000D01*
X133457000Y-116576250D01*
X133615750Y-116735000D01*
X134105000Y-116738072D01*
X134229482Y-116725812D01*
X134349180Y-116689502D01*
X134459494Y-116630537D01*
X134556185Y-116551185D01*
X134635537Y-116454494D01*
X134694502Y-116344180D01*
X134730812Y-116224482D01*
X134743072Y-116100000D01*
X134740000Y-115735750D01*
X134581250Y-115577000D01*
X133457000Y-115577000D01*
X133203000Y-115577000D01*
X131497000Y-115577000D01*
X131243000Y-115577000D01*
X131223000Y-115577000D01*
X131223000Y-115323000D01*
X131243000Y-115323000D01*
X131243000Y-114323750D01*
X131497000Y-114323750D01*
X131497000Y-115323000D01*
X133203000Y-115323000D01*
X133203000Y-114323750D01*
X133457000Y-114323750D01*
X133457000Y-115323000D01*
X134581250Y-115323000D01*
X134740000Y-115164250D01*
X134743072Y-114800000D01*
X134730812Y-114675518D01*
X134694502Y-114555820D01*
X134635537Y-114445506D01*
X134556185Y-114348815D01*
X134459494Y-114269463D01*
X134349180Y-114210498D01*
X134229482Y-114174188D01*
X134105000Y-114161928D01*
X133615750Y-114165000D01*
X133457000Y-114323750D01*
X133203000Y-114323750D01*
X133044250Y-114165000D01*
X132555000Y-114161928D01*
X132430518Y-114174188D01*
X132350000Y-114198613D01*
X132269482Y-114174188D01*
X132145000Y-114161928D01*
X131655750Y-114165000D01*
X131497000Y-114323750D01*
X131243000Y-114323750D01*
X131084250Y-114165000D01*
X130660000Y-114162336D01*
X130660000Y-112238072D01*
X132145000Y-112238072D01*
X132176192Y-112235000D01*
X132523808Y-112235000D01*
X132555000Y-112238072D01*
X134105000Y-112238072D01*
X134229482Y-112225812D01*
X134349180Y-112189502D01*
X134459494Y-112130537D01*
X134556185Y-112051185D01*
X134635537Y-111954494D01*
X134694502Y-111844180D01*
X134730812Y-111724482D01*
X134743072Y-111600000D01*
X134743072Y-111327000D01*
X136890000Y-111327000D01*
X136913867Y-111324737D01*
X136937743Y-111317684D01*
X136959785Y-111306109D01*
X136979145Y-111290456D01*
X136995079Y-111271326D01*
X137006975Y-111249456D01*
X137014376Y-111225685D01*
X137016997Y-111200927D01*
X137036997Y-108460927D01*
X137034560Y-108435224D01*
X137027333Y-108411399D01*
X137015597Y-108389443D01*
X136999803Y-108370197D01*
X136980557Y-108354403D01*
X136958601Y-108342667D01*
X136934776Y-108335440D01*
X136910000Y-108333000D01*
X134260000Y-108333000D01*
X134234312Y-108335625D01*
X134210541Y-108343026D01*
X134188671Y-108354923D01*
X134169542Y-108370858D01*
X134153889Y-108390218D01*
X134142314Y-108412260D01*
X134135262Y-108436137D01*
X134133003Y-108460930D01*
X134141828Y-109665555D01*
X134105000Y-109661928D01*
X132555000Y-109661928D01*
X132523808Y-109665000D01*
X132176192Y-109665000D01*
X132145000Y-109661928D01*
X132105000Y-109661928D01*
X132105000Y-108428000D01*
X132202099Y-108525099D01*
X132363428Y-108632896D01*
X132542686Y-108707147D01*
X132732986Y-108745000D01*
X132927014Y-108745000D01*
X133117314Y-108707147D01*
X133296572Y-108632896D01*
X133457901Y-108525099D01*
X133595099Y-108387901D01*
X133702896Y-108226572D01*
X133777147Y-108047314D01*
X133815000Y-107857014D01*
X133815000Y-107814446D01*
X134854197Y-106775250D01*
X134882237Y-106752238D01*
X134905250Y-106724197D01*
X134905253Y-106724194D01*
X134912839Y-106714951D01*
X134954901Y-106777901D01*
G37*
X134954901Y-106777901D02*
X135092099Y-106915099D01*
X135253428Y-107022896D01*
X135432686Y-107097147D01*
X135622986Y-107135000D01*
X135698806Y-107135000D01*
X135787366Y-107182336D01*
X135925914Y-107224364D01*
X136033894Y-107234999D01*
X136033903Y-107234999D01*
X136069998Y-107238554D01*
X136106093Y-107234999D01*
X139528577Y-107234999D01*
X139562853Y-107407314D01*
X139637104Y-107586572D01*
X139744901Y-107747901D01*
X139882099Y-107885099D01*
X140043428Y-107992896D01*
X140222686Y-108067147D01*
X140412986Y-108105000D01*
X140607014Y-108105000D01*
X140797314Y-108067147D01*
X140976572Y-107992896D01*
X141137901Y-107885099D01*
X141168000Y-107855000D01*
X141622963Y-107855000D01*
X141624901Y-107857901D01*
X141762099Y-107995099D01*
X141923428Y-108102896D01*
X142102686Y-108177147D01*
X142292986Y-108215000D01*
X142335554Y-108215000D01*
X143075544Y-108954991D01*
X139898240Y-108954991D01*
X139826572Y-108907104D01*
X139647314Y-108832853D01*
X139457014Y-108795000D01*
X139262986Y-108795000D01*
X139072686Y-108832853D01*
X138893428Y-108907104D01*
X138732099Y-109014901D01*
X138594901Y-109152099D01*
X138487104Y-109313428D01*
X138412853Y-109492686D01*
X138375000Y-109682986D01*
X138375000Y-109877014D01*
X138412853Y-110067314D01*
X138487104Y-110246572D01*
X138594901Y-110407901D01*
X138732099Y-110545099D01*
X138893428Y-110652896D01*
X139072686Y-110727147D01*
X139262986Y-110765000D01*
X139457014Y-110765000D01*
X139647314Y-110727147D01*
X139826572Y-110652896D01*
X139987901Y-110545099D01*
X140108009Y-110424991D01*
X140237744Y-110424991D01*
X138601309Y-111945001D01*
X138586093Y-111945001D01*
X138549998Y-111941446D01*
X138513903Y-111945001D01*
X138513894Y-111945001D01*
X138405914Y-111955636D01*
X138267366Y-111997664D01*
X138178806Y-112045000D01*
X138102986Y-112045000D01*
X137912686Y-112082853D01*
X137733428Y-112157104D01*
X137572099Y-112264901D01*
X137434901Y-112402099D01*
X137327104Y-112563428D01*
X137252853Y-112742686D01*
X137215000Y-112932986D01*
X137215000Y-113127014D01*
X137252853Y-113317314D01*
X137327104Y-113496572D01*
X137434901Y-113657901D01*
X137572099Y-113795099D01*
X137733428Y-113902896D01*
X137912686Y-113977147D01*
X138102986Y-114015000D01*
X138297014Y-114015000D01*
X138487314Y-113977147D01*
X138666572Y-113902896D01*
X138827901Y-113795099D01*
X138965099Y-113657901D01*
X139072896Y-113496572D01*
X139121567Y-113379070D01*
X139147289Y-113372292D01*
X139159562Y-113366303D01*
X139172632Y-113362338D01*
X139224533Y-113334597D01*
X139277404Y-113308795D01*
X139288271Y-113300528D01*
X139300319Y-113294088D01*
X139345813Y-113256752D01*
X139363758Y-113243100D01*
X139373698Y-113233868D01*
X139412237Y-113202239D01*
X139426630Y-113184701D01*
X139645724Y-112981195D01*
X139662854Y-113067314D01*
X139737105Y-113246572D01*
X139844902Y-113407901D01*
X139982100Y-113545099D01*
X140143429Y-113652896D01*
X140322687Y-113727147D01*
X140512987Y-113765000D01*
X140707015Y-113765000D01*
X140897315Y-113727147D01*
X141076573Y-113652896D01*
X141237902Y-113545099D01*
X141360125Y-113422876D01*
X141315677Y-120490164D01*
X141094233Y-120268721D01*
X141072147Y-120157686D01*
X140997896Y-119978428D01*
X140890099Y-119817099D01*
X140752901Y-119679901D01*
X140591572Y-119572104D01*
X140412314Y-119497853D01*
X140222014Y-119460000D01*
X140027986Y-119460000D01*
X139837686Y-119497853D01*
X139658428Y-119572104D01*
X139497099Y-119679901D01*
X139359901Y-119817099D01*
X139252104Y-119978428D01*
X139177853Y-120157686D01*
X139140000Y-120347986D01*
X139140000Y-120542014D01*
X139177853Y-120732314D01*
X139252104Y-120911572D01*
X139359901Y-121072901D01*
X139497099Y-121210099D01*
X139658428Y-121317896D01*
X139837686Y-121392147D01*
X139948721Y-121414233D01*
X141104106Y-122569619D01*
X141129473Y-122600529D01*
X141167995Y-122632143D01*
X141252811Y-122701750D01*
X141310478Y-122732573D01*
X141393528Y-122776964D01*
X141546213Y-122823281D01*
X141665210Y-122835001D01*
X141665213Y-122835001D01*
X141705001Y-122838920D01*
X141744789Y-122835001D01*
X142545000Y-122835001D01*
X142545000Y-123098000D01*
X143553000Y-123098000D01*
X143553000Y-123078000D01*
X143807000Y-123078000D01*
X143807000Y-123098000D01*
X144815000Y-123098000D01*
X144815000Y-122835001D01*
X145065647Y-122835001D01*
X145048815Y-122848815D01*
X144969463Y-122945506D01*
X144910498Y-123055820D01*
X144874188Y-123175518D01*
X144861928Y-123300000D01*
X144865000Y-124014250D01*
X145023750Y-124173000D01*
X145773000Y-124173000D01*
X145773000Y-124153000D01*
X146027000Y-124153000D01*
X146027000Y-124173000D01*
X146776250Y-124173000D01*
X146935000Y-124014250D01*
X146938072Y-123300000D01*
X146925812Y-123175518D01*
X146889502Y-123055820D01*
X146830537Y-122945506D01*
X146751185Y-122848815D01*
X146734353Y-122835001D01*
X149395605Y-122835001D01*
X149307394Y-122907394D01*
X149203169Y-123034392D01*
X149125722Y-123179284D01*
X149078031Y-123336500D01*
X149061928Y-123500000D01*
X149061928Y-125100000D01*
X149078031Y-125263500D01*
X149101237Y-125340000D01*
X146934132Y-125340000D01*
X146938072Y-125300000D01*
X146935000Y-124585750D01*
X146776250Y-124427000D01*
X146027000Y-124427000D01*
X146027000Y-124447000D01*
X145773000Y-124447000D01*
X145773000Y-124427000D01*
X145023750Y-124427000D01*
X144865000Y-124585750D01*
X144861928Y-125300000D01*
X144865868Y-125340000D01*
X138023338Y-125340000D01*
X136966018Y-125265137D01*
X135952664Y-125046968D01*
X134980167Y-124688195D01*
X134067914Y-124195970D01*
X133234124Y-123580123D01*
X133002390Y-123352000D01*
X142545000Y-123352000D01*
X142545000Y-123652000D01*
X142591585Y-123870987D01*
X142679997Y-124076678D01*
X142806839Y-124261169D01*
X142967236Y-124417369D01*
X143155024Y-124539276D01*
X143378126Y-124619119D01*
X143553000Y-124492954D01*
X143553000Y-123352000D01*
X143807000Y-123352000D01*
X143807000Y-124492954D01*
X143981874Y-124619119D01*
X144204976Y-124539276D01*
X144392764Y-124417369D01*
X144553161Y-124261169D01*
X144680003Y-124076678D01*
X144768415Y-123870987D01*
X144815000Y-123652000D01*
X144815000Y-123352000D01*
X143807000Y-123352000D01*
X143553000Y-123352000D01*
X142545000Y-123352000D01*
X133002390Y-123352000D01*
X132495422Y-122852934D01*
X131866559Y-122028927D01*
X131360065Y-121124516D01*
X130986057Y-120157766D01*
X130752000Y-119147976D01*
X130660763Y-118094555D01*
X130660000Y-117997362D01*
X130660000Y-116737664D01*
X131084250Y-116735000D01*
X131243000Y-116576250D01*
X131243000Y-115577000D01*
X131497000Y-115577000D01*
X131497000Y-116576250D01*
X131655750Y-116735000D01*
X132145000Y-116738072D01*
X132269482Y-116725812D01*
X132350000Y-116701387D01*
X132430518Y-116725812D01*
X132555000Y-116738072D01*
X133044250Y-116735000D01*
X133203000Y-116576250D01*
X133203000Y-115577000D01*
X133457000Y-115577000D01*
X133457000Y-116576250D01*
X133615750Y-116735000D01*
X134105000Y-116738072D01*
X134229482Y-116725812D01*
X134349180Y-116689502D01*
X134459494Y-116630537D01*
X134556185Y-116551185D01*
X134635537Y-116454494D01*
X134694502Y-116344180D01*
X134730812Y-116224482D01*
X134743072Y-116100000D01*
X134740000Y-115735750D01*
X134581250Y-115577000D01*
X133457000Y-115577000D01*
X133203000Y-115577000D01*
X131497000Y-115577000D01*
X131243000Y-115577000D01*
X131223000Y-115577000D01*
X131223000Y-115323000D01*
X131243000Y-115323000D01*
X131243000Y-114323750D01*
X131497000Y-114323750D01*
X131497000Y-115323000D01*
X133203000Y-115323000D01*
X133203000Y-114323750D01*
X133457000Y-114323750D01*
X133457000Y-115323000D01*
X134581250Y-115323000D01*
X134740000Y-115164250D01*
X134743072Y-114800000D01*
X134730812Y-114675518D01*
X134694502Y-114555820D01*
X134635537Y-114445506D01*
X134556185Y-114348815D01*
X134459494Y-114269463D01*
X134349180Y-114210498D01*
X134229482Y-114174188D01*
X134105000Y-114161928D01*
X133615750Y-114165000D01*
X133457000Y-114323750D01*
X133203000Y-114323750D01*
X133044250Y-114165000D01*
X132555000Y-114161928D01*
X132430518Y-114174188D01*
X132350000Y-114198613D01*
X132269482Y-114174188D01*
X132145000Y-114161928D01*
X131655750Y-114165000D01*
X131497000Y-114323750D01*
X131243000Y-114323750D01*
X131084250Y-114165000D01*
X130660000Y-114162336D01*
X130660000Y-112238072D01*
X132145000Y-112238072D01*
X132176192Y-112235000D01*
X132523808Y-112235000D01*
X132555000Y-112238072D01*
X134105000Y-112238072D01*
X134229482Y-112225812D01*
X134349180Y-112189502D01*
X134459494Y-112130537D01*
X134556185Y-112051185D01*
X134635537Y-111954494D01*
X134694502Y-111844180D01*
X134730812Y-111724482D01*
X134743072Y-111600000D01*
X134743072Y-111327000D01*
X136890000Y-111327000D01*
X136913867Y-111324737D01*
X136937743Y-111317684D01*
X136959785Y-111306109D01*
X136979145Y-111290456D01*
X136995079Y-111271326D01*
X137006975Y-111249456D01*
X137014376Y-111225685D01*
X137016997Y-111200927D01*
X137036997Y-108460927D01*
X137034560Y-108435224D01*
X137027333Y-108411399D01*
X137015597Y-108389443D01*
X136999803Y-108370197D01*
X136980557Y-108354403D01*
X136958601Y-108342667D01*
X136934776Y-108335440D01*
X136910000Y-108333000D01*
X134260000Y-108333000D01*
X134234312Y-108335625D01*
X134210541Y-108343026D01*
X134188671Y-108354923D01*
X134169542Y-108370858D01*
X134153889Y-108390218D01*
X134142314Y-108412260D01*
X134135262Y-108436137D01*
X134133003Y-108460930D01*
X134141828Y-109665555D01*
X134105000Y-109661928D01*
X132555000Y-109661928D01*
X132523808Y-109665000D01*
X132176192Y-109665000D01*
X132145000Y-109661928D01*
X132105000Y-109661928D01*
X132105000Y-108428000D01*
X132202099Y-108525099D01*
X132363428Y-108632896D01*
X132542686Y-108707147D01*
X132732986Y-108745000D01*
X132927014Y-108745000D01*
X133117314Y-108707147D01*
X133296572Y-108632896D01*
X133457901Y-108525099D01*
X133595099Y-108387901D01*
X133702896Y-108226572D01*
X133777147Y-108047314D01*
X133815000Y-107857014D01*
X133815000Y-107814446D01*
X134854197Y-106775250D01*
X134882237Y-106752238D01*
X134905250Y-106724197D01*
X134905253Y-106724194D01*
X134912839Y-106714951D01*
X134954901Y-106777901D01*
G36*
X155572099Y-116734901D02*
G01*
X155434901Y-116872099D01*
X155327104Y-117033428D01*
X155252853Y-117212686D01*
X155215000Y-117402986D01*
X155215000Y-117597014D01*
X155252853Y-117787314D01*
X155327104Y-117966572D01*
X155434901Y-118127901D01*
X155440001Y-118133001D01*
X155440000Y-122385197D01*
X153785199Y-124040000D01*
X153335768Y-124040000D01*
X153408415Y-123870987D01*
X153455000Y-123652000D01*
X153455000Y-123352000D01*
X152447000Y-123352000D01*
X152447000Y-123372000D01*
X152193000Y-123372000D01*
X152193000Y-123352000D01*
X151185000Y-123352000D01*
X151185000Y-123644032D01*
X151138072Y-123618948D01*
X151138072Y-123500000D01*
X151121969Y-123336500D01*
X151074278Y-123179284D01*
X150996831Y-123034392D01*
X150892606Y-122907394D01*
X150804395Y-122835001D01*
X151185000Y-122835001D01*
X151185000Y-123098000D01*
X152193000Y-123098000D01*
X152193000Y-123078000D01*
X152447000Y-123078000D01*
X152447000Y-123098000D01*
X153455000Y-123098000D01*
X153455000Y-122798000D01*
X153408415Y-122579013D01*
X153320003Y-122373322D01*
X153193161Y-122188831D01*
X153124017Y-122121496D01*
X154394618Y-120850895D01*
X154425528Y-120825528D01*
X154526749Y-120702189D01*
X154601963Y-120561473D01*
X154648280Y-120408788D01*
X154660000Y-120289791D01*
X154660000Y-120289789D01*
X154663919Y-120250001D01*
X154660000Y-120210213D01*
X154660000Y-118439787D01*
X154663919Y-118399999D01*
X154652700Y-118286094D01*
X154648280Y-118241212D01*
X154601963Y-118088527D01*
X154526749Y-117947811D01*
X154425528Y-117824472D01*
X154394619Y-117799106D01*
X153427618Y-116832106D01*
X153527901Y-116765099D01*
X153561029Y-116731971D01*
X155590438Y-116722647D01*
X155572099Y-116734901D01*
G37*
X155572099Y-116734901D02*
X155434901Y-116872099D01*
X155327104Y-117033428D01*
X155252853Y-117212686D01*
X155215000Y-117402986D01*
X155215000Y-117597014D01*
X155252853Y-117787314D01*
X155327104Y-117966572D01*
X155434901Y-118127901D01*
X155440001Y-118133001D01*
X155440000Y-122385197D01*
X153785199Y-124040000D01*
X153335768Y-124040000D01*
X153408415Y-123870987D01*
X153455000Y-123652000D01*
X153455000Y-123352000D01*
X152447000Y-123352000D01*
X152447000Y-123372000D01*
X152193000Y-123372000D01*
X152193000Y-123352000D01*
X151185000Y-123352000D01*
X151185000Y-123644032D01*
X151138072Y-123618948D01*
X151138072Y-123500000D01*
X151121969Y-123336500D01*
X151074278Y-123179284D01*
X150996831Y-123034392D01*
X150892606Y-122907394D01*
X150804395Y-122835001D01*
X151185000Y-122835001D01*
X151185000Y-123098000D01*
X152193000Y-123098000D01*
X152193000Y-123078000D01*
X152447000Y-123078000D01*
X152447000Y-123098000D01*
X153455000Y-123098000D01*
X153455000Y-122798000D01*
X153408415Y-122579013D01*
X153320003Y-122373322D01*
X153193161Y-122188831D01*
X153124017Y-122121496D01*
X154394618Y-120850895D01*
X154425528Y-120825528D01*
X154526749Y-120702189D01*
X154601963Y-120561473D01*
X154648280Y-120408788D01*
X154660000Y-120289791D01*
X154660000Y-120289789D01*
X154663919Y-120250001D01*
X154660000Y-120210213D01*
X154660000Y-118439787D01*
X154663919Y-118399999D01*
X154652700Y-118286094D01*
X154648280Y-118241212D01*
X154601963Y-118088527D01*
X154526749Y-117947811D01*
X154425528Y-117824472D01*
X154394619Y-117799106D01*
X153427618Y-116832106D01*
X153527901Y-116765099D01*
X153561029Y-116731971D01*
X155590438Y-116722647D01*
X155572099Y-116734901D01*
G36*
X152447000Y-118918000D02*
G01*
X152467000Y-118918000D01*
X152467000Y-119172000D01*
X152447000Y-119172000D01*
X152447000Y-119192000D01*
X152193000Y-119192000D01*
X152193000Y-119172000D01*
X152173000Y-119172000D01*
X152173000Y-118918000D01*
X152193000Y-118918000D01*
X152193000Y-118898000D01*
X152447000Y-118898000D01*
X152447000Y-118918000D01*
G37*
X152447000Y-118918000D02*
X152467000Y-118918000D01*
X152467000Y-119172000D01*
X152447000Y-119172000D01*
X152447000Y-119192000D01*
X152193000Y-119192000D01*
X152193000Y-119172000D01*
X152173000Y-119172000D01*
X152173000Y-118918000D01*
X152193000Y-118918000D01*
X152193000Y-118898000D01*
X152447000Y-118898000D01*
X152447000Y-118918000D01*
G36*
X143914990Y-117449135D02*
G01*
X143807000Y-117527046D01*
X143807000Y-118918000D01*
X143827000Y-118918000D01*
X143827000Y-119172000D01*
X143807000Y-119172000D01*
X143807000Y-119192000D01*
X143553000Y-119192000D01*
X143553000Y-119172000D01*
X143533000Y-119172000D01*
X143533000Y-118918000D01*
X143553000Y-118918000D01*
X143553000Y-117527046D01*
X143435000Y-117441913D01*
X143435000Y-113727341D01*
X143704268Y-113485000D01*
X143797014Y-113485000D01*
X143914989Y-113461533D01*
X143914990Y-117449135D01*
G37*
X143914990Y-117449135D02*
X143807000Y-117527046D01*
X143807000Y-118918000D01*
X143827000Y-118918000D01*
X143827000Y-119172000D01*
X143807000Y-119172000D01*
X143807000Y-119192000D01*
X143553000Y-119192000D01*
X143553000Y-119172000D01*
X143533000Y-119172000D01*
X143533000Y-118918000D01*
X143553000Y-118918000D01*
X143553000Y-117527046D01*
X143435000Y-117441913D01*
X143435000Y-113727341D01*
X143704268Y-113485000D01*
X143797014Y-113485000D01*
X143914989Y-113461533D01*
X143914990Y-117449135D01*
G36*
X143145555Y-111164999D02*
G01*
X141601033Y-111164999D01*
X141708691Y-111065000D01*
X143245554Y-111065000D01*
X143145555Y-111164999D01*
G37*
X143145555Y-111164999D02*
X141601033Y-111164999D01*
X141708691Y-111065000D01*
X143245554Y-111065000D01*
X143145555Y-111164999D01*
G36*
X160662099Y-97135099D02*
G01*
X160823428Y-97242896D01*
X161002686Y-97317147D01*
X161192986Y-97355000D01*
X161298446Y-97355000D01*
X161325498Y-97444180D01*
X161384463Y-97554494D01*
X161463815Y-97651185D01*
X161560506Y-97730537D01*
X161670820Y-97789502D01*
X161790518Y-97825812D01*
X161915000Y-97838072D01*
X163465000Y-97838072D01*
X163496192Y-97835000D01*
X163701808Y-97835000D01*
X163733000Y-97838072D01*
X165283000Y-97838072D01*
X165340000Y-97832458D01*
X165340000Y-99767542D01*
X165283000Y-99761928D01*
X164793750Y-99765000D01*
X164635000Y-99923750D01*
X164635000Y-100923000D01*
X164655000Y-100923000D01*
X164655000Y-101177000D01*
X164635000Y-101177000D01*
X164635000Y-102176250D01*
X164793750Y-102335000D01*
X165283000Y-102338072D01*
X165340000Y-102332458D01*
X165340001Y-109111928D01*
X163925000Y-109111928D01*
X163893808Y-109115000D01*
X163546192Y-109115000D01*
X163515000Y-109111928D01*
X162491375Y-109111928D01*
X161485258Y-108105812D01*
X161462238Y-108077762D01*
X161350320Y-107985913D01*
X161222633Y-107917663D01*
X161084085Y-107875635D01*
X160976105Y-107865000D01*
X160940000Y-107861444D01*
X160903895Y-107865000D01*
X154435000Y-107865000D01*
X154435000Y-107346105D01*
X154438556Y-107310000D01*
X154424365Y-107165915D01*
X154408643Y-107114086D01*
X154382337Y-107027367D01*
X154314087Y-106899680D01*
X154272589Y-106849115D01*
X154245253Y-106815806D01*
X154245250Y-106815803D01*
X154222237Y-106787762D01*
X154194197Y-106764750D01*
X153225000Y-105795554D01*
X153225000Y-105752986D01*
X153187147Y-105562686D01*
X153112896Y-105383428D01*
X153005099Y-105222099D01*
X152867901Y-105084901D01*
X152706572Y-104977104D01*
X152527314Y-104902853D01*
X152337014Y-104865000D01*
X152142986Y-104865000D01*
X151983072Y-104896809D01*
X151983072Y-104807500D01*
X151966248Y-104636684D01*
X151916423Y-104472433D01*
X151835512Y-104321058D01*
X151752575Y-104220000D01*
X151835512Y-104118942D01*
X151916423Y-103967567D01*
X151966248Y-103803316D01*
X151983072Y-103632500D01*
X151983072Y-103127061D01*
X152022986Y-103135000D01*
X152217014Y-103135000D01*
X152407314Y-103097147D01*
X152586572Y-103022896D01*
X152747901Y-102915099D01*
X152885099Y-102777901D01*
X152992896Y-102616572D01*
X153067147Y-102437314D01*
X153105000Y-102247014D01*
X153105000Y-102204447D01*
X153194198Y-102115249D01*
X153222238Y-102092237D01*
X153245251Y-102064196D01*
X153245254Y-102064193D01*
X153314087Y-101980320D01*
X153314088Y-101980319D01*
X153382338Y-101852632D01*
X153424366Y-101714084D01*
X153425753Y-101700000D01*
X161276928Y-101700000D01*
X161289188Y-101824482D01*
X161325498Y-101944180D01*
X161384463Y-102054494D01*
X161463815Y-102151185D01*
X161560506Y-102230537D01*
X161670820Y-102289502D01*
X161790518Y-102325812D01*
X161915000Y-102338072D01*
X162404250Y-102335000D01*
X162563000Y-102176250D01*
X162563000Y-101177000D01*
X162817000Y-101177000D01*
X162817000Y-102176250D01*
X162975750Y-102335000D01*
X163465000Y-102338072D01*
X163589482Y-102325812D01*
X163599000Y-102322925D01*
X163608518Y-102325812D01*
X163733000Y-102338072D01*
X164222250Y-102335000D01*
X164381000Y-102176250D01*
X164381000Y-101177000D01*
X162817000Y-101177000D01*
X162563000Y-101177000D01*
X161438750Y-101177000D01*
X161280000Y-101335750D01*
X161276928Y-101700000D01*
X153425753Y-101700000D01*
X153435001Y-101606104D01*
X153435001Y-101606095D01*
X153438556Y-101570000D01*
X153435001Y-101533905D01*
X153435001Y-100400000D01*
X161276928Y-100400000D01*
X161280000Y-100764250D01*
X161438750Y-100923000D01*
X162563000Y-100923000D01*
X162563000Y-99923750D01*
X162817000Y-99923750D01*
X162817000Y-100923000D01*
X164381000Y-100923000D01*
X164381000Y-99923750D01*
X164222250Y-99765000D01*
X163733000Y-99761928D01*
X163608518Y-99774188D01*
X163599000Y-99777075D01*
X163589482Y-99774188D01*
X163465000Y-99761928D01*
X162975750Y-99765000D01*
X162817000Y-99923750D01*
X162563000Y-99923750D01*
X162404250Y-99765000D01*
X161915000Y-99761928D01*
X161790518Y-99774188D01*
X161670820Y-99810498D01*
X161560506Y-99869463D01*
X161463815Y-99948815D01*
X161384463Y-100045506D01*
X161325498Y-100155820D01*
X161289188Y-100275518D01*
X161276928Y-100400000D01*
X153435001Y-100400000D01*
X153435001Y-98945000D01*
X153537014Y-98945000D01*
X153727314Y-98907147D01*
X153906572Y-98832896D01*
X154067901Y-98725099D01*
X154135418Y-98657582D01*
X154222986Y-98675000D01*
X154417014Y-98675000D01*
X154432692Y-98671882D01*
X155246357Y-99250270D01*
X155282104Y-99336572D01*
X155389901Y-99497901D01*
X155527099Y-99635099D01*
X155688428Y-99742896D01*
X155867686Y-99817147D01*
X156057986Y-99855000D01*
X156252014Y-99855000D01*
X156442314Y-99817147D01*
X156621572Y-99742896D01*
X156782901Y-99635099D01*
X156920099Y-99497901D01*
X157027896Y-99336572D01*
X157102147Y-99157314D01*
X157140000Y-98967014D01*
X157140000Y-98772986D01*
X157102147Y-98582686D01*
X157027896Y-98403428D01*
X156920099Y-98242099D01*
X156782901Y-98104901D01*
X156621572Y-97997104D01*
X156442314Y-97922853D01*
X156252014Y-97885000D01*
X156057986Y-97885000D01*
X155905572Y-97915317D01*
X155280772Y-97471183D01*
X155267147Y-97402686D01*
X155192896Y-97223428D01*
X155142303Y-97147710D01*
X160636555Y-97109555D01*
X160662099Y-97135099D01*
G37*
X160662099Y-97135099D02*
X160823428Y-97242896D01*
X161002686Y-97317147D01*
X161192986Y-97355000D01*
X161298446Y-97355000D01*
X161325498Y-97444180D01*
X161384463Y-97554494D01*
X161463815Y-97651185D01*
X161560506Y-97730537D01*
X161670820Y-97789502D01*
X161790518Y-97825812D01*
X161915000Y-97838072D01*
X163465000Y-97838072D01*
X163496192Y-97835000D01*
X163701808Y-97835000D01*
X163733000Y-97838072D01*
X165283000Y-97838072D01*
X165340000Y-97832458D01*
X165340000Y-99767542D01*
X165283000Y-99761928D01*
X164793750Y-99765000D01*
X164635000Y-99923750D01*
X164635000Y-100923000D01*
X164655000Y-100923000D01*
X164655000Y-101177000D01*
X164635000Y-101177000D01*
X164635000Y-102176250D01*
X164793750Y-102335000D01*
X165283000Y-102338072D01*
X165340000Y-102332458D01*
X165340001Y-109111928D01*
X163925000Y-109111928D01*
X163893808Y-109115000D01*
X163546192Y-109115000D01*
X163515000Y-109111928D01*
X162491375Y-109111928D01*
X161485258Y-108105812D01*
X161462238Y-108077762D01*
X161350320Y-107985913D01*
X161222633Y-107917663D01*
X161084085Y-107875635D01*
X160976105Y-107865000D01*
X160940000Y-107861444D01*
X160903895Y-107865000D01*
X154435000Y-107865000D01*
X154435000Y-107346105D01*
X154438556Y-107310000D01*
X154424365Y-107165915D01*
X154408643Y-107114086D01*
X154382337Y-107027367D01*
X154314087Y-106899680D01*
X154272589Y-106849115D01*
X154245253Y-106815806D01*
X154245250Y-106815803D01*
X154222237Y-106787762D01*
X154194197Y-106764750D01*
X153225000Y-105795554D01*
X153225000Y-105752986D01*
X153187147Y-105562686D01*
X153112896Y-105383428D01*
X153005099Y-105222099D01*
X152867901Y-105084901D01*
X152706572Y-104977104D01*
X152527314Y-104902853D01*
X152337014Y-104865000D01*
X152142986Y-104865000D01*
X151983072Y-104896809D01*
X151983072Y-104807500D01*
X151966248Y-104636684D01*
X151916423Y-104472433D01*
X151835512Y-104321058D01*
X151752575Y-104220000D01*
X151835512Y-104118942D01*
X151916423Y-103967567D01*
X151966248Y-103803316D01*
X151983072Y-103632500D01*
X151983072Y-103127061D01*
X152022986Y-103135000D01*
X152217014Y-103135000D01*
X152407314Y-103097147D01*
X152586572Y-103022896D01*
X152747901Y-102915099D01*
X152885099Y-102777901D01*
X152992896Y-102616572D01*
X153067147Y-102437314D01*
X153105000Y-102247014D01*
X153105000Y-102204447D01*
X153194198Y-102115249D01*
X153222238Y-102092237D01*
X153245251Y-102064196D01*
X153245254Y-102064193D01*
X153314087Y-101980320D01*
X153314088Y-101980319D01*
X153382338Y-101852632D01*
X153424366Y-101714084D01*
X153425753Y-101700000D01*
X161276928Y-101700000D01*
X161289188Y-101824482D01*
X161325498Y-101944180D01*
X161384463Y-102054494D01*
X161463815Y-102151185D01*
X161560506Y-102230537D01*
X161670820Y-102289502D01*
X161790518Y-102325812D01*
X161915000Y-102338072D01*
X162404250Y-102335000D01*
X162563000Y-102176250D01*
X162563000Y-101177000D01*
X162817000Y-101177000D01*
X162817000Y-102176250D01*
X162975750Y-102335000D01*
X163465000Y-102338072D01*
X163589482Y-102325812D01*
X163599000Y-102322925D01*
X163608518Y-102325812D01*
X163733000Y-102338072D01*
X164222250Y-102335000D01*
X164381000Y-102176250D01*
X164381000Y-101177000D01*
X162817000Y-101177000D01*
X162563000Y-101177000D01*
X161438750Y-101177000D01*
X161280000Y-101335750D01*
X161276928Y-101700000D01*
X153425753Y-101700000D01*
X153435001Y-101606104D01*
X153435001Y-101606095D01*
X153438556Y-101570000D01*
X153435001Y-101533905D01*
X153435001Y-100400000D01*
X161276928Y-100400000D01*
X161280000Y-100764250D01*
X161438750Y-100923000D01*
X162563000Y-100923000D01*
X162563000Y-99923750D01*
X162817000Y-99923750D01*
X162817000Y-100923000D01*
X164381000Y-100923000D01*
X164381000Y-99923750D01*
X164222250Y-99765000D01*
X163733000Y-99761928D01*
X163608518Y-99774188D01*
X163599000Y-99777075D01*
X163589482Y-99774188D01*
X163465000Y-99761928D01*
X162975750Y-99765000D01*
X162817000Y-99923750D01*
X162563000Y-99923750D01*
X162404250Y-99765000D01*
X161915000Y-99761928D01*
X161790518Y-99774188D01*
X161670820Y-99810498D01*
X161560506Y-99869463D01*
X161463815Y-99948815D01*
X161384463Y-100045506D01*
X161325498Y-100155820D01*
X161289188Y-100275518D01*
X161276928Y-100400000D01*
X153435001Y-100400000D01*
X153435001Y-98945000D01*
X153537014Y-98945000D01*
X153727314Y-98907147D01*
X153906572Y-98832896D01*
X154067901Y-98725099D01*
X154135418Y-98657582D01*
X154222986Y-98675000D01*
X154417014Y-98675000D01*
X154432692Y-98671882D01*
X155246357Y-99250270D01*
X155282104Y-99336572D01*
X155389901Y-99497901D01*
X155527099Y-99635099D01*
X155688428Y-99742896D01*
X155867686Y-99817147D01*
X156057986Y-99855000D01*
X156252014Y-99855000D01*
X156442314Y-99817147D01*
X156621572Y-99742896D01*
X156782901Y-99635099D01*
X156920099Y-99497901D01*
X157027896Y-99336572D01*
X157102147Y-99157314D01*
X157140000Y-98967014D01*
X157140000Y-98772986D01*
X157102147Y-98582686D01*
X157027896Y-98403428D01*
X156920099Y-98242099D01*
X156782901Y-98104901D01*
X156621572Y-97997104D01*
X156442314Y-97922853D01*
X156252014Y-97885000D01*
X156057986Y-97885000D01*
X155905572Y-97915317D01*
X155280772Y-97471183D01*
X155267147Y-97402686D01*
X155192896Y-97223428D01*
X155142303Y-97147710D01*
X160636555Y-97109555D01*
X160662099Y-97135099D01*
G36*
X145110010Y-106810010D02*
G01*
X144985013Y-106810010D01*
X144973000Y-106797997D01*
X144973000Y-106643000D01*
X144993000Y-106643000D01*
X144993000Y-106623000D01*
X145110010Y-106623000D01*
X145110010Y-106810010D01*
G37*
X145110010Y-106810010D02*
X144985013Y-106810010D01*
X144973000Y-106797997D01*
X144973000Y-106643000D01*
X144993000Y-106643000D01*
X144993000Y-106623000D01*
X145110010Y-106623000D01*
X145110010Y-106810010D01*
G36*
X159033984Y-86734863D02*
G01*
X160047336Y-86953032D01*
X161019833Y-87311805D01*
X161932081Y-87804027D01*
X162765873Y-88419875D01*
X163504578Y-89147065D01*
X164133441Y-89971073D01*
X164639935Y-90875483D01*
X164993915Y-91790466D01*
X164946722Y-91723427D01*
X164933620Y-91698982D01*
X164905142Y-91664362D01*
X164900228Y-91657382D01*
X164882220Y-91636497D01*
X164841643Y-91587169D01*
X164834991Y-91581723D01*
X164829374Y-91575208D01*
X164779032Y-91535904D01*
X164729621Y-91495447D01*
X164722031Y-91491401D01*
X164715254Y-91486110D01*
X164658229Y-91457391D01*
X164601856Y-91427342D01*
X164593621Y-91424854D01*
X164585944Y-91420988D01*
X164524423Y-91403949D01*
X164463261Y-91385472D01*
X164454699Y-91384639D01*
X164446414Y-91382344D01*
X164382725Y-91377633D01*
X164355269Y-91374960D01*
X164346728Y-91374970D01*
X164302028Y-91371663D01*
X164274504Y-91375052D01*
X155561479Y-91384964D01*
X155521566Y-91381493D01*
X155453375Y-91388996D01*
X155385092Y-91395800D01*
X155381445Y-91396911D01*
X155377653Y-91397328D01*
X155312246Y-91417988D01*
X155246591Y-91437985D01*
X155243226Y-91439788D01*
X155239593Y-91440936D01*
X155179451Y-91473971D01*
X155118982Y-91506381D01*
X155116040Y-91508801D01*
X155112694Y-91510639D01*
X155060109Y-91554809D01*
X155007169Y-91598357D01*
X154981790Y-91629352D01*
X154462965Y-92160164D01*
X154422896Y-92063428D01*
X154315099Y-91902099D01*
X154177901Y-91764901D01*
X154016572Y-91657104D01*
X153837314Y-91582853D01*
X153647014Y-91545000D01*
X153604447Y-91545000D01*
X150415259Y-88355813D01*
X150392238Y-88327762D01*
X150280320Y-88235913D01*
X150152633Y-88167663D01*
X150014085Y-88125635D01*
X149906105Y-88115000D01*
X149870000Y-88111444D01*
X149833895Y-88115000D01*
X145518000Y-88115000D01*
X145487901Y-88084901D01*
X145326572Y-87977104D01*
X145147314Y-87902853D01*
X144957014Y-87865000D01*
X144762986Y-87865000D01*
X144572686Y-87902853D01*
X144393428Y-87977104D01*
X144232099Y-88084901D01*
X144094901Y-88222099D01*
X143987104Y-88383428D01*
X143912853Y-88562686D01*
X143875000Y-88752986D01*
X143875000Y-88947014D01*
X143912853Y-89137314D01*
X143987104Y-89316572D01*
X144094901Y-89477901D01*
X144232099Y-89615099D01*
X144393428Y-89722896D01*
X144572686Y-89797147D01*
X144762986Y-89835000D01*
X144957014Y-89835000D01*
X145147314Y-89797147D01*
X145326572Y-89722896D01*
X145487901Y-89615099D01*
X145518000Y-89585000D01*
X149565554Y-89585000D01*
X152565000Y-92584447D01*
X152565000Y-92627014D01*
X152602853Y-92817314D01*
X152677104Y-92996572D01*
X152784901Y-93157901D01*
X152922099Y-93295099D01*
X153083428Y-93402896D01*
X153200783Y-93451506D01*
X151992971Y-94687222D01*
X151958682Y-94717567D01*
X151920613Y-94767646D01*
X151881268Y-94816719D01*
X151876854Y-94825210D01*
X151871063Y-94832827D01*
X151843492Y-94889377D01*
X151814481Y-94945177D01*
X151811809Y-94954362D01*
X151807614Y-94962966D01*
X151791606Y-95023807D01*
X151774037Y-95084196D01*
X151773208Y-95093729D01*
X151770773Y-95102983D01*
X151766943Y-95165772D01*
X151761493Y-95228433D01*
X151766500Y-95273941D01*
X151820219Y-96715867D01*
X151818009Y-96738309D01*
X151822909Y-96788058D01*
X151823419Y-96801752D01*
X151826445Y-96823960D01*
X151832200Y-96882394D01*
X151836205Y-96895598D01*
X151838067Y-96909261D01*
X151857185Y-96964756D01*
X151874229Y-97020942D01*
X151880732Y-97033107D01*
X151885224Y-97046148D01*
X151914809Y-97096861D01*
X151942479Y-97148628D01*
X151951227Y-97159288D01*
X151958180Y-97171206D01*
X151965002Y-97178914D01*
X151965002Y-98291111D01*
X151569266Y-97895376D01*
X151522896Y-97783428D01*
X151415099Y-97622099D01*
X151277901Y-97484901D01*
X151116572Y-97377104D01*
X150937314Y-97302853D01*
X150747014Y-97265000D01*
X150552986Y-97265000D01*
X150362686Y-97302853D01*
X150270734Y-97340941D01*
X150270000Y-97295750D01*
X150111250Y-97137000D01*
X149237000Y-97137000D01*
X149237000Y-97157000D01*
X148983000Y-97157000D01*
X148983000Y-97137000D01*
X148963000Y-97137000D01*
X148963000Y-96883000D01*
X148983000Y-96883000D01*
X148983000Y-96863000D01*
X149237000Y-96863000D01*
X149237000Y-96883000D01*
X150111250Y-96883000D01*
X150270000Y-96724250D01*
X150273072Y-96535000D01*
X150260812Y-96410518D01*
X150224502Y-96290820D01*
X150165537Y-96180506D01*
X150086185Y-96083815D01*
X149989494Y-96004463D01*
X149879180Y-95945498D01*
X149759482Y-95909188D01*
X149707087Y-95904028D01*
X149747147Y-95807314D01*
X149785000Y-95617014D01*
X149785000Y-95433281D01*
X150633137Y-94305880D01*
X150727314Y-94287147D01*
X150906572Y-94212896D01*
X151067901Y-94105099D01*
X151205099Y-93967901D01*
X151312896Y-93806572D01*
X151387147Y-93627314D01*
X151425000Y-93437014D01*
X151425000Y-93242986D01*
X151387147Y-93052686D01*
X151312896Y-92873428D01*
X151205099Y-92712099D01*
X151067901Y-92574901D01*
X150906572Y-92467104D01*
X150727314Y-92392853D01*
X150537014Y-92355000D01*
X150342986Y-92355000D01*
X150152686Y-92392853D01*
X149973428Y-92467104D01*
X149812099Y-92574901D01*
X149674901Y-92712099D01*
X149567104Y-92873428D01*
X149492853Y-93052686D01*
X149455000Y-93242986D01*
X149455000Y-93426718D01*
X148606863Y-94554120D01*
X148512686Y-94572853D01*
X148333428Y-94647104D01*
X148172099Y-94754901D01*
X148034901Y-94892099D01*
X147927104Y-95053428D01*
X147852853Y-95232686D01*
X147815000Y-95422986D01*
X147815000Y-95617014D01*
X147852853Y-95807314D01*
X147908240Y-95941030D01*
X147818316Y-95913752D01*
X147647500Y-95896928D01*
X147072500Y-95896928D01*
X146901684Y-95913752D01*
X146737433Y-95963577D01*
X146597775Y-96038225D01*
X146627147Y-95967314D01*
X146665000Y-95777014D01*
X146665000Y-95582986D01*
X146627147Y-95392686D01*
X146552896Y-95213428D01*
X146445099Y-95052099D01*
X146307901Y-94914901D01*
X146146572Y-94807104D01*
X145967314Y-94732853D01*
X145777014Y-94695000D01*
X145582986Y-94695000D01*
X145392686Y-94732853D01*
X145213428Y-94807104D01*
X145052099Y-94914901D01*
X144914901Y-95052099D01*
X144807104Y-95213428D01*
X144732853Y-95392686D01*
X144695000Y-95582986D01*
X144695000Y-95625553D01*
X142118983Y-98201571D01*
X142102738Y-98201571D01*
X142172896Y-98096572D01*
X142247147Y-97917314D01*
X142285000Y-97727014D01*
X142285000Y-97532986D01*
X142247147Y-97342686D01*
X142172896Y-97163428D01*
X142065099Y-97002099D01*
X141927901Y-96864901D01*
X141766572Y-96757104D01*
X141587314Y-96682853D01*
X141397014Y-96645000D01*
X141202986Y-96645000D01*
X141012686Y-96682853D01*
X140833428Y-96757104D01*
X140672099Y-96864901D01*
X140534901Y-97002099D01*
X140427104Y-97163428D01*
X140352853Y-97342686D01*
X140333859Y-97438175D01*
X140031488Y-97666292D01*
X135935991Y-98814437D01*
X135787314Y-98752853D01*
X135597014Y-98715000D01*
X135402986Y-98715000D01*
X135212686Y-98752853D01*
X135033428Y-98827104D01*
X134872099Y-98934901D01*
X134734901Y-99072099D01*
X134627104Y-99233428D01*
X134552853Y-99412686D01*
X134515000Y-99602986D01*
X134515000Y-99797014D01*
X134543051Y-99938036D01*
X134459494Y-99869463D01*
X134349180Y-99810498D01*
X134229482Y-99774188D01*
X134105000Y-99761928D01*
X132555000Y-99761928D01*
X132523808Y-99765000D01*
X132176192Y-99765000D01*
X132145000Y-99761928D01*
X130660000Y-99761928D01*
X130660000Y-97837664D01*
X131084250Y-97835000D01*
X131243000Y-97676250D01*
X131243000Y-96677000D01*
X131497000Y-96677000D01*
X131497000Y-97676250D01*
X131655750Y-97835000D01*
X132145000Y-97838072D01*
X132269482Y-97825812D01*
X132350000Y-97801387D01*
X132430518Y-97825812D01*
X132555000Y-97838072D01*
X133044250Y-97835000D01*
X133203000Y-97676250D01*
X133203000Y-96677000D01*
X131497000Y-96677000D01*
X131243000Y-96677000D01*
X131223000Y-96677000D01*
X131223000Y-96423000D01*
X131243000Y-96423000D01*
X131243000Y-95423750D01*
X131497000Y-95423750D01*
X131497000Y-96423000D01*
X133203000Y-96423000D01*
X133203000Y-95423750D01*
X133044250Y-95265000D01*
X132555000Y-95261928D01*
X132430518Y-95274188D01*
X132350000Y-95298613D01*
X132269482Y-95274188D01*
X132145000Y-95261928D01*
X131655750Y-95265000D01*
X131497000Y-95423750D01*
X131243000Y-95423750D01*
X131084250Y-95265000D01*
X130660000Y-95262336D01*
X130660000Y-94023338D01*
X130691178Y-93582986D01*
X132235000Y-93582986D01*
X132235000Y-93777014D01*
X132272853Y-93967314D01*
X132347104Y-94146572D01*
X132454901Y-94307901D01*
X132592099Y-94445099D01*
X132753428Y-94552896D01*
X132932686Y-94627147D01*
X132987404Y-94638031D01*
X133499400Y-95381350D01*
X133457000Y-95423750D01*
X133457000Y-96423000D01*
X133477000Y-96423000D01*
X133477000Y-96677000D01*
X133457000Y-96677000D01*
X133457000Y-97676250D01*
X133615750Y-97835000D01*
X134105000Y-97838072D01*
X134229482Y-97825812D01*
X134349180Y-97789502D01*
X134459494Y-97730537D01*
X134556185Y-97651185D01*
X134635537Y-97554494D01*
X134694502Y-97444180D01*
X134730812Y-97324482D01*
X134743072Y-97200000D01*
X134740000Y-96835750D01*
X134710931Y-96806681D01*
X134737508Y-96814679D01*
X134741906Y-96815102D01*
X134746155Y-96816326D01*
X134813935Y-96822037D01*
X134845511Y-96825077D01*
X134849900Y-96825067D01*
X134890426Y-96828482D01*
X134922114Y-96824909D01*
X138773444Y-96816444D01*
X138802099Y-96845099D01*
X138963428Y-96952896D01*
X139142686Y-97027147D01*
X139332986Y-97065000D01*
X139527014Y-97065000D01*
X139717314Y-97027147D01*
X139896572Y-96952896D01*
X140057901Y-96845099D01*
X140195099Y-96707901D01*
X140302896Y-96546572D01*
X140377147Y-96367314D01*
X140415000Y-96177014D01*
X140415000Y-95982986D01*
X140377147Y-95792686D01*
X140302896Y-95613428D01*
X140195099Y-95452099D01*
X140057901Y-95314901D01*
X139896572Y-95207104D01*
X139717314Y-95132853D01*
X139527014Y-95095000D01*
X139332986Y-95095000D01*
X139142686Y-95132853D01*
X138963428Y-95207104D01*
X138802099Y-95314901D01*
X138770552Y-95346448D01*
X135265635Y-95354152D01*
X134199243Y-93805957D01*
X134205000Y-93777014D01*
X134205000Y-93582986D01*
X134167147Y-93392686D01*
X134092896Y-93213428D01*
X133985099Y-93052099D01*
X133847901Y-92914901D01*
X133686572Y-92807104D01*
X133507314Y-92732853D01*
X133317014Y-92695000D01*
X133122986Y-92695000D01*
X132932686Y-92732853D01*
X132753428Y-92807104D01*
X132592099Y-92914901D01*
X132454901Y-93052099D01*
X132347104Y-93213428D01*
X132272853Y-93392686D01*
X132235000Y-93582986D01*
X130691178Y-93582986D01*
X130734841Y-92966319D01*
X130865378Y-92360000D01*
X140177581Y-92360000D01*
X140210000Y-92363193D01*
X140242419Y-92360000D01*
X140339383Y-92350450D01*
X140463793Y-92312710D01*
X140578450Y-92251425D01*
X140678948Y-92168948D01*
X140761425Y-92068450D01*
X140822710Y-91953793D01*
X140860450Y-91829383D01*
X140873193Y-91700000D01*
X140870000Y-91667581D01*
X140870000Y-86660000D01*
X157976662Y-86660000D01*
X159033984Y-86734863D01*
G37*
X159033984Y-86734863D02*
X160047336Y-86953032D01*
X161019833Y-87311805D01*
X161932081Y-87804027D01*
X162765873Y-88419875D01*
X163504578Y-89147065D01*
X164133441Y-89971073D01*
X164639935Y-90875483D01*
X164993915Y-91790466D01*
X164946722Y-91723427D01*
X164933620Y-91698982D01*
X164905142Y-91664362D01*
X164900228Y-91657382D01*
X164882220Y-91636497D01*
X164841643Y-91587169D01*
X164834991Y-91581723D01*
X164829374Y-91575208D01*
X164779032Y-91535904D01*
X164729621Y-91495447D01*
X164722031Y-91491401D01*
X164715254Y-91486110D01*
X164658229Y-91457391D01*
X164601856Y-91427342D01*
X164593621Y-91424854D01*
X164585944Y-91420988D01*
X164524423Y-91403949D01*
X164463261Y-91385472D01*
X164454699Y-91384639D01*
X164446414Y-91382344D01*
X164382725Y-91377633D01*
X164355269Y-91374960D01*
X164346728Y-91374970D01*
X164302028Y-91371663D01*
X164274504Y-91375052D01*
X155561479Y-91384964D01*
X155521566Y-91381493D01*
X155453375Y-91388996D01*
X155385092Y-91395800D01*
X155381445Y-91396911D01*
X155377653Y-91397328D01*
X155312246Y-91417988D01*
X155246591Y-91437985D01*
X155243226Y-91439788D01*
X155239593Y-91440936D01*
X155179451Y-91473971D01*
X155118982Y-91506381D01*
X155116040Y-91508801D01*
X155112694Y-91510639D01*
X155060109Y-91554809D01*
X155007169Y-91598357D01*
X154981790Y-91629352D01*
X154462965Y-92160164D01*
X154422896Y-92063428D01*
X154315099Y-91902099D01*
X154177901Y-91764901D01*
X154016572Y-91657104D01*
X153837314Y-91582853D01*
X153647014Y-91545000D01*
X153604447Y-91545000D01*
X150415259Y-88355813D01*
X150392238Y-88327762D01*
X150280320Y-88235913D01*
X150152633Y-88167663D01*
X150014085Y-88125635D01*
X149906105Y-88115000D01*
X149870000Y-88111444D01*
X149833895Y-88115000D01*
X145518000Y-88115000D01*
X145487901Y-88084901D01*
X145326572Y-87977104D01*
X145147314Y-87902853D01*
X144957014Y-87865000D01*
X144762986Y-87865000D01*
X144572686Y-87902853D01*
X144393428Y-87977104D01*
X144232099Y-88084901D01*
X144094901Y-88222099D01*
X143987104Y-88383428D01*
X143912853Y-88562686D01*
X143875000Y-88752986D01*
X143875000Y-88947014D01*
X143912853Y-89137314D01*
X143987104Y-89316572D01*
X144094901Y-89477901D01*
X144232099Y-89615099D01*
X144393428Y-89722896D01*
X144572686Y-89797147D01*
X144762986Y-89835000D01*
X144957014Y-89835000D01*
X145147314Y-89797147D01*
X145326572Y-89722896D01*
X145487901Y-89615099D01*
X145518000Y-89585000D01*
X149565554Y-89585000D01*
X152565000Y-92584447D01*
X152565000Y-92627014D01*
X152602853Y-92817314D01*
X152677104Y-92996572D01*
X152784901Y-93157901D01*
X152922099Y-93295099D01*
X153083428Y-93402896D01*
X153200783Y-93451506D01*
X151992971Y-94687222D01*
X151958682Y-94717567D01*
X151920613Y-94767646D01*
X151881268Y-94816719D01*
X151876854Y-94825210D01*
X151871063Y-94832827D01*
X151843492Y-94889377D01*
X151814481Y-94945177D01*
X151811809Y-94954362D01*
X151807614Y-94962966D01*
X151791606Y-95023807D01*
X151774037Y-95084196D01*
X151773208Y-95093729D01*
X151770773Y-95102983D01*
X151766943Y-95165772D01*
X151761493Y-95228433D01*
X151766500Y-95273941D01*
X151820219Y-96715867D01*
X151818009Y-96738309D01*
X151822909Y-96788058D01*
X151823419Y-96801752D01*
X151826445Y-96823960D01*
X151832200Y-96882394D01*
X151836205Y-96895598D01*
X151838067Y-96909261D01*
X151857185Y-96964756D01*
X151874229Y-97020942D01*
X151880732Y-97033107D01*
X151885224Y-97046148D01*
X151914809Y-97096861D01*
X151942479Y-97148628D01*
X151951227Y-97159288D01*
X151958180Y-97171206D01*
X151965002Y-97178914D01*
X151965002Y-98291111D01*
X151569266Y-97895376D01*
X151522896Y-97783428D01*
X151415099Y-97622099D01*
X151277901Y-97484901D01*
X151116572Y-97377104D01*
X150937314Y-97302853D01*
X150747014Y-97265000D01*
X150552986Y-97265000D01*
X150362686Y-97302853D01*
X150270734Y-97340941D01*
X150270000Y-97295750D01*
X150111250Y-97137000D01*
X149237000Y-97137000D01*
X149237000Y-97157000D01*
X148983000Y-97157000D01*
X148983000Y-97137000D01*
X148963000Y-97137000D01*
X148963000Y-96883000D01*
X148983000Y-96883000D01*
X148983000Y-96863000D01*
X149237000Y-96863000D01*
X149237000Y-96883000D01*
X150111250Y-96883000D01*
X150270000Y-96724250D01*
X150273072Y-96535000D01*
X150260812Y-96410518D01*
X150224502Y-96290820D01*
X150165537Y-96180506D01*
X150086185Y-96083815D01*
X149989494Y-96004463D01*
X149879180Y-95945498D01*
X149759482Y-95909188D01*
X149707087Y-95904028D01*
X149747147Y-95807314D01*
X149785000Y-95617014D01*
X149785000Y-95433281D01*
X150633137Y-94305880D01*
X150727314Y-94287147D01*
X150906572Y-94212896D01*
X151067901Y-94105099D01*
X151205099Y-93967901D01*
X151312896Y-93806572D01*
X151387147Y-93627314D01*
X151425000Y-93437014D01*
X151425000Y-93242986D01*
X151387147Y-93052686D01*
X151312896Y-92873428D01*
X151205099Y-92712099D01*
X151067901Y-92574901D01*
X150906572Y-92467104D01*
X150727314Y-92392853D01*
X150537014Y-92355000D01*
X150342986Y-92355000D01*
X150152686Y-92392853D01*
X149973428Y-92467104D01*
X149812099Y-92574901D01*
X149674901Y-92712099D01*
X149567104Y-92873428D01*
X149492853Y-93052686D01*
X149455000Y-93242986D01*
X149455000Y-93426718D01*
X148606863Y-94554120D01*
X148512686Y-94572853D01*
X148333428Y-94647104D01*
X148172099Y-94754901D01*
X148034901Y-94892099D01*
X147927104Y-95053428D01*
X147852853Y-95232686D01*
X147815000Y-95422986D01*
X147815000Y-95617014D01*
X147852853Y-95807314D01*
X147908240Y-95941030D01*
X147818316Y-95913752D01*
X147647500Y-95896928D01*
X147072500Y-95896928D01*
X146901684Y-95913752D01*
X146737433Y-95963577D01*
X146597775Y-96038225D01*
X146627147Y-95967314D01*
X146665000Y-95777014D01*
X146665000Y-95582986D01*
X146627147Y-95392686D01*
X146552896Y-95213428D01*
X146445099Y-95052099D01*
X146307901Y-94914901D01*
X146146572Y-94807104D01*
X145967314Y-94732853D01*
X145777014Y-94695000D01*
X145582986Y-94695000D01*
X145392686Y-94732853D01*
X145213428Y-94807104D01*
X145052099Y-94914901D01*
X144914901Y-95052099D01*
X144807104Y-95213428D01*
X144732853Y-95392686D01*
X144695000Y-95582986D01*
X144695000Y-95625553D01*
X142118983Y-98201571D01*
X142102738Y-98201571D01*
X142172896Y-98096572D01*
X142247147Y-97917314D01*
X142285000Y-97727014D01*
X142285000Y-97532986D01*
X142247147Y-97342686D01*
X142172896Y-97163428D01*
X142065099Y-97002099D01*
X141927901Y-96864901D01*
X141766572Y-96757104D01*
X141587314Y-96682853D01*
X141397014Y-96645000D01*
X141202986Y-96645000D01*
X141012686Y-96682853D01*
X140833428Y-96757104D01*
X140672099Y-96864901D01*
X140534901Y-97002099D01*
X140427104Y-97163428D01*
X140352853Y-97342686D01*
X140333859Y-97438175D01*
X140031488Y-97666292D01*
X135935991Y-98814437D01*
X135787314Y-98752853D01*
X135597014Y-98715000D01*
X135402986Y-98715000D01*
X135212686Y-98752853D01*
X135033428Y-98827104D01*
X134872099Y-98934901D01*
X134734901Y-99072099D01*
X134627104Y-99233428D01*
X134552853Y-99412686D01*
X134515000Y-99602986D01*
X134515000Y-99797014D01*
X134543051Y-99938036D01*
X134459494Y-99869463D01*
X134349180Y-99810498D01*
X134229482Y-99774188D01*
X134105000Y-99761928D01*
X132555000Y-99761928D01*
X132523808Y-99765000D01*
X132176192Y-99765000D01*
X132145000Y-99761928D01*
X130660000Y-99761928D01*
X130660000Y-97837664D01*
X131084250Y-97835000D01*
X131243000Y-97676250D01*
X131243000Y-96677000D01*
X131497000Y-96677000D01*
X131497000Y-97676250D01*
X131655750Y-97835000D01*
X132145000Y-97838072D01*
X132269482Y-97825812D01*
X132350000Y-97801387D01*
X132430518Y-97825812D01*
X132555000Y-97838072D01*
X133044250Y-97835000D01*
X133203000Y-97676250D01*
X133203000Y-96677000D01*
X131497000Y-96677000D01*
X131243000Y-96677000D01*
X131223000Y-96677000D01*
X131223000Y-96423000D01*
X131243000Y-96423000D01*
X131243000Y-95423750D01*
X131497000Y-95423750D01*
X131497000Y-96423000D01*
X133203000Y-96423000D01*
X133203000Y-95423750D01*
X133044250Y-95265000D01*
X132555000Y-95261928D01*
X132430518Y-95274188D01*
X132350000Y-95298613D01*
X132269482Y-95274188D01*
X132145000Y-95261928D01*
X131655750Y-95265000D01*
X131497000Y-95423750D01*
X131243000Y-95423750D01*
X131084250Y-95265000D01*
X130660000Y-95262336D01*
X130660000Y-94023338D01*
X130691178Y-93582986D01*
X132235000Y-93582986D01*
X132235000Y-93777014D01*
X132272853Y-93967314D01*
X132347104Y-94146572D01*
X132454901Y-94307901D01*
X132592099Y-94445099D01*
X132753428Y-94552896D01*
X132932686Y-94627147D01*
X132987404Y-94638031D01*
X133499400Y-95381350D01*
X133457000Y-95423750D01*
X133457000Y-96423000D01*
X133477000Y-96423000D01*
X133477000Y-96677000D01*
X133457000Y-96677000D01*
X133457000Y-97676250D01*
X133615750Y-97835000D01*
X134105000Y-97838072D01*
X134229482Y-97825812D01*
X134349180Y-97789502D01*
X134459494Y-97730537D01*
X134556185Y-97651185D01*
X134635537Y-97554494D01*
X134694502Y-97444180D01*
X134730812Y-97324482D01*
X134743072Y-97200000D01*
X134740000Y-96835750D01*
X134710931Y-96806681D01*
X134737508Y-96814679D01*
X134741906Y-96815102D01*
X134746155Y-96816326D01*
X134813935Y-96822037D01*
X134845511Y-96825077D01*
X134849900Y-96825067D01*
X134890426Y-96828482D01*
X134922114Y-96824909D01*
X138773444Y-96816444D01*
X138802099Y-96845099D01*
X138963428Y-96952896D01*
X139142686Y-97027147D01*
X139332986Y-97065000D01*
X139527014Y-97065000D01*
X139717314Y-97027147D01*
X139896572Y-96952896D01*
X140057901Y-96845099D01*
X140195099Y-96707901D01*
X140302896Y-96546572D01*
X140377147Y-96367314D01*
X140415000Y-96177014D01*
X140415000Y-95982986D01*
X140377147Y-95792686D01*
X140302896Y-95613428D01*
X140195099Y-95452099D01*
X140057901Y-95314901D01*
X139896572Y-95207104D01*
X139717314Y-95132853D01*
X139527014Y-95095000D01*
X139332986Y-95095000D01*
X139142686Y-95132853D01*
X138963428Y-95207104D01*
X138802099Y-95314901D01*
X138770552Y-95346448D01*
X135265635Y-95354152D01*
X134199243Y-93805957D01*
X134205000Y-93777014D01*
X134205000Y-93582986D01*
X134167147Y-93392686D01*
X134092896Y-93213428D01*
X133985099Y-93052099D01*
X133847901Y-92914901D01*
X133686572Y-92807104D01*
X133507314Y-92732853D01*
X133317014Y-92695000D01*
X133122986Y-92695000D01*
X132932686Y-92732853D01*
X132753428Y-92807104D01*
X132592099Y-92914901D01*
X132454901Y-93052099D01*
X132347104Y-93213428D01*
X132272853Y-93392686D01*
X132235000Y-93582986D01*
X130691178Y-93582986D01*
X130734841Y-92966319D01*
X130865378Y-92360000D01*
X140177581Y-92360000D01*
X140210000Y-92363193D01*
X140242419Y-92360000D01*
X140339383Y-92350450D01*
X140463793Y-92312710D01*
X140578450Y-92251425D01*
X140678948Y-92168948D01*
X140761425Y-92068450D01*
X140822710Y-91953793D01*
X140860450Y-91829383D01*
X140873193Y-91700000D01*
X140870000Y-91667581D01*
X140870000Y-86660000D01*
X157976662Y-86660000D01*
X159033984Y-86734863D01*
G36*
X150937000Y-99342002D02*
G01*
X150937000Y-99497000D01*
X150917000Y-99497000D01*
X150917000Y-99517000D01*
X150663000Y-99517000D01*
X150663000Y-99497000D01*
X150643000Y-99497000D01*
X150643000Y-99243000D01*
X150663000Y-99243000D01*
X150663000Y-99235000D01*
X150747014Y-99235000D01*
X150807342Y-99223000D01*
X150817998Y-99223000D01*
X150937000Y-99342002D01*
G37*
X150937000Y-99342002D02*
X150937000Y-99497000D01*
X150917000Y-99497000D01*
X150917000Y-99517000D01*
X150663000Y-99517000D01*
X150663000Y-99497000D01*
X150643000Y-99497000D01*
X150643000Y-99243000D01*
X150663000Y-99243000D01*
X150663000Y-99235000D01*
X150747014Y-99235000D01*
X150807342Y-99223000D01*
X150817998Y-99223000D01*
X150937000Y-99342002D01*
G36*
X145377000Y-99243000D02*
G01*
X145397000Y-99243000D01*
X145397000Y-99497000D01*
X145377000Y-99497000D01*
X145377000Y-99517000D01*
X145259990Y-99517000D01*
X145259990Y-99223000D01*
X145377000Y-99223000D01*
X145377000Y-99243000D01*
G37*
X145377000Y-99243000D02*
X145397000Y-99243000D01*
X145397000Y-99497000D01*
X145377000Y-99497000D01*
X145377000Y-99517000D01*
X145259990Y-99517000D01*
X145259990Y-99223000D01*
X145377000Y-99223000D01*
X145377000Y-99243000D01*
M02*
