M48
; DRILL file {KiCad (5.1.6-0-10_14)} date Sunday, September 27, 2020 at 10:59:20 AM
; FORMAT={-:-/ absolute / inch / decimal}
; #@! TF.CreationDate,2020-09-27T10:59:20+08:00
; #@! TF.GenerationSoftware,Kicad,Pcbnew,(5.1.6-0-10_14)
; #@! TF.FileFunction,Plated,1,2,PTH
FMAT,2
INCH
T1C0.0157
T2C0.0236
T3C0.0315
%
G90
G05
T1
X5.2295Y-4.2425
X5.2449Y-3.6882
X5.2559Y-4.1598
X5.2579Y-4.5453
X5.2898Y-4.1146
X5.3055Y-4.035
X5.3329Y-4.4783
X5.3346Y-3.9252
X5.3433Y-4.1791
X5.4193Y-4.8169
X5.4268Y-4.4091
X5.4409Y-4.45
X5.4697Y-4.114
X5.4697Y-4.164
X5.4866Y-4.322
X5.4894Y-3.7827
X5.5167Y-4.7419
X5.5319Y-4.1717
X5.5319Y-4.2173
X5.5358Y-4.4402
X5.563Y-3.8437
X5.5945Y-4.435
X5.6059Y-4.2217
X5.6331Y-4.3736
X5.6346Y-3.7087
X5.6575Y-4.4291
X5.6606Y-3.9161
X5.6638Y-3.5197
X5.6658Y-3.9692
X5.7031Y-3.498
X5.7126Y-4.1378
X5.7185Y-3.9122
X5.7279Y-4.3469
X5.7323Y-4.4744
X5.7323Y-4.5236
X5.7323Y-4.5728
X5.7354Y-3.7669
X5.7638Y-4.7244
X5.7717Y-4.3858
X5.8031Y-4.3465
X5.8201Y-4.1091
X5.8276Y-3.9801
X5.8323Y-4.0618
X5.8406Y-4.372
X5.8543Y-4.7362
X5.8568Y-4.3292
X5.8583Y-3.7606
X5.865Y-3.9801
X5.8724Y-4.1716
X5.8795Y-4.0476
X5.8839Y-4.7776
X5.8917Y-4.7224
X5.9228Y-3.6748
X5.9311Y-3.8681
X5.9366Y-3.9122
X5.9398Y-4.0687
X5.9874Y-3.9421
X5.9882Y-3.9795
X5.989Y-4.0217
X5.9937Y-4.1673
X6.0011Y-4.2393
X6.0197Y-4.5669
X6.0315Y-3.7559
X6.0409Y-3.8567
X6.0453Y-3.6429
X6.0563Y-4.461
X6.0665Y-3.7961
X6.0754Y-3.7638
X6.0756Y-3.8461
X6.1087Y-3.7673
X6.1335Y-3.4331
X6.1478Y-3.8925
X6.1496Y-4.626
X6.2379Y-4.3015
X6.2736Y-4.3209
X6.285Y-3.8244
X6.3006Y-4.1169
X6.311Y-4.3169
X6.3248Y-4.3898
X6.3421Y-3.7016
X6.35Y-3.7941
X6.4051Y-4.5236
X6.4587Y-3.6555
X6.4705Y-3.7008
T3
X6.187Y-4.878
X6.2657Y-4.878
T2
G00X5.6567Y-4.6652
M15
G01X5.6567Y-4.7085
M16
G05
G00X5.6567Y-4.8396
M15
G01X5.6567Y-4.8632
M16
G05
G00X5.9969Y-4.6652
M15
G01X5.9969Y-4.7085
M16
G05
G00X5.9969Y-4.8396
M15
G01X5.9969Y-4.8632
M16
G05
T0
M30
