M48
; DRILL file {KiCad (5.1.6-0-10_14)} date Thursday, September 10, 2020 at 05:51:46 PM
; FORMAT={-:-/ absolute / inch / decimal}
; #@! TF.CreationDate,2020-09-10T17:51:46+08:00
; #@! TF.GenerationSoftware,Kicad,Pcbnew,(5.1.6-0-10_14)
; #@! TF.FileFunction,Plated,1,2,PTH
FMAT,2
INCH
T1C0.0157
T2C0.0315
%
G90
G05
T1
X5.2295Y-4.2425
X5.2449Y-3.6882
X5.2559Y-4.1598
X5.2579Y-4.5453
X5.2898Y-4.1146
X5.3055Y-4.035
X5.3329Y-4.4783
X5.3346Y-3.9252
X5.3433Y-4.1791
X5.4193Y-4.8169
X5.4268Y-4.4091
X5.4409Y-4.45
X5.4697Y-4.114
X5.4697Y-4.164
X5.4866Y-4.322
X5.4894Y-3.7827
X5.5167Y-4.7419
X5.5319Y-4.1717
X5.5319Y-4.2173
X5.5358Y-4.4402
X5.563Y-3.8437
X5.5965Y-4.435
X5.6059Y-4.2217
X5.6256Y-4.3711
X5.6346Y-3.7087
X5.6606Y-3.9161
X5.6638Y-3.5197
X5.6658Y-3.9692
X5.6791Y-4.8327
X5.6811Y-4.4154
X5.7031Y-3.498
X5.7126Y-4.1378
X5.7185Y-3.9122
X5.7279Y-4.3469
X5.7283Y-4.5669
X5.7303Y-4.5157
X5.7323Y-4.6161
X5.7354Y-3.7669
X5.7402Y-4.6811
X5.7795Y-4.3504
X5.8128Y-4.6633
X5.8201Y-4.1091
X5.8276Y-3.9801
X5.8323Y-4.0618
X5.845Y-4.341
X5.8583Y-3.7606
X5.865Y-3.9801
X5.8724Y-4.1716
X5.8795Y-4.0476
X5.9228Y-3.6748
X5.9242Y-4.4663
X5.9311Y-3.8681
X5.9366Y-3.9122
X5.9398Y-4.0687
X5.9874Y-3.9421
X5.9882Y-3.9795
X5.989Y-4.0217
X5.9937Y-4.1673
X6.0011Y-4.2393
X6.0197Y-4.5669
X6.0315Y-3.7559
X6.0409Y-3.8567
X6.0453Y-3.6429
X6.0665Y-3.7961
X6.0754Y-3.7638
X6.0756Y-3.8461
X6.1087Y-3.7673
X6.1335Y-3.4331
X6.1478Y-3.8925
X6.2409Y-3.5949
X6.248Y-4.3051
X6.285Y-3.8244
X6.2933Y-4.3051
X6.3006Y-4.1169
X6.313Y-4.3346
X6.3248Y-4.3898
X6.3421Y-3.7016
X6.35Y-3.7941
X6.4051Y-4.5236
X6.4587Y-3.6555
X6.4705Y-3.7008
T2
X6.187Y-4.878
X6.2657Y-4.878
T0
M30
