G04 #@! TF.GenerationSoftware,KiCad,Pcbnew,(5.1.6-0-10_14)*
G04 #@! TF.CreationDate,2020-09-10T17:51:43+08:00*
G04 #@! TF.ProjectId,Watch_F4,57617463-685f-4463-942e-6b696361645f,rev?*
G04 #@! TF.SameCoordinates,Original*
G04 #@! TF.FileFunction,Legend,Top*
G04 #@! TF.FilePolarity,Positive*
%FSLAX46Y46*%
G04 Gerber Fmt 4.6, Leading zero omitted, Abs format (unit mm)*
G04 Created by KiCad (PCBNEW (5.1.6-0-10_14)) date 2020-09-10 17:51:43*
%MOMM*%
%LPD*%
G01*
G04 APERTURE LIST*
%ADD10C,0.120000*%
%ADD11C,0.150000*%
G04 APERTURE END LIST*
D10*
X148000000Y-105500000D02*
X148000000Y-106500000D01*
X147500000Y-106000000D02*
X148500000Y-106000000D01*
X140000000Y-86000000D02*
X143000000Y-86000000D01*
X140000000Y-87000000D02*
X140000000Y-86000000D01*
X143000000Y-87000000D02*
X140000000Y-87000000D01*
X143000000Y-86000000D02*
X143000000Y-87000000D01*
X153000000Y-87000000D02*
X153000000Y-86000000D01*
X156000000Y-87000000D02*
X153000000Y-87000000D01*
X156000000Y-86000000D02*
X156000000Y-87000000D01*
X153000000Y-86000000D02*
X156000000Y-86000000D01*
X148000000Y-126000000D02*
X148000000Y-123100000D01*
X144140000Y-125610000D02*
X144140000Y-124000000D01*
X151860000Y-119790000D02*
X149800000Y-119790000D01*
X151860000Y-121500000D02*
X151860000Y-119790000D01*
X144140000Y-119790000D02*
X146200000Y-119790000D01*
X144140000Y-121500000D02*
X144140000Y-119790000D01*
X144140000Y-125610000D02*
X151860000Y-125610000D01*
X151860000Y-125610000D02*
X151860000Y-124000000D01*
X146200000Y-119790000D02*
X146200000Y-119200000D01*
X143475000Y-88600000D02*
X143475000Y-86600000D01*
X143475000Y-86600000D02*
X152525000Y-86600000D01*
X152525000Y-86600000D02*
X152525000Y-88600000D01*
X152525000Y-88600000D02*
X143475000Y-88600000D01*
X164400000Y-105885000D02*
X162115000Y-105885000D01*
X162115000Y-105885000D02*
X162115000Y-107355000D01*
X162115000Y-107355000D02*
X164400000Y-107355000D01*
X162800000Y-105535000D02*
X165085000Y-105535000D01*
X165085000Y-105535000D02*
X165085000Y-104065000D01*
X165085000Y-104065000D02*
X162800000Y-104065000D01*
X155160000Y-88960000D02*
X156090000Y-88960000D01*
X158320000Y-88960000D02*
X157390000Y-88960000D01*
X158320000Y-88960000D02*
X158320000Y-86800000D01*
X155160000Y-88960000D02*
X155160000Y-87500000D01*
X156970000Y-117530000D02*
X156970000Y-121670000D01*
X154130000Y-121670000D02*
X153830000Y-121670000D01*
X153830000Y-121670000D02*
X153830000Y-117530000D01*
X156670000Y-117530000D02*
X156970000Y-117530000D01*
X153830000Y-117530000D02*
X154130000Y-117530000D01*
X156970000Y-121670000D02*
X156670000Y-121670000D01*
X163010000Y-93523733D02*
X163010000Y-93866267D01*
X161990000Y-93523733D02*
X161990000Y-93866267D01*
X160498733Y-90370000D02*
X160841267Y-90370000D01*
X160498733Y-91390000D02*
X160841267Y-91390000D01*
X156201267Y-91340000D02*
X155858733Y-91340000D01*
X156201267Y-90320000D02*
X155858733Y-90320000D01*
X160478733Y-88490000D02*
X160821267Y-88490000D01*
X160478733Y-89510000D02*
X160821267Y-89510000D01*
X153960000Y-89718733D02*
X153960000Y-90061267D01*
X152940000Y-89718733D02*
X152940000Y-90061267D01*
X143590000Y-110043733D02*
X143590000Y-110386267D01*
X142570000Y-110043733D02*
X142570000Y-110386267D01*
X143840000Y-97570000D02*
X142890000Y-97570000D01*
X142890000Y-97570000D02*
X142890000Y-98520000D01*
X152160000Y-97570000D02*
X153110000Y-97570000D01*
X153110000Y-97570000D02*
X153110000Y-98520000D01*
X143840000Y-107790000D02*
X142890000Y-107790000D01*
X142890000Y-107790000D02*
X142890000Y-106840000D01*
X152160000Y-107790000D02*
X153110000Y-107790000D01*
X153110000Y-107790000D02*
X153110000Y-106840000D01*
X153110000Y-106840000D02*
X154450000Y-106840000D01*
X131240000Y-87600000D02*
X141460000Y-87620000D01*
X141460000Y-87620000D02*
X141460000Y-97820000D01*
X131240000Y-97820000D02*
X131240000Y-87600000D01*
X131240000Y-97820000D02*
X141460000Y-97820000D01*
X155315000Y-105175000D02*
X155315000Y-106525000D01*
X157065000Y-105175000D02*
X157065000Y-106525000D01*
X160810000Y-103320000D02*
X155810000Y-103320000D01*
X160810000Y-99900000D02*
X155810000Y-99900000D01*
X134980000Y-106615000D02*
X137705000Y-106615000D01*
X137705000Y-106615000D02*
X137705000Y-106355000D01*
X134980000Y-106615000D02*
X132255000Y-106615000D01*
X132255000Y-106615000D02*
X132255000Y-106355000D01*
X134980000Y-101165000D02*
X137705000Y-101165000D01*
X137705000Y-101165000D02*
X137705000Y-101425000D01*
X134980000Y-101165000D02*
X132255000Y-101165000D01*
X132255000Y-101165000D02*
X132255000Y-101425000D01*
X132255000Y-101425000D02*
X130580000Y-101425000D01*
X137650000Y-124910000D02*
X139600000Y-124910000D01*
X137650000Y-124910000D02*
X135700000Y-124910000D01*
X137650000Y-119790000D02*
X139600000Y-119790000D01*
X137650000Y-119790000D02*
X134200000Y-119790000D01*
X148000000Y-117910000D02*
X149950000Y-117910000D01*
X148000000Y-117910000D02*
X146050000Y-117910000D01*
X148000000Y-112790000D02*
X149950000Y-112790000D01*
X148000000Y-112790000D02*
X144550000Y-112790000D01*
D11*
X137720000Y-111970000D02*
X137195000Y-111970000D01*
X133420000Y-107670000D02*
X133945000Y-107670000D01*
X133420000Y-111970000D02*
X133945000Y-111970000D01*
X137720000Y-107670000D02*
X137720000Y-108195000D01*
X133420000Y-107670000D02*
X133420000Y-108195000D01*
X133420000Y-111970000D02*
X133420000Y-111445000D01*
X137720000Y-111970000D02*
X137720000Y-111445000D01*
D10*
X132801267Y-114260000D02*
X132458733Y-114260000D01*
X132801267Y-113240000D02*
X132458733Y-113240000D01*
X140260000Y-112428733D02*
X140260000Y-112771267D01*
X139240000Y-112428733D02*
X139240000Y-112771267D01*
X138850000Y-109076267D02*
X138850000Y-108733733D01*
X139870000Y-109076267D02*
X139870000Y-108733733D01*
X132210000Y-117378733D02*
X132210000Y-117721267D01*
X131190000Y-117378733D02*
X131190000Y-117721267D01*
X132190000Y-121521267D02*
X132190000Y-121178733D01*
X133210000Y-121521267D02*
X133210000Y-121178733D01*
X162690000Y-111571267D02*
X162690000Y-111228733D01*
X163710000Y-111571267D02*
X163710000Y-111228733D01*
X155228733Y-115440000D02*
X155571267Y-115440000D01*
X155228733Y-116460000D02*
X155571267Y-116460000D01*
X142471267Y-118160000D02*
X142128733Y-118160000D01*
X142471267Y-117140000D02*
X142128733Y-117140000D01*
X150971267Y-111060000D02*
X150628733Y-111060000D01*
X150971267Y-110040000D02*
X150628733Y-110040000D01*
X132396267Y-100230000D02*
X132053733Y-100230000D01*
X132396267Y-99210000D02*
X132053733Y-99210000D01*
X157900000Y-119400000D02*
X157900000Y-121450000D01*
X157900000Y-121450000D02*
X165000000Y-121450000D01*
X165000000Y-121450000D02*
X165000000Y-119400000D01*
X157900000Y-116400000D02*
X157900000Y-114350000D01*
X157900000Y-114350000D02*
X165000000Y-114350000D01*
X165000000Y-114350000D02*
X165000000Y-116400000D01*
X158150000Y-122840000D02*
X158150000Y-124960000D01*
X158150000Y-122840000D02*
X156090000Y-122840000D01*
X156090000Y-122840000D02*
X156090000Y-124960000D01*
X158150000Y-124960000D02*
X156090000Y-124960000D01*
X160210000Y-124960000D02*
X159150000Y-124960000D01*
X160210000Y-123900000D02*
X160210000Y-124960000D01*
X137728733Y-114940000D02*
X138071267Y-114940000D01*
X137728733Y-115960000D02*
X138071267Y-115960000D01*
X136501267Y-114260000D02*
X136158733Y-114260000D01*
X136501267Y-113240000D02*
X136158733Y-113240000D01*
X132120000Y-109933733D02*
X132120000Y-110276267D01*
X131100000Y-109933733D02*
X131100000Y-110276267D01*
X144100000Y-93771267D02*
X144100000Y-93428733D01*
X145120000Y-93771267D02*
X145120000Y-93428733D01*
X134596267Y-117565000D02*
X134253733Y-117565000D01*
X134596267Y-116545000D02*
X134253733Y-116545000D01*
X134571267Y-119210000D02*
X134228733Y-119210000D01*
X134571267Y-118190000D02*
X134228733Y-118190000D01*
X158671267Y-111760000D02*
X158328733Y-111760000D01*
X158671267Y-110740000D02*
X158328733Y-110740000D01*
X154533733Y-112800000D02*
X154876267Y-112800000D01*
X154533733Y-113820000D02*
X154876267Y-113820000D01*
X164340000Y-111571267D02*
X164340000Y-111228733D01*
X165360000Y-111571267D02*
X165360000Y-111228733D01*
X154558733Y-111165000D02*
X154901267Y-111165000D01*
X154558733Y-112185000D02*
X154901267Y-112185000D01*
X162060000Y-111228733D02*
X162060000Y-111571267D01*
X161040000Y-111228733D02*
X161040000Y-111571267D01*
X160160000Y-94418733D02*
X160160000Y-94761267D01*
X159140000Y-94418733D02*
X159140000Y-94761267D01*
X158671267Y-113510000D02*
X158328733Y-113510000D01*
X158671267Y-112490000D02*
X158328733Y-112490000D01*
X156858733Y-98360000D02*
X157201267Y-98360000D01*
X156858733Y-99380000D02*
X157201267Y-99380000D01*
X154563733Y-109530000D02*
X154906267Y-109530000D01*
X154563733Y-110550000D02*
X154906267Y-110550000D01*
X159130000Y-98186267D02*
X159130000Y-97843733D01*
X160150000Y-98186267D02*
X160150000Y-97843733D01*
X142690000Y-115321267D02*
X142690000Y-114978733D01*
X143710000Y-115321267D02*
X143710000Y-114978733D01*
X140940000Y-115321267D02*
X140940000Y-114978733D01*
X141960000Y-115321267D02*
X141960000Y-114978733D01*
X158988733Y-104060000D02*
X159331267Y-104060000D01*
X158988733Y-105080000D02*
X159331267Y-105080000D01*
X158993733Y-105710000D02*
X159336267Y-105710000D01*
X158993733Y-106730000D02*
X159336267Y-106730000D01*
X137733733Y-116550000D02*
X138076267Y-116550000D01*
X137733733Y-117570000D02*
X138076267Y-117570000D01*
X134591267Y-115930000D02*
X134248733Y-115930000D01*
X134591267Y-114910000D02*
X134248733Y-114910000D01*
X137728733Y-118190000D02*
X138071267Y-118190000D01*
X137728733Y-119210000D02*
X138071267Y-119210000D01*
D11*
X147566666Y-124452380D02*
X147566666Y-125166666D01*
X147519047Y-125309523D01*
X147423809Y-125404761D01*
X147280952Y-125452380D01*
X147185714Y-125452380D01*
X148471428Y-124785714D02*
X148471428Y-125452380D01*
X148233333Y-124404761D02*
X147995238Y-125119047D01*
X148614285Y-125119047D01*
X147666666Y-89052380D02*
X147666666Y-89766666D01*
X147619047Y-89909523D01*
X147523809Y-90004761D01*
X147380952Y-90052380D01*
X147285714Y-90052380D01*
X148095238Y-89147619D02*
X148142857Y-89100000D01*
X148238095Y-89052380D01*
X148476190Y-89052380D01*
X148571428Y-89100000D01*
X148619047Y-89147619D01*
X148666666Y-89242857D01*
X148666666Y-89338095D01*
X148619047Y-89480952D01*
X148047619Y-90052380D01*
X148666666Y-90052380D01*
X162861904Y-105642380D02*
X162861904Y-104642380D01*
X163100000Y-104642380D01*
X163242857Y-104690000D01*
X163338095Y-104785238D01*
X163385714Y-104880476D01*
X163433333Y-105070952D01*
X163433333Y-105213809D01*
X163385714Y-105404285D01*
X163338095Y-105499523D01*
X163242857Y-105594761D01*
X163100000Y-105642380D01*
X162861904Y-105642380D01*
X164290476Y-104975714D02*
X164290476Y-105642380D01*
X164052380Y-104594761D02*
X163814285Y-105309047D01*
X164433333Y-105309047D01*
X162861904Y-106682380D02*
X162861904Y-105682380D01*
X163100000Y-105682380D01*
X163242857Y-105730000D01*
X163338095Y-105825238D01*
X163385714Y-105920476D01*
X163433333Y-106110952D01*
X163433333Y-106253809D01*
X163385714Y-106444285D01*
X163338095Y-106539523D01*
X163242857Y-106634761D01*
X163100000Y-106682380D01*
X162861904Y-106682380D01*
X164385714Y-106682380D02*
X163814285Y-106682380D01*
X164100000Y-106682380D02*
X164100000Y-105682380D01*
X164004761Y-105825238D01*
X163909523Y-105920476D01*
X163814285Y-105968095D01*
X159144761Y-88747619D02*
X159049523Y-88700000D01*
X158954285Y-88604761D01*
X158811428Y-88461904D01*
X158716190Y-88414285D01*
X158620952Y-88414285D01*
X158668571Y-88652380D02*
X158573333Y-88604761D01*
X158478095Y-88509523D01*
X158430476Y-88319047D01*
X158430476Y-87985714D01*
X158478095Y-87795238D01*
X158573333Y-87700000D01*
X158668571Y-87652380D01*
X158859047Y-87652380D01*
X158954285Y-87700000D01*
X159049523Y-87795238D01*
X159097142Y-87985714D01*
X159097142Y-88319047D01*
X159049523Y-88509523D01*
X158954285Y-88604761D01*
X158859047Y-88652380D01*
X158668571Y-88652380D01*
X160049523Y-88652380D02*
X159478095Y-88652380D01*
X159763809Y-88652380D02*
X159763809Y-87652380D01*
X159668571Y-87795238D01*
X159573333Y-87890476D01*
X159478095Y-87938095D01*
X158054761Y-120933333D02*
X158102380Y-120790476D01*
X158102380Y-120552380D01*
X158054761Y-120457142D01*
X158007142Y-120409523D01*
X157911904Y-120361904D01*
X157816666Y-120361904D01*
X157721428Y-120409523D01*
X157673809Y-120457142D01*
X157626190Y-120552380D01*
X157578571Y-120742857D01*
X157530952Y-120838095D01*
X157483333Y-120885714D01*
X157388095Y-120933333D01*
X157292857Y-120933333D01*
X157197619Y-120885714D01*
X157150000Y-120838095D01*
X157102380Y-120742857D01*
X157102380Y-120504761D01*
X157150000Y-120361904D01*
X157102380Y-120028571D02*
X158102380Y-119790476D01*
X157388095Y-119600000D01*
X158102380Y-119409523D01*
X157102380Y-119171428D01*
X157102380Y-118361904D02*
X157102380Y-118552380D01*
X157150000Y-118647619D01*
X157197619Y-118695238D01*
X157340476Y-118790476D01*
X157530952Y-118838095D01*
X157911904Y-118838095D01*
X158007142Y-118790476D01*
X158054761Y-118742857D01*
X158102380Y-118647619D01*
X158102380Y-118457142D01*
X158054761Y-118361904D01*
X158007142Y-118314285D01*
X157911904Y-118266666D01*
X157673809Y-118266666D01*
X157578571Y-118314285D01*
X157530952Y-118361904D01*
X157483333Y-118457142D01*
X157483333Y-118647619D01*
X157530952Y-118742857D01*
X157578571Y-118790476D01*
X157673809Y-118838095D01*
X164382380Y-94337857D02*
X163906190Y-94671190D01*
X164382380Y-94909285D02*
X163382380Y-94909285D01*
X163382380Y-94528333D01*
X163430000Y-94433095D01*
X163477619Y-94385476D01*
X163572857Y-94337857D01*
X163715714Y-94337857D01*
X163810952Y-94385476D01*
X163858571Y-94433095D01*
X163906190Y-94528333D01*
X163906190Y-94909285D01*
X163477619Y-93956904D02*
X163430000Y-93909285D01*
X163382380Y-93814047D01*
X163382380Y-93575952D01*
X163430000Y-93480714D01*
X163477619Y-93433095D01*
X163572857Y-93385476D01*
X163668095Y-93385476D01*
X163810952Y-93433095D01*
X164382380Y-94004523D01*
X164382380Y-93385476D01*
X163715714Y-92528333D02*
X164382380Y-92528333D01*
X163334761Y-92766428D02*
X164049047Y-93004523D01*
X164049047Y-92385476D01*
X160018333Y-92406380D02*
X159685000Y-91930190D01*
X159446904Y-92406380D02*
X159446904Y-91406380D01*
X159827857Y-91406380D01*
X159923095Y-91454000D01*
X159970714Y-91501619D01*
X160018333Y-91596857D01*
X160018333Y-91739714D01*
X159970714Y-91834952D01*
X159923095Y-91882571D01*
X159827857Y-91930190D01*
X159446904Y-91930190D01*
X160875476Y-91406380D02*
X160685000Y-91406380D01*
X160589761Y-91454000D01*
X160542142Y-91501619D01*
X160446904Y-91644476D01*
X160399285Y-91834952D01*
X160399285Y-92215904D01*
X160446904Y-92311142D01*
X160494523Y-92358761D01*
X160589761Y-92406380D01*
X160780238Y-92406380D01*
X160875476Y-92358761D01*
X160923095Y-92311142D01*
X160970714Y-92215904D01*
X160970714Y-91977809D01*
X160923095Y-91882571D01*
X160875476Y-91834952D01*
X160780238Y-91787333D01*
X160589761Y-91787333D01*
X160494523Y-91834952D01*
X160446904Y-91882571D01*
X160399285Y-91977809D01*
X158616380Y-91432857D02*
X158140190Y-91766190D01*
X158616380Y-92004285D02*
X157616380Y-92004285D01*
X157616380Y-91623333D01*
X157664000Y-91528095D01*
X157711619Y-91480476D01*
X157806857Y-91432857D01*
X157949714Y-91432857D01*
X158044952Y-91480476D01*
X158092571Y-91528095D01*
X158140190Y-91623333D01*
X158140190Y-92004285D01*
X158616380Y-90480476D02*
X158616380Y-91051904D01*
X158616380Y-90766190D02*
X157616380Y-90766190D01*
X157759238Y-90861428D01*
X157854476Y-90956666D01*
X157902095Y-91051904D01*
X158616380Y-89528095D02*
X158616380Y-90099523D01*
X158616380Y-89813809D02*
X157616380Y-89813809D01*
X157759238Y-89909047D01*
X157854476Y-90004285D01*
X157902095Y-90099523D01*
X160253333Y-90554380D02*
X159920000Y-90078190D01*
X159681904Y-90554380D02*
X159681904Y-89554380D01*
X160062857Y-89554380D01*
X160158095Y-89602000D01*
X160205714Y-89649619D01*
X160253333Y-89744857D01*
X160253333Y-89887714D01*
X160205714Y-89982952D01*
X160158095Y-90030571D01*
X160062857Y-90078190D01*
X159681904Y-90078190D01*
X160729523Y-90554380D02*
X160920000Y-90554380D01*
X161015238Y-90506761D01*
X161062857Y-90459142D01*
X161158095Y-90316285D01*
X161205714Y-90125809D01*
X161205714Y-89744857D01*
X161158095Y-89649619D01*
X161110476Y-89602000D01*
X161015238Y-89554380D01*
X160824761Y-89554380D01*
X160729523Y-89602000D01*
X160681904Y-89649619D01*
X160634285Y-89744857D01*
X160634285Y-89982952D01*
X160681904Y-90078190D01*
X160729523Y-90125809D01*
X160824761Y-90173428D01*
X161015238Y-90173428D01*
X161110476Y-90125809D01*
X161158095Y-90078190D01*
X161205714Y-89982952D01*
X153571333Y-92466380D02*
X153238000Y-91990190D01*
X152999904Y-92466380D02*
X152999904Y-91466380D01*
X153380857Y-91466380D01*
X153476095Y-91514000D01*
X153523714Y-91561619D01*
X153571333Y-91656857D01*
X153571333Y-91799714D01*
X153523714Y-91894952D01*
X153476095Y-91942571D01*
X153380857Y-91990190D01*
X152999904Y-91990190D01*
X154142761Y-91894952D02*
X154047523Y-91847333D01*
X153999904Y-91799714D01*
X153952285Y-91704476D01*
X153952285Y-91656857D01*
X153999904Y-91561619D01*
X154047523Y-91514000D01*
X154142761Y-91466380D01*
X154333238Y-91466380D01*
X154428476Y-91514000D01*
X154476095Y-91561619D01*
X154523714Y-91656857D01*
X154523714Y-91704476D01*
X154476095Y-91799714D01*
X154428476Y-91847333D01*
X154333238Y-91894952D01*
X154142761Y-91894952D01*
X154047523Y-91942571D01*
X153999904Y-91990190D01*
X153952285Y-92085428D01*
X153952285Y-92275904D01*
X153999904Y-92371142D01*
X154047523Y-92418761D01*
X154142761Y-92466380D01*
X154333238Y-92466380D01*
X154428476Y-92418761D01*
X154476095Y-92371142D01*
X154523714Y-92275904D01*
X154523714Y-92085428D01*
X154476095Y-91990190D01*
X154428476Y-91942571D01*
X154333238Y-91894952D01*
X142649142Y-112612142D02*
X142601523Y-112659761D01*
X142458666Y-112707380D01*
X142363428Y-112707380D01*
X142220571Y-112659761D01*
X142125333Y-112564523D01*
X142077714Y-112469285D01*
X142030095Y-112278809D01*
X142030095Y-112135952D01*
X142077714Y-111945476D01*
X142125333Y-111850238D01*
X142220571Y-111755000D01*
X142363428Y-111707380D01*
X142458666Y-111707380D01*
X142601523Y-111755000D01*
X142649142Y-111802619D01*
X143030095Y-111802619D02*
X143077714Y-111755000D01*
X143172952Y-111707380D01*
X143411047Y-111707380D01*
X143506285Y-111755000D01*
X143553904Y-111802619D01*
X143601523Y-111897857D01*
X143601523Y-111993095D01*
X143553904Y-112135952D01*
X142982476Y-112707380D01*
X143601523Y-112707380D01*
X144172952Y-112135952D02*
X144077714Y-112088333D01*
X144030095Y-112040714D01*
X143982476Y-111945476D01*
X143982476Y-111897857D01*
X144030095Y-111802619D01*
X144077714Y-111755000D01*
X144172952Y-111707380D01*
X144363428Y-111707380D01*
X144458666Y-111755000D01*
X144506285Y-111802619D01*
X144553904Y-111897857D01*
X144553904Y-111945476D01*
X144506285Y-112040714D01*
X144458666Y-112088333D01*
X144363428Y-112135952D01*
X144172952Y-112135952D01*
X144077714Y-112183571D01*
X144030095Y-112231190D01*
X143982476Y-112326428D01*
X143982476Y-112516904D01*
X144030095Y-112612142D01*
X144077714Y-112659761D01*
X144172952Y-112707380D01*
X144363428Y-112707380D01*
X144458666Y-112659761D01*
X144506285Y-112612142D01*
X144553904Y-112516904D01*
X144553904Y-112326428D01*
X144506285Y-112231190D01*
X144458666Y-112183571D01*
X144363428Y-112135952D01*
X147238095Y-109532380D02*
X147238095Y-110341904D01*
X147285714Y-110437142D01*
X147333333Y-110484761D01*
X147428571Y-110532380D01*
X147619047Y-110532380D01*
X147714285Y-110484761D01*
X147761904Y-110437142D01*
X147809523Y-110341904D01*
X147809523Y-109532380D01*
X148333333Y-110532380D02*
X148523809Y-110532380D01*
X148619047Y-110484761D01*
X148666666Y-110437142D01*
X148761904Y-110294285D01*
X148809523Y-110103809D01*
X148809523Y-109722857D01*
X148761904Y-109627619D01*
X148714285Y-109580000D01*
X148619047Y-109532380D01*
X148428571Y-109532380D01*
X148333333Y-109580000D01*
X148285714Y-109627619D01*
X148238095Y-109722857D01*
X148238095Y-109960952D01*
X148285714Y-110056190D01*
X148333333Y-110103809D01*
X148428571Y-110151428D01*
X148619047Y-110151428D01*
X148714285Y-110103809D01*
X148761904Y-110056190D01*
X148809523Y-109960952D01*
X136018095Y-92722380D02*
X136018095Y-93531904D01*
X136065714Y-93627142D01*
X136113333Y-93674761D01*
X136208571Y-93722380D01*
X136399047Y-93722380D01*
X136494285Y-93674761D01*
X136541904Y-93627142D01*
X136589523Y-93531904D01*
X136589523Y-92722380D01*
X137589523Y-93722380D02*
X137018095Y-93722380D01*
X137303809Y-93722380D02*
X137303809Y-92722380D01*
X137208571Y-92865238D01*
X137113333Y-92960476D01*
X137018095Y-93008095D01*
X155653809Y-105716190D02*
X155653809Y-106192380D01*
X155320476Y-105192380D02*
X155653809Y-105716190D01*
X155987142Y-105192380D01*
X156844285Y-106192380D02*
X156272857Y-106192380D01*
X156558571Y-106192380D02*
X156558571Y-105192380D01*
X156463333Y-105335238D01*
X156368095Y-105430476D01*
X156272857Y-105478095D01*
X158246190Y-102216190D02*
X158722380Y-102216190D01*
X157722380Y-102549523D02*
X158246190Y-102216190D01*
X157722380Y-101882857D01*
X157817619Y-101597142D02*
X157770000Y-101549523D01*
X157722380Y-101454285D01*
X157722380Y-101216190D01*
X157770000Y-101120952D01*
X157817619Y-101073333D01*
X157912857Y-101025714D01*
X158008095Y-101025714D01*
X158150952Y-101073333D01*
X158722380Y-101644761D01*
X158722380Y-101025714D01*
X134218095Y-103352380D02*
X134218095Y-104161904D01*
X134265714Y-104257142D01*
X134313333Y-104304761D01*
X134408571Y-104352380D01*
X134599047Y-104352380D01*
X134694285Y-104304761D01*
X134741904Y-104257142D01*
X134789523Y-104161904D01*
X134789523Y-103352380D01*
X135694285Y-103352380D02*
X135503809Y-103352380D01*
X135408571Y-103400000D01*
X135360952Y-103447619D01*
X135265714Y-103590476D01*
X135218095Y-103780952D01*
X135218095Y-104161904D01*
X135265714Y-104257142D01*
X135313333Y-104304761D01*
X135408571Y-104352380D01*
X135599047Y-104352380D01*
X135694285Y-104304761D01*
X135741904Y-104257142D01*
X135789523Y-104161904D01*
X135789523Y-103923809D01*
X135741904Y-103828571D01*
X135694285Y-103780952D01*
X135599047Y-103733333D01*
X135408571Y-103733333D01*
X135313333Y-103780952D01*
X135265714Y-103828571D01*
X135218095Y-103923809D01*
X136888095Y-124267380D02*
X136888095Y-125076904D01*
X136935714Y-125172142D01*
X136983333Y-125219761D01*
X137078571Y-125267380D01*
X137269047Y-125267380D01*
X137364285Y-125219761D01*
X137411904Y-125172142D01*
X137459523Y-125076904D01*
X137459523Y-124267380D01*
X138078571Y-124695952D02*
X137983333Y-124648333D01*
X137935714Y-124600714D01*
X137888095Y-124505476D01*
X137888095Y-124457857D01*
X137935714Y-124362619D01*
X137983333Y-124315000D01*
X138078571Y-124267380D01*
X138269047Y-124267380D01*
X138364285Y-124315000D01*
X138411904Y-124362619D01*
X138459523Y-124457857D01*
X138459523Y-124505476D01*
X138411904Y-124600714D01*
X138364285Y-124648333D01*
X138269047Y-124695952D01*
X138078571Y-124695952D01*
X137983333Y-124743571D01*
X137935714Y-124791190D01*
X137888095Y-124886428D01*
X137888095Y-125076904D01*
X137935714Y-125172142D01*
X137983333Y-125219761D01*
X138078571Y-125267380D01*
X138269047Y-125267380D01*
X138364285Y-125219761D01*
X138411904Y-125172142D01*
X138459523Y-125076904D01*
X138459523Y-124886428D01*
X138411904Y-124791190D01*
X138364285Y-124743571D01*
X138269047Y-124695952D01*
X147148095Y-112572380D02*
X147148095Y-113381904D01*
X147195714Y-113477142D01*
X147243333Y-113524761D01*
X147338571Y-113572380D01*
X147529047Y-113572380D01*
X147624285Y-113524761D01*
X147671904Y-113477142D01*
X147719523Y-113381904D01*
X147719523Y-112572380D01*
X148100476Y-112572380D02*
X148767142Y-112572380D01*
X148338571Y-113572380D01*
X138397380Y-110581904D02*
X139206904Y-110581904D01*
X139302142Y-110534285D01*
X139349761Y-110486666D01*
X139397380Y-110391428D01*
X139397380Y-110200952D01*
X139349761Y-110105714D01*
X139302142Y-110058095D01*
X139206904Y-110010476D01*
X138397380Y-110010476D01*
X138492619Y-109581904D02*
X138445000Y-109534285D01*
X138397380Y-109439047D01*
X138397380Y-109200952D01*
X138445000Y-109105714D01*
X138492619Y-109058095D01*
X138587857Y-109010476D01*
X138683095Y-109010476D01*
X138825952Y-109058095D01*
X139397380Y-109629523D01*
X139397380Y-109010476D01*
X132421333Y-113228380D02*
X132088000Y-112752190D01*
X131849904Y-113228380D02*
X131849904Y-112228380D01*
X132230857Y-112228380D01*
X132326095Y-112276000D01*
X132373714Y-112323619D01*
X132421333Y-112418857D01*
X132421333Y-112561714D01*
X132373714Y-112656952D01*
X132326095Y-112704571D01*
X132230857Y-112752190D01*
X131849904Y-112752190D01*
X132754666Y-112228380D02*
X133421333Y-112228380D01*
X132992761Y-113228380D01*
X141023333Y-112172380D02*
X140690000Y-111696190D01*
X140451904Y-112172380D02*
X140451904Y-111172380D01*
X140832857Y-111172380D01*
X140928095Y-111220000D01*
X140975714Y-111267619D01*
X141023333Y-111362857D01*
X141023333Y-111505714D01*
X140975714Y-111600952D01*
X140928095Y-111648571D01*
X140832857Y-111696190D01*
X140451904Y-111696190D01*
X141928095Y-111172380D02*
X141451904Y-111172380D01*
X141404285Y-111648571D01*
X141451904Y-111600952D01*
X141547142Y-111553333D01*
X141785238Y-111553333D01*
X141880476Y-111600952D01*
X141928095Y-111648571D01*
X141975714Y-111743809D01*
X141975714Y-111981904D01*
X141928095Y-112077142D01*
X141880476Y-112124761D01*
X141785238Y-112172380D01*
X141547142Y-112172380D01*
X141451904Y-112124761D01*
X141404285Y-112077142D01*
X140433333Y-109162380D02*
X140100000Y-108686190D01*
X139861904Y-109162380D02*
X139861904Y-108162380D01*
X140242857Y-108162380D01*
X140338095Y-108210000D01*
X140385714Y-108257619D01*
X140433333Y-108352857D01*
X140433333Y-108495714D01*
X140385714Y-108590952D01*
X140338095Y-108638571D01*
X140242857Y-108686190D01*
X139861904Y-108686190D01*
X141290476Y-108495714D02*
X141290476Y-109162380D01*
X141052380Y-108114761D02*
X140814285Y-108829047D01*
X141433333Y-108829047D01*
X130889142Y-116026380D02*
X130555809Y-115550190D01*
X130317714Y-116026380D02*
X130317714Y-115026380D01*
X130698666Y-115026380D01*
X130793904Y-115074000D01*
X130841523Y-115121619D01*
X130889142Y-115216857D01*
X130889142Y-115359714D01*
X130841523Y-115454952D01*
X130793904Y-115502571D01*
X130698666Y-115550190D01*
X130317714Y-115550190D01*
X131270095Y-115121619D02*
X131317714Y-115074000D01*
X131412952Y-115026380D01*
X131651047Y-115026380D01*
X131746285Y-115074000D01*
X131793904Y-115121619D01*
X131841523Y-115216857D01*
X131841523Y-115312095D01*
X131793904Y-115454952D01*
X131222476Y-116026380D01*
X131841523Y-116026380D01*
X132174857Y-115026380D02*
X132793904Y-115026380D01*
X132460571Y-115407333D01*
X132603428Y-115407333D01*
X132698666Y-115454952D01*
X132746285Y-115502571D01*
X132793904Y-115597809D01*
X132793904Y-115835904D01*
X132746285Y-115931142D01*
X132698666Y-115978761D01*
X132603428Y-116026380D01*
X132317714Y-116026380D01*
X132222476Y-115978761D01*
X132174857Y-115931142D01*
X131908380Y-121148857D02*
X131432190Y-121482190D01*
X131908380Y-121720285D02*
X130908380Y-121720285D01*
X130908380Y-121339333D01*
X130956000Y-121244095D01*
X131003619Y-121196476D01*
X131098857Y-121148857D01*
X131241714Y-121148857D01*
X131336952Y-121196476D01*
X131384571Y-121244095D01*
X131432190Y-121339333D01*
X131432190Y-121720285D01*
X131003619Y-120767904D02*
X130956000Y-120720285D01*
X130908380Y-120625047D01*
X130908380Y-120386952D01*
X130956000Y-120291714D01*
X131003619Y-120244095D01*
X131098857Y-120196476D01*
X131194095Y-120196476D01*
X131336952Y-120244095D01*
X131908380Y-120815523D01*
X131908380Y-120196476D01*
X131003619Y-119815523D02*
X130956000Y-119767904D01*
X130908380Y-119672666D01*
X130908380Y-119434571D01*
X130956000Y-119339333D01*
X131003619Y-119291714D01*
X131098857Y-119244095D01*
X131194095Y-119244095D01*
X131336952Y-119291714D01*
X131908380Y-119863142D01*
X131908380Y-119244095D01*
X163642380Y-114901857D02*
X163166190Y-115235190D01*
X163642380Y-115473285D02*
X162642380Y-115473285D01*
X162642380Y-115092333D01*
X162690000Y-114997095D01*
X162737619Y-114949476D01*
X162832857Y-114901857D01*
X162975714Y-114901857D01*
X163070952Y-114949476D01*
X163118571Y-114997095D01*
X163166190Y-115092333D01*
X163166190Y-115473285D01*
X162737619Y-114520904D02*
X162690000Y-114473285D01*
X162642380Y-114378047D01*
X162642380Y-114139952D01*
X162690000Y-114044714D01*
X162737619Y-113997095D01*
X162832857Y-113949476D01*
X162928095Y-113949476D01*
X163070952Y-113997095D01*
X163642380Y-114568523D01*
X163642380Y-113949476D01*
X163642380Y-112997095D02*
X163642380Y-113568523D01*
X163642380Y-113282809D02*
X162642380Y-113282809D01*
X162785238Y-113378047D01*
X162880476Y-113473285D01*
X162928095Y-113568523D01*
X154832142Y-117418380D02*
X154498809Y-116942190D01*
X154260714Y-117418380D02*
X154260714Y-116418380D01*
X154641666Y-116418380D01*
X154736904Y-116466000D01*
X154784523Y-116513619D01*
X154832142Y-116608857D01*
X154832142Y-116751714D01*
X154784523Y-116846952D01*
X154736904Y-116894571D01*
X154641666Y-116942190D01*
X154260714Y-116942190D01*
X155213095Y-116513619D02*
X155260714Y-116466000D01*
X155355952Y-116418380D01*
X155594047Y-116418380D01*
X155689285Y-116466000D01*
X155736904Y-116513619D01*
X155784523Y-116608857D01*
X155784523Y-116704095D01*
X155736904Y-116846952D01*
X155165476Y-117418380D01*
X155784523Y-117418380D01*
X156403571Y-116418380D02*
X156498809Y-116418380D01*
X156594047Y-116466000D01*
X156641666Y-116513619D01*
X156689285Y-116608857D01*
X156736904Y-116799333D01*
X156736904Y-117037428D01*
X156689285Y-117227904D01*
X156641666Y-117323142D01*
X156594047Y-117370761D01*
X156498809Y-117418380D01*
X156403571Y-117418380D01*
X156308333Y-117370761D01*
X156260714Y-117323142D01*
X156213095Y-117227904D01*
X156165476Y-117037428D01*
X156165476Y-116799333D01*
X156213095Y-116608857D01*
X156260714Y-116513619D01*
X156308333Y-116466000D01*
X156403571Y-116418380D01*
X141733142Y-117052380D02*
X141399809Y-116576190D01*
X141161714Y-117052380D02*
X141161714Y-116052380D01*
X141542666Y-116052380D01*
X141637904Y-116100000D01*
X141685523Y-116147619D01*
X141733142Y-116242857D01*
X141733142Y-116385714D01*
X141685523Y-116480952D01*
X141637904Y-116528571D01*
X141542666Y-116576190D01*
X141161714Y-116576190D01*
X142685523Y-117052380D02*
X142114095Y-117052380D01*
X142399809Y-117052380D02*
X142399809Y-116052380D01*
X142304571Y-116195238D01*
X142209333Y-116290476D01*
X142114095Y-116338095D01*
X143161714Y-117052380D02*
X143352190Y-117052380D01*
X143447428Y-117004761D01*
X143495047Y-116957142D01*
X143590285Y-116814285D01*
X143637904Y-116623809D01*
X143637904Y-116242857D01*
X143590285Y-116147619D01*
X143542666Y-116100000D01*
X143447428Y-116052380D01*
X143256952Y-116052380D01*
X143161714Y-116100000D01*
X143114095Y-116147619D01*
X143066476Y-116242857D01*
X143066476Y-116480952D01*
X143114095Y-116576190D01*
X143161714Y-116623809D01*
X143256952Y-116671428D01*
X143447428Y-116671428D01*
X143542666Y-116623809D01*
X143590285Y-116576190D01*
X143637904Y-116480952D01*
X150583333Y-109762380D02*
X150250000Y-109286190D01*
X150011904Y-109762380D02*
X150011904Y-108762380D01*
X150392857Y-108762380D01*
X150488095Y-108810000D01*
X150535714Y-108857619D01*
X150583333Y-108952857D01*
X150583333Y-109095714D01*
X150535714Y-109190952D01*
X150488095Y-109238571D01*
X150392857Y-109286190D01*
X150011904Y-109286190D01*
X150916666Y-108762380D02*
X151535714Y-108762380D01*
X151202380Y-109143333D01*
X151345238Y-109143333D01*
X151440476Y-109190952D01*
X151488095Y-109238571D01*
X151535714Y-109333809D01*
X151535714Y-109571904D01*
X151488095Y-109667142D01*
X151440476Y-109714761D01*
X151345238Y-109762380D01*
X151059523Y-109762380D01*
X150964285Y-109714761D01*
X150916666Y-109667142D01*
X130929142Y-99004380D02*
X130595809Y-98528190D01*
X130357714Y-99004380D02*
X130357714Y-98004380D01*
X130738666Y-98004380D01*
X130833904Y-98052000D01*
X130881523Y-98099619D01*
X130929142Y-98194857D01*
X130929142Y-98337714D01*
X130881523Y-98432952D01*
X130833904Y-98480571D01*
X130738666Y-98528190D01*
X130357714Y-98528190D01*
X131881523Y-99004380D02*
X131310095Y-99004380D01*
X131595809Y-99004380D02*
X131595809Y-98004380D01*
X131500571Y-98147238D01*
X131405333Y-98242476D01*
X131310095Y-98290095D01*
X132786285Y-98004380D02*
X132310095Y-98004380D01*
X132262476Y-98480571D01*
X132310095Y-98432952D01*
X132405333Y-98385333D01*
X132643428Y-98385333D01*
X132738666Y-98432952D01*
X132786285Y-98480571D01*
X132833904Y-98575809D01*
X132833904Y-98813904D01*
X132786285Y-98909142D01*
X132738666Y-98956761D01*
X132643428Y-99004380D01*
X132405333Y-99004380D01*
X132310095Y-98956761D01*
X132262476Y-98909142D01*
X161273333Y-118412380D02*
X160797142Y-118412380D01*
X160797142Y-117412380D01*
X162130476Y-118412380D02*
X161559047Y-118412380D01*
X161844761Y-118412380D02*
X161844761Y-117412380D01*
X161749523Y-117555238D01*
X161654285Y-117650476D01*
X161559047Y-117698095D01*
X160236666Y-122662380D02*
X160236666Y-123376666D01*
X160189047Y-123519523D01*
X160093809Y-123614761D01*
X159950952Y-123662380D01*
X159855714Y-123662380D01*
X160617619Y-122662380D02*
X161236666Y-122662380D01*
X160903333Y-123043333D01*
X161046190Y-123043333D01*
X161141428Y-123090952D01*
X161189047Y-123138571D01*
X161236666Y-123233809D01*
X161236666Y-123471904D01*
X161189047Y-123567142D01*
X161141428Y-123614761D01*
X161046190Y-123662380D01*
X160760476Y-123662380D01*
X160665238Y-123614761D01*
X160617619Y-123567142D01*
X137202142Y-116387142D02*
X137154523Y-116434761D01*
X137011666Y-116482380D01*
X136916428Y-116482380D01*
X136773571Y-116434761D01*
X136678333Y-116339523D01*
X136630714Y-116244285D01*
X136583095Y-116053809D01*
X136583095Y-115910952D01*
X136630714Y-115720476D01*
X136678333Y-115625238D01*
X136773571Y-115530000D01*
X136916428Y-115482380D01*
X137011666Y-115482380D01*
X137154523Y-115530000D01*
X137202142Y-115577619D01*
X137583095Y-115577619D02*
X137630714Y-115530000D01*
X137725952Y-115482380D01*
X137964047Y-115482380D01*
X138059285Y-115530000D01*
X138106904Y-115577619D01*
X138154523Y-115672857D01*
X138154523Y-115768095D01*
X138106904Y-115910952D01*
X137535476Y-116482380D01*
X138154523Y-116482380D01*
X139059285Y-115482380D02*
X138583095Y-115482380D01*
X138535476Y-115958571D01*
X138583095Y-115910952D01*
X138678333Y-115863333D01*
X138916428Y-115863333D01*
X139011666Y-115910952D01*
X139059285Y-115958571D01*
X139106904Y-116053809D01*
X139106904Y-116291904D01*
X139059285Y-116387142D01*
X139011666Y-116434761D01*
X138916428Y-116482380D01*
X138678333Y-116482380D01*
X138583095Y-116434761D01*
X138535476Y-116387142D01*
X136163333Y-113387142D02*
X136115714Y-113434761D01*
X135972857Y-113482380D01*
X135877619Y-113482380D01*
X135734761Y-113434761D01*
X135639523Y-113339523D01*
X135591904Y-113244285D01*
X135544285Y-113053809D01*
X135544285Y-112910952D01*
X135591904Y-112720476D01*
X135639523Y-112625238D01*
X135734761Y-112530000D01*
X135877619Y-112482380D01*
X135972857Y-112482380D01*
X136115714Y-112530000D01*
X136163333Y-112577619D01*
X136639523Y-113482380D02*
X136830000Y-113482380D01*
X136925238Y-113434761D01*
X136972857Y-113387142D01*
X137068095Y-113244285D01*
X137115714Y-113053809D01*
X137115714Y-112672857D01*
X137068095Y-112577619D01*
X137020476Y-112530000D01*
X136925238Y-112482380D01*
X136734761Y-112482380D01*
X136639523Y-112530000D01*
X136591904Y-112577619D01*
X136544285Y-112672857D01*
X136544285Y-112910952D01*
X136591904Y-113006190D01*
X136639523Y-113053809D01*
X136734761Y-113101428D01*
X136925238Y-113101428D01*
X137020476Y-113053809D01*
X137068095Y-113006190D01*
X137115714Y-112910952D01*
X131151333Y-108561142D02*
X131103714Y-108608761D01*
X130960857Y-108656380D01*
X130865619Y-108656380D01*
X130722761Y-108608761D01*
X130627523Y-108513523D01*
X130579904Y-108418285D01*
X130532285Y-108227809D01*
X130532285Y-108084952D01*
X130579904Y-107894476D01*
X130627523Y-107799238D01*
X130722761Y-107704000D01*
X130865619Y-107656380D01*
X130960857Y-107656380D01*
X131103714Y-107704000D01*
X131151333Y-107751619D01*
X132008476Y-107656380D02*
X131818000Y-107656380D01*
X131722761Y-107704000D01*
X131675142Y-107751619D01*
X131579904Y-107894476D01*
X131532285Y-108084952D01*
X131532285Y-108465904D01*
X131579904Y-108561142D01*
X131627523Y-108608761D01*
X131722761Y-108656380D01*
X131913238Y-108656380D01*
X132008476Y-108608761D01*
X132056095Y-108561142D01*
X132103714Y-108465904D01*
X132103714Y-108227809D01*
X132056095Y-108132571D01*
X132008476Y-108084952D01*
X131913238Y-108037333D01*
X131722761Y-108037333D01*
X131627523Y-108084952D01*
X131579904Y-108132571D01*
X131532285Y-108227809D01*
X143537142Y-93766666D02*
X143584761Y-93814285D01*
X143632380Y-93957142D01*
X143632380Y-94052380D01*
X143584761Y-94195238D01*
X143489523Y-94290476D01*
X143394285Y-94338095D01*
X143203809Y-94385714D01*
X143060952Y-94385714D01*
X142870476Y-94338095D01*
X142775238Y-94290476D01*
X142680000Y-94195238D01*
X142632380Y-94052380D01*
X142632380Y-93957142D01*
X142680000Y-93814285D01*
X142727619Y-93766666D01*
X142965714Y-92909523D02*
X143632380Y-92909523D01*
X142584761Y-93147619D02*
X143299047Y-93385714D01*
X143299047Y-92766666D01*
X134007142Y-116689142D02*
X133959523Y-116736761D01*
X133816666Y-116784380D01*
X133721428Y-116784380D01*
X133578571Y-116736761D01*
X133483333Y-116641523D01*
X133435714Y-116546285D01*
X133388095Y-116355809D01*
X133388095Y-116212952D01*
X133435714Y-116022476D01*
X133483333Y-115927238D01*
X133578571Y-115832000D01*
X133721428Y-115784380D01*
X133816666Y-115784380D01*
X133959523Y-115832000D01*
X134007142Y-115879619D01*
X134388095Y-115879619D02*
X134435714Y-115832000D01*
X134530952Y-115784380D01*
X134769047Y-115784380D01*
X134864285Y-115832000D01*
X134911904Y-115879619D01*
X134959523Y-115974857D01*
X134959523Y-116070095D01*
X134911904Y-116212952D01*
X134340476Y-116784380D01*
X134959523Y-116784380D01*
X135816666Y-116117714D02*
X135816666Y-116784380D01*
X135578571Y-115736761D02*
X135340476Y-116451047D01*
X135959523Y-116451047D01*
X136705142Y-119526857D02*
X136752761Y-119574476D01*
X136800380Y-119717333D01*
X136800380Y-119812571D01*
X136752761Y-119955428D01*
X136657523Y-120050666D01*
X136562285Y-120098285D01*
X136371809Y-120145904D01*
X136228952Y-120145904D01*
X136038476Y-120098285D01*
X135943238Y-120050666D01*
X135848000Y-119955428D01*
X135800380Y-119812571D01*
X135800380Y-119717333D01*
X135848000Y-119574476D01*
X135895619Y-119526857D01*
X135895619Y-119145904D02*
X135848000Y-119098285D01*
X135800380Y-119003047D01*
X135800380Y-118764952D01*
X135848000Y-118669714D01*
X135895619Y-118622095D01*
X135990857Y-118574476D01*
X136086095Y-118574476D01*
X136228952Y-118622095D01*
X136800380Y-119193523D01*
X136800380Y-118574476D01*
X135800380Y-118241142D02*
X135800380Y-117622095D01*
X136181333Y-117955428D01*
X136181333Y-117812571D01*
X136228952Y-117717333D01*
X136276571Y-117669714D01*
X136371809Y-117622095D01*
X136609904Y-117622095D01*
X136705142Y-117669714D01*
X136752761Y-117717333D01*
X136800380Y-117812571D01*
X136800380Y-118098285D01*
X136752761Y-118193523D01*
X136705142Y-118241142D01*
X157857142Y-113037142D02*
X157809523Y-113084761D01*
X157666666Y-113132380D01*
X157571428Y-113132380D01*
X157428571Y-113084761D01*
X157333333Y-112989523D01*
X157285714Y-112894285D01*
X157238095Y-112703809D01*
X157238095Y-112560952D01*
X157285714Y-112370476D01*
X157333333Y-112275238D01*
X157428571Y-112180000D01*
X157571428Y-112132380D01*
X157666666Y-112132380D01*
X157809523Y-112180000D01*
X157857142Y-112227619D01*
X158238095Y-112227619D02*
X158285714Y-112180000D01*
X158380952Y-112132380D01*
X158619047Y-112132380D01*
X158714285Y-112180000D01*
X158761904Y-112227619D01*
X158809523Y-112322857D01*
X158809523Y-112418095D01*
X158761904Y-112560952D01*
X158190476Y-113132380D01*
X158809523Y-113132380D01*
X159190476Y-112227619D02*
X159238095Y-112180000D01*
X159333333Y-112132380D01*
X159571428Y-112132380D01*
X159666666Y-112180000D01*
X159714285Y-112227619D01*
X159761904Y-112322857D01*
X159761904Y-112418095D01*
X159714285Y-112560952D01*
X159142857Y-113132380D01*
X159761904Y-113132380D01*
X154047142Y-114753810D02*
X153999523Y-114801429D01*
X153856666Y-114849048D01*
X153761428Y-114849048D01*
X153618571Y-114801429D01*
X153523333Y-114706191D01*
X153475714Y-114610953D01*
X153428095Y-114420477D01*
X153428095Y-114277620D01*
X153475714Y-114087144D01*
X153523333Y-113991906D01*
X153618571Y-113896668D01*
X153761428Y-113849048D01*
X153856666Y-113849048D01*
X153999523Y-113896668D01*
X154047142Y-113944287D01*
X154428095Y-113944287D02*
X154475714Y-113896668D01*
X154570952Y-113849048D01*
X154809047Y-113849048D01*
X154904285Y-113896668D01*
X154951904Y-113944287D01*
X154999523Y-114039525D01*
X154999523Y-114134763D01*
X154951904Y-114277620D01*
X154380476Y-114849048D01*
X154999523Y-114849048D01*
X155951904Y-114849048D02*
X155380476Y-114849048D01*
X155666190Y-114849048D02*
X155666190Y-113849048D01*
X155570952Y-113991906D01*
X155475714Y-114087144D01*
X155380476Y-114134763D01*
X165227142Y-115231857D02*
X165274761Y-115279476D01*
X165322380Y-115422333D01*
X165322380Y-115517571D01*
X165274761Y-115660428D01*
X165179523Y-115755666D01*
X165084285Y-115803285D01*
X164893809Y-115850904D01*
X164750952Y-115850904D01*
X164560476Y-115803285D01*
X164465238Y-115755666D01*
X164370000Y-115660428D01*
X164322380Y-115517571D01*
X164322380Y-115422333D01*
X164370000Y-115279476D01*
X164417619Y-115231857D01*
X164417619Y-114850904D02*
X164370000Y-114803285D01*
X164322380Y-114708047D01*
X164322380Y-114469952D01*
X164370000Y-114374714D01*
X164417619Y-114327095D01*
X164512857Y-114279476D01*
X164608095Y-114279476D01*
X164750952Y-114327095D01*
X165322380Y-114898523D01*
X165322380Y-114279476D01*
X164322380Y-113660428D02*
X164322380Y-113565190D01*
X164370000Y-113469952D01*
X164417619Y-113422333D01*
X164512857Y-113374714D01*
X164703333Y-113327095D01*
X164941428Y-113327095D01*
X165131904Y-113374714D01*
X165227142Y-113422333D01*
X165274761Y-113469952D01*
X165322380Y-113565190D01*
X165322380Y-113660428D01*
X165274761Y-113755666D01*
X165227142Y-113803285D01*
X165131904Y-113850904D01*
X164941428Y-113898523D01*
X164703333Y-113898523D01*
X164512857Y-113850904D01*
X164417619Y-113803285D01*
X164370000Y-113755666D01*
X164322380Y-113660428D01*
X154012142Y-112775142D02*
X153964523Y-112822761D01*
X153821666Y-112870380D01*
X153726428Y-112870380D01*
X153583571Y-112822761D01*
X153488333Y-112727523D01*
X153440714Y-112632285D01*
X153393095Y-112441809D01*
X153393095Y-112298952D01*
X153440714Y-112108476D01*
X153488333Y-112013238D01*
X153583571Y-111918000D01*
X153726428Y-111870380D01*
X153821666Y-111870380D01*
X153964523Y-111918000D01*
X154012142Y-111965619D01*
X154964523Y-112870380D02*
X154393095Y-112870380D01*
X154678809Y-112870380D02*
X154678809Y-111870380D01*
X154583571Y-112013238D01*
X154488333Y-112108476D01*
X154393095Y-112156095D01*
X155440714Y-112870380D02*
X155631190Y-112870380D01*
X155726428Y-112822761D01*
X155774047Y-112775142D01*
X155869285Y-112632285D01*
X155916904Y-112441809D01*
X155916904Y-112060857D01*
X155869285Y-111965619D01*
X155821666Y-111918000D01*
X155726428Y-111870380D01*
X155535952Y-111870380D01*
X155440714Y-111918000D01*
X155393095Y-111965619D01*
X155345476Y-112060857D01*
X155345476Y-112298952D01*
X155393095Y-112394190D01*
X155440714Y-112441809D01*
X155535952Y-112489428D01*
X155726428Y-112489428D01*
X155821666Y-112441809D01*
X155869285Y-112394190D01*
X155916904Y-112298952D01*
X162415142Y-109135857D02*
X162462761Y-109183476D01*
X162510380Y-109326333D01*
X162510380Y-109421571D01*
X162462761Y-109564428D01*
X162367523Y-109659666D01*
X162272285Y-109707285D01*
X162081809Y-109754904D01*
X161938952Y-109754904D01*
X161748476Y-109707285D01*
X161653238Y-109659666D01*
X161558000Y-109564428D01*
X161510380Y-109421571D01*
X161510380Y-109326333D01*
X161558000Y-109183476D01*
X161605619Y-109135857D01*
X162510380Y-108183476D02*
X162510380Y-108754904D01*
X162510380Y-108469190D02*
X161510380Y-108469190D01*
X161653238Y-108564428D01*
X161748476Y-108659666D01*
X161796095Y-108754904D01*
X161938952Y-107612047D02*
X161891333Y-107707285D01*
X161843714Y-107754904D01*
X161748476Y-107802523D01*
X161700857Y-107802523D01*
X161605619Y-107754904D01*
X161558000Y-107707285D01*
X161510380Y-107612047D01*
X161510380Y-107421571D01*
X161558000Y-107326333D01*
X161605619Y-107278714D01*
X161700857Y-107231095D01*
X161748476Y-107231095D01*
X161843714Y-107278714D01*
X161891333Y-107326333D01*
X161938952Y-107421571D01*
X161938952Y-107612047D01*
X161986571Y-107707285D01*
X162034190Y-107754904D01*
X162129428Y-107802523D01*
X162319904Y-107802523D01*
X162415142Y-107754904D01*
X162462761Y-107707285D01*
X162510380Y-107612047D01*
X162510380Y-107421571D01*
X162462761Y-107326333D01*
X162415142Y-107278714D01*
X162319904Y-107231095D01*
X162129428Y-107231095D01*
X162034190Y-107278714D01*
X161986571Y-107326333D01*
X161938952Y-107421571D01*
X160873333Y-95099142D02*
X160825714Y-95146761D01*
X160682857Y-95194380D01*
X160587619Y-95194380D01*
X160444761Y-95146761D01*
X160349523Y-95051523D01*
X160301904Y-94956285D01*
X160254285Y-94765809D01*
X160254285Y-94622952D01*
X160301904Y-94432476D01*
X160349523Y-94337238D01*
X160444761Y-94242000D01*
X160587619Y-94194380D01*
X160682857Y-94194380D01*
X160825714Y-94242000D01*
X160873333Y-94289619D01*
X161778095Y-94194380D02*
X161301904Y-94194380D01*
X161254285Y-94670571D01*
X161301904Y-94622952D01*
X161397142Y-94575333D01*
X161635238Y-94575333D01*
X161730476Y-94622952D01*
X161778095Y-94670571D01*
X161825714Y-94765809D01*
X161825714Y-95003904D01*
X161778095Y-95099142D01*
X161730476Y-95146761D01*
X161635238Y-95194380D01*
X161397142Y-95194380D01*
X161301904Y-95146761D01*
X161254285Y-95099142D01*
X156704142Y-113570857D02*
X156751761Y-113618476D01*
X156799380Y-113761333D01*
X156799380Y-113856571D01*
X156751761Y-113999428D01*
X156656523Y-114094666D01*
X156561285Y-114142285D01*
X156370809Y-114189904D01*
X156227952Y-114189904D01*
X156037476Y-114142285D01*
X155942238Y-114094666D01*
X155847000Y-113999428D01*
X155799380Y-113856571D01*
X155799380Y-113761333D01*
X155847000Y-113618476D01*
X155894619Y-113570857D01*
X156799380Y-112618476D02*
X156799380Y-113189904D01*
X156799380Y-112904190D02*
X155799380Y-112904190D01*
X155942238Y-112999428D01*
X156037476Y-113094666D01*
X156085095Y-113189904D01*
X155799380Y-112285142D02*
X155799380Y-111618476D01*
X156799380Y-112047047D01*
X156329142Y-98147142D02*
X156281523Y-98194761D01*
X156138666Y-98242380D01*
X156043428Y-98242380D01*
X155900571Y-98194761D01*
X155805333Y-98099523D01*
X155757714Y-98004285D01*
X155710095Y-97813809D01*
X155710095Y-97670952D01*
X155757714Y-97480476D01*
X155805333Y-97385238D01*
X155900571Y-97290000D01*
X156043428Y-97242380D01*
X156138666Y-97242380D01*
X156281523Y-97290000D01*
X156329142Y-97337619D01*
X157281523Y-98242380D02*
X156710095Y-98242380D01*
X156995809Y-98242380D02*
X156995809Y-97242380D01*
X156900571Y-97385238D01*
X156805333Y-97480476D01*
X156710095Y-97528095D01*
X158233904Y-98242380D02*
X157662476Y-98242380D01*
X157948190Y-98242380D02*
X157948190Y-97242380D01*
X157852952Y-97385238D01*
X157757714Y-97480476D01*
X157662476Y-97528095D01*
X154029142Y-111251142D02*
X153981523Y-111298761D01*
X153838666Y-111346380D01*
X153743428Y-111346380D01*
X153600571Y-111298761D01*
X153505333Y-111203523D01*
X153457714Y-111108285D01*
X153410095Y-110917809D01*
X153410095Y-110774952D01*
X153457714Y-110584476D01*
X153505333Y-110489238D01*
X153600571Y-110394000D01*
X153743428Y-110346380D01*
X153838666Y-110346380D01*
X153981523Y-110394000D01*
X154029142Y-110441619D01*
X154981523Y-111346380D02*
X154410095Y-111346380D01*
X154695809Y-111346380D02*
X154695809Y-110346380D01*
X154600571Y-110489238D01*
X154505333Y-110584476D01*
X154410095Y-110632095D01*
X155838666Y-110346380D02*
X155648190Y-110346380D01*
X155552952Y-110394000D01*
X155505333Y-110441619D01*
X155410095Y-110584476D01*
X155362476Y-110774952D01*
X155362476Y-111155904D01*
X155410095Y-111251142D01*
X155457714Y-111298761D01*
X155552952Y-111346380D01*
X155743428Y-111346380D01*
X155838666Y-111298761D01*
X155886285Y-111251142D01*
X155933904Y-111155904D01*
X155933904Y-110917809D01*
X155886285Y-110822571D01*
X155838666Y-110774952D01*
X155743428Y-110727333D01*
X155552952Y-110727333D01*
X155457714Y-110774952D01*
X155410095Y-110822571D01*
X155362476Y-110917809D01*
X160139142Y-98402142D02*
X160091523Y-98449761D01*
X159948666Y-98497380D01*
X159853428Y-98497380D01*
X159710571Y-98449761D01*
X159615333Y-98354523D01*
X159567714Y-98259285D01*
X159520095Y-98068809D01*
X159520095Y-97925952D01*
X159567714Y-97735476D01*
X159615333Y-97640238D01*
X159710571Y-97545000D01*
X159853428Y-97497380D01*
X159948666Y-97497380D01*
X160091523Y-97545000D01*
X160139142Y-97592619D01*
X161091523Y-98497380D02*
X160520095Y-98497380D01*
X160805809Y-98497380D02*
X160805809Y-97497380D01*
X160710571Y-97640238D01*
X160615333Y-97735476D01*
X160520095Y-97783095D01*
X161710571Y-97497380D02*
X161805809Y-97497380D01*
X161901047Y-97545000D01*
X161948666Y-97592619D01*
X161996285Y-97687857D01*
X162043904Y-97878333D01*
X162043904Y-98116428D01*
X161996285Y-98306904D01*
X161948666Y-98402142D01*
X161901047Y-98449761D01*
X161805809Y-98497380D01*
X161710571Y-98497380D01*
X161615333Y-98449761D01*
X161567714Y-98402142D01*
X161520095Y-98306904D01*
X161472476Y-98116428D01*
X161472476Y-97878333D01*
X161520095Y-97687857D01*
X161567714Y-97592619D01*
X161615333Y-97545000D01*
X161710571Y-97497380D01*
X144907142Y-115772857D02*
X144954761Y-115820476D01*
X145002380Y-115963333D01*
X145002380Y-116058571D01*
X144954761Y-116201428D01*
X144859523Y-116296666D01*
X144764285Y-116344285D01*
X144573809Y-116391904D01*
X144430952Y-116391904D01*
X144240476Y-116344285D01*
X144145238Y-116296666D01*
X144050000Y-116201428D01*
X144002380Y-116058571D01*
X144002380Y-115963333D01*
X144050000Y-115820476D01*
X144097619Y-115772857D01*
X145002380Y-114820476D02*
X145002380Y-115391904D01*
X145002380Y-115106190D02*
X144002380Y-115106190D01*
X144145238Y-115201428D01*
X144240476Y-115296666D01*
X144288095Y-115391904D01*
X144002380Y-113915714D02*
X144002380Y-114391904D01*
X144478571Y-114439523D01*
X144430952Y-114391904D01*
X144383333Y-114296666D01*
X144383333Y-114058571D01*
X144430952Y-113963333D01*
X144478571Y-113915714D01*
X144573809Y-113868095D01*
X144811904Y-113868095D01*
X144907142Y-113915714D01*
X144954761Y-113963333D01*
X145002380Y-114058571D01*
X145002380Y-114296666D01*
X144954761Y-114391904D01*
X144907142Y-114439523D01*
X142613142Y-115792857D02*
X142660761Y-115840476D01*
X142708380Y-115983333D01*
X142708380Y-116078571D01*
X142660761Y-116221428D01*
X142565523Y-116316666D01*
X142470285Y-116364285D01*
X142279809Y-116411904D01*
X142136952Y-116411904D01*
X141946476Y-116364285D01*
X141851238Y-116316666D01*
X141756000Y-116221428D01*
X141708380Y-116078571D01*
X141708380Y-115983333D01*
X141756000Y-115840476D01*
X141803619Y-115792857D01*
X142708380Y-114840476D02*
X142708380Y-115411904D01*
X142708380Y-115126190D02*
X141708380Y-115126190D01*
X141851238Y-115221428D01*
X141946476Y-115316666D01*
X141994095Y-115411904D01*
X142041714Y-113983333D02*
X142708380Y-113983333D01*
X141660761Y-114221428D02*
X142375047Y-114459523D01*
X142375047Y-113840476D01*
X160869333Y-105005142D02*
X160821714Y-105052761D01*
X160678857Y-105100380D01*
X160583619Y-105100380D01*
X160440761Y-105052761D01*
X160345523Y-104957523D01*
X160297904Y-104862285D01*
X160250285Y-104671809D01*
X160250285Y-104528952D01*
X160297904Y-104338476D01*
X160345523Y-104243238D01*
X160440761Y-104148000D01*
X160583619Y-104100380D01*
X160678857Y-104100380D01*
X160821714Y-104148000D01*
X160869333Y-104195619D01*
X161440761Y-104528952D02*
X161345523Y-104481333D01*
X161297904Y-104433714D01*
X161250285Y-104338476D01*
X161250285Y-104290857D01*
X161297904Y-104195619D01*
X161345523Y-104148000D01*
X161440761Y-104100380D01*
X161631238Y-104100380D01*
X161726476Y-104148000D01*
X161774095Y-104195619D01*
X161821714Y-104290857D01*
X161821714Y-104338476D01*
X161774095Y-104433714D01*
X161726476Y-104481333D01*
X161631238Y-104528952D01*
X161440761Y-104528952D01*
X161345523Y-104576571D01*
X161297904Y-104624190D01*
X161250285Y-104719428D01*
X161250285Y-104909904D01*
X161297904Y-105005142D01*
X161345523Y-105052761D01*
X161440761Y-105100380D01*
X161631238Y-105100380D01*
X161726476Y-105052761D01*
X161774095Y-105005142D01*
X161821714Y-104909904D01*
X161821714Y-104719428D01*
X161774095Y-104624190D01*
X161726476Y-104576571D01*
X161631238Y-104528952D01*
X161123333Y-106529142D02*
X161075714Y-106576761D01*
X160932857Y-106624380D01*
X160837619Y-106624380D01*
X160694761Y-106576761D01*
X160599523Y-106481523D01*
X160551904Y-106386285D01*
X160504285Y-106195809D01*
X160504285Y-106052952D01*
X160551904Y-105862476D01*
X160599523Y-105767238D01*
X160694761Y-105672000D01*
X160837619Y-105624380D01*
X160932857Y-105624380D01*
X161075714Y-105672000D01*
X161123333Y-105719619D01*
X161456666Y-105624380D02*
X162123333Y-105624380D01*
X161694761Y-106624380D01*
X137755333Y-116689142D02*
X137707714Y-116736761D01*
X137564857Y-116784380D01*
X137469619Y-116784380D01*
X137326761Y-116736761D01*
X137231523Y-116641523D01*
X137183904Y-116546285D01*
X137136285Y-116355809D01*
X137136285Y-116212952D01*
X137183904Y-116022476D01*
X137231523Y-115927238D01*
X137326761Y-115832000D01*
X137469619Y-115784380D01*
X137564857Y-115784380D01*
X137707714Y-115832000D01*
X137755333Y-115879619D01*
X138088666Y-115784380D02*
X138707714Y-115784380D01*
X138374380Y-116165333D01*
X138517238Y-116165333D01*
X138612476Y-116212952D01*
X138660095Y-116260571D01*
X138707714Y-116355809D01*
X138707714Y-116593904D01*
X138660095Y-116689142D01*
X138612476Y-116736761D01*
X138517238Y-116784380D01*
X138231523Y-116784380D01*
X138136285Y-116736761D01*
X138088666Y-116689142D01*
X134199333Y-114911142D02*
X134151714Y-114958761D01*
X134008857Y-115006380D01*
X133913619Y-115006380D01*
X133770761Y-114958761D01*
X133675523Y-114863523D01*
X133627904Y-114768285D01*
X133580285Y-114577809D01*
X133580285Y-114434952D01*
X133627904Y-114244476D01*
X133675523Y-114149238D01*
X133770761Y-114054000D01*
X133913619Y-114006380D01*
X134008857Y-114006380D01*
X134151714Y-114054000D01*
X134199333Y-114101619D01*
X134580285Y-114101619D02*
X134627904Y-114054000D01*
X134723142Y-114006380D01*
X134961238Y-114006380D01*
X135056476Y-114054000D01*
X135104095Y-114101619D01*
X135151714Y-114196857D01*
X135151714Y-114292095D01*
X135104095Y-114434952D01*
X134532666Y-115006380D01*
X135151714Y-115006380D01*
X137750333Y-118467142D02*
X137702714Y-118514761D01*
X137559857Y-118562380D01*
X137464619Y-118562380D01*
X137321761Y-118514761D01*
X137226523Y-118419523D01*
X137178904Y-118324285D01*
X137131285Y-118133809D01*
X137131285Y-117990952D01*
X137178904Y-117800476D01*
X137226523Y-117705238D01*
X137321761Y-117610000D01*
X137464619Y-117562380D01*
X137559857Y-117562380D01*
X137702714Y-117610000D01*
X137750333Y-117657619D01*
X138702714Y-118562380D02*
X138131285Y-118562380D01*
X138417000Y-118562380D02*
X138417000Y-117562380D01*
X138321761Y-117705238D01*
X138226523Y-117800476D01*
X138131285Y-117848095D01*
M02*
